<svg xmlns="http://www.w3.org/2000/svg" xmlns:xlink="http://www.w3.org/1999/xlink" contentStyleType="text/css" data-diagram-type="STATE" height="913px" preserveAspectRatio="none" style="width:1954px;height:913px;background:#FFFFFF;" version="1.1" viewBox="0 0 1954 913" width="1954px" zoomAndPan="magnify"><defs/><g><g id="MenuPrincipal"><rect fill="#F1F1F1" height="50" rx="12.5" ry="12.5" style="stroke:#181818;stroke-width:0.5;" width="141.1396" x="910.5" y="87"/><line style="stroke:#181818;stroke-width:0.5;" x1="910.5" x2="1051.6396" y1="113.2969" y2="113.2969"/><text fill="#000000" font-family="sans-serif" font-size="14" lengthAdjust="spacing" textLength="121.1396" x="920.5" y="104.9951">MENU_PRINCIPAL</text></g><g id="ListandoReservas"><rect fill="#F1F1F1" height="50" rx="12.5" ry="12.5" style="stroke:#181818;stroke-width:0.5;" width="172.291" x="895" y="232"/><line style="stroke:#181818;stroke-width:0.5;" x1="895" x2="1067.291" y1="258.2969" y2="258.2969"/><text fill="#000000" font-family="sans-serif" font-size="14" lengthAdjust="spacing" textLength="152.291" x="905" y="249.9951">LISTANDO_RESERVAS</text></g><g id="CreandoReserva"><rect fill="#F1F1F1" height="50" rx="12.5" ry="12.5" style="stroke:#181818;stroke-width:0.5;" width="162.3857" x="7" y="392"/><line style="stroke:#181818;stroke-width:0.5;" x1="7" x2="169.3857" y1="418.2969" y2="418.2969"/><text fill="#000000" font-family="sans-serif" font-size="14" lengthAdjust="spacing" textLength="142.3857" x="17" y="409.9951">CREANDO_RESERVA</text></g><g id="ValidandoDisponibilidad"><rect fill="#F1F1F1" height="50" rx="12.5" ry="12.5" style="stroke:#181818;stroke-width:0.5;" width="225.3721" x="272.5" y="552"/><line style="stroke:#181818;stroke-width:0.5;" x1="272.5" x2="497.8721" y1="578.2969" y2="578.2969"/><text fill="#000000" font-family="sans-serif" font-size="14" lengthAdjust="spacing" textLength="205.3721" x="282.5" y="569.9951">VALIDANDO_DISPONIBILIDAD</text></g><g id="CalculandoMonto"><rect fill="#F1F1F1" height="50" rx="12.5" ry="12.5" style="stroke:#181818;stroke-width:0.5;" width="176.9668" x="1530.5" y="697"/><line style="stroke:#181818;stroke-width:0.5;" x1="1530.5" x2="1707.4668" y1="723.2969" y2="723.2969"/><text fill="#000000" font-family="sans-serif" font-size="14" lengthAdjust="spacing" textLength="156.9668" x="1540.5" y="714.9951">CALCULANDO_MONTO</text></g><g id="ConfirmandoReserva"><rect fill="#F1F1F1" height="50" rx="12.5" ry="12.5" style="stroke:#181818;stroke-width:0.5;" width="199.293" x="1603.5" y="857"/><line style="stroke:#181818;stroke-width:0.5;" x1="1603.5" x2="1802.793" y1="883.2969" y2="883.2969"/><text fill="#000000" font-family="sans-serif" font-size="14" lengthAdjust="spacing" textLength="179.293" x="1613.5" y="874.9951">CONFIRMANDO_RESERVA</text></g><g id="ModificandoReserva"><rect fill="#F1F1F1" height="50" rx="12.5" ry="12.5" style="stroke:#181818;stroke-width:0.5;" width="194.002" x="372" y="392"/><line style="stroke:#181818;stroke-width:0.5;" x1="372" x2="566.002" y1="418.2969" y2="418.2969"/><text fill="#000000" font-family="sans-serif" font-size="14" lengthAdjust="spacing" textLength="174.002" x="382" y="409.9951">MODIFICANDO_RESERVA</text></g><g id="CancelandoReserva"><rect fill="#F1F1F1" height="50" rx="12.5" ry="12.5" style="stroke:#181818;stroke-width:0.5;" width="190.2832" x="732" y="392"/><line style="stroke:#181818;stroke-width:0.5;" x1="732" x2="922.2832" y1="418.2969" y2="418.2969"/><text fill="#000000" font-family="sans-serif" font-size="14" lengthAdjust="spacing" textLength="170.2832" x="742" y="409.9951">CANCELANDO_RESERVA</text></g><g id="ConsultandoDetalles"><rect fill="#F1F1F1" height="50" rx="12.5" ry="12.5" style="stroke:#181818;stroke-width:0.5;" width="206.6895" x="1031.5" y="392"/><line style="stroke:#181818;stroke-width:0.5;" x1="1031.5" x2="1238.1895" y1="418.2969" y2="418.2969"/><text fill="#000000" font-family="sans-serif" font-size="14" lengthAdjust="spacing" textLength="186.6895" x="1041.5" y="409.9951">CONSULTANDO_DETALLES</text></g><g id="FiltrandoPorFecha"><rect fill="#F1F1F1" height="50" rx="12.5" ry="12.5" style="stroke:#181818;stroke-width:0.5;" width="190.0781" x="1450" y="392"/><line style="stroke:#181818;stroke-width:0.5;" x1="1450" x2="1640.0781" y1="418.2969" y2="418.2969"/><text fill="#000000" font-family="sans-serif" font-size="14" lengthAdjust="spacing" textLength="170.0781" x="1460" y="409.9951">FILTRANDO_POR_FECHA</text></g><ellipse cx="981" cy="16" fill="#222222" rx="10" ry="10" style="stroke:#222222;stroke-width:1;"/><!--link *start* to MenuPrincipal--><g class="link" data-entity-1=".start." data-entity-2="MenuPrincipal" data-source-line="12" data-uid="lnk3" id="link_.start._MenuPrincipal"><path d="M981,26.01 C981,39.89 981,60.97 981,80.84" fill="none" id="*start*-to-MenuPrincipal" style="stroke:#181818;stroke-width:1;"/><polygon fill="#181818" points="981,86.84,985,77.84,981,81.84,977,77.84,981,86.84" style="stroke:#181818;stroke-width:1;"/></g><!--link MenuPrincipal to ListandoReservas--><g class="link" data-entity-1="MenuPrincipal" data-entity-2="ListandoReservas" data-source-line="14" data-uid="lnk4" id="link_MenuPrincipal_ListandoReservas"><path d="M910.41,133.41 C894.83,141.33 880.23,152.19 871,167 C862.77,180.2 862.77,188.8 871,202 C878.88,214.64 885.4784,221.3922 898.4584,228.9122" fill="none" id="MenuPrincipal-to-ListandoReservas" style="stroke:#181818;stroke-width:1;"/><polygon fill="#181818" points="903.65,231.92,897.8677,223.9472,899.3236,229.4135,893.8573,230.8694,903.65,231.92" style="stroke:#181818;stroke-width:1;"/><path d="M876,172 L876,197 L1041,197 L1041,182 L1031,172 L876,172" fill="#FEFFDD" style="stroke:#181818;stroke-width:0.5;"/><path d="M1031,172 L1031,182 L1041,182 L1031,172" fill="#FEFFDD" style="stroke:#181818;stroke-width:0.5;"/><text fill="#000000" font-family="sans-serif" font-size="13" lengthAdjust="spacing" textLength="144.917" x="882" y="189.0669">Ver todas las reservas</text></g><!--link ListandoReservas to MenuPrincipal--><g class="link" data-entity-1="ListandoReservas" data-entity-2="MenuPrincipal" data-source-line="107" data-uid="lnk20" id="link_ListandoReservas_MenuPrincipal"><path d="M1024.29,231.75 C1034.6,223.71 1044.27,213.76 1050,202 C1056.81,188.02 1056.81,180.98 1050,167 C1044.27,155.24 1039.3314,148.9797 1029.0214,140.9397" fill="none" id="ListandoReservas-to-MenuPrincipal" style="stroke:#181818;stroke-width:1;"/><polygon fill="#181818" points="1024.29,137.25,1028.9273,145.9388,1028.2328,140.3247,1033.8469,139.6302,1024.29,137.25" style="stroke:#181818;stroke-width:1;"/><path d="M1061,172 L1061,197 L1238,197 L1238,182 L1228,172 L1061,172" fill="#FEFFDD" style="stroke:#181818;stroke-width:0.5;"/><path d="M1228,172 L1228,182 L1238,182 L1228,172" fill="#FEFFDD" style="stroke:#181818;stroke-width:0.5;"/><text fill="#000000" font-family="sans-serif" font-size="13" lengthAdjust="spacing" textLength="156.7871" x="1067" y="189.0669">Volver al Menú Principal</text></g><!--link ListandoReservas to CreandoReserva--><g class="link" data-entity-1="ListandoReservas" data-entity-2="CreandoReserva" data-source-line="19" data-uid="lnk5" id="link_ListandoReservas_CreandoReserva"><path d="M894.64,257.41 C685.56,256.8 164.99,260.53 107,312 C84.9,331.62 82.6575,361.7049 84.3575,385.7849" fill="none" id="ListandoReservas-to-CreandoReserva" style="stroke:#181818;stroke-width:1;"/><polygon fill="#181818" points="84.78,391.77,88.1363,382.5107,84.4279,386.7824,80.1561,383.074,84.78,391.77" style="stroke:#181818;stroke-width:1;"/><path d="M112,324.5 L112,349.5 L266,349.5 L266,334.5 L256,324.5 L112,324.5" fill="#FEFFDD" style="stroke:#181818;stroke-width:0.5;"/><path d="M256,324.5 L256,334.5 L266,334.5 L256,324.5" fill="#FEFFDD" style="stroke:#181818;stroke-width:0.5;"/><text fill="#000000" font-family="sans-serif" font-size="13" lengthAdjust="spacing" textLength="133.25" x="118" y="341.5669">Crear nueva reserva</text></g><!--link CreandoReserva to ValidandoDisponibilidad--><g class="link" data-entity-1="CreandoReserva" data-entity-2="ValidandoDisponibilidad" data-source-line="24" data-uid="lnk6" id="link_CreandoReserva_ValidandoDisponibilidad"><path d="M73.21,442.29 C61.27,465.39 49.26,499.8 68,522 C94.06,552.88 186.0149,565.6776 266.2149,571.3376" fill="none" id="CreandoReserva-to-ValidandoDisponibilidad" style="stroke:#181818;stroke-width:1;"/><polygon fill="#181818" points="272.2,571.76,263.5039,567.1363,267.2124,571.408,262.9407,575.1165,272.2,571.76" style="stroke:#181818;stroke-width:1;"/><path d="M73,477 L73,517 L234,517 L234,487 L224,477 L73,477" fill="#FEFFDD" style="stroke:#181818;stroke-width:0.5;"/><path d="M224,477 L224,487 L234,487 L224,477" fill="#FEFFDD" style="stroke:#181818;stroke-width:0.5;"/><text fill="#000000" font-family="sans-serif" font-size="13" lengthAdjust="spacing" textLength="140.0293" x="79" y="494.0669">Validar disponibilidad</text><text fill="#000000" font-family="sans-serif" font-size="13" lengthAdjust="spacing" textLength="65.7427" x="79" y="509.1997">del cuarto</text></g><!--link ValidandoDisponibilidad to CreandoReserva--><g class="link" data-entity-1="ValidandoDisponibilidad" data-entity-2="CreandoReserva" data-source-line="35" data-uid="lnk8" id="link_ValidandoDisponibilidad_CreandoReserva"><path d="M321.1,551.89 C304.95,543.93 288.41,533.97 275,522 C255.32,504.43 263.71,488.35 243,472 C221.64,455.14 200.3635,445.1719 174.9135,437.0119" fill="none" id="ValidandoDisponibilidad-to-CreandoReserva" style="stroke:#181818;stroke-width:1;"/><polygon fill="#181818" points="169.2,435.18,176.549,441.7369,173.9613,436.7066,178.9915,434.1189,169.2,435.18" style="stroke:#181818;stroke-width:1;"/><path d="M280,477 L280,517 L435,517 L435,487 L425,477 L280,477" fill="#FEFFDD" style="stroke:#181818;stroke-width:0.5;"/><path d="M425,477 L425,487 L435,487 L425,477" fill="#FEFFDD" style="stroke:#181818;stroke-width:0.5;"/><text fill="#000000" font-family="sans-serif" font-size="13" lengthAdjust="spacing" textLength="134.6909" x="286" y="494.0669">Cuarto no disponible</text><text fill="#000000" font-family="sans-serif" font-size="13" lengthAdjust="spacing" textLength="105.752" x="286" y="509.1997">Seleccionar otro</text></g><!--link ValidandoDisponibilidad to CalculandoMonto--><g class="link" data-entity-1="ValidandoDisponibilidad" data-entity-2="CalculandoMonto" data-source-line="30" data-uid="lnk7" id="link_ValidandoDisponibilidad_CalculandoMonto"><path d="M497.51,591.04 C740.53,619.2 1304.3399,684.5395 1524.2599,710.0195" fill="none" id="ValidandoDisponibilidad-to-CalculandoMonto" style="stroke:#181818;stroke-width:1;"/><polygon fill="#181818" points="1530.22,710.71,1521.7402,705.7008,1525.2532,710.1345,1520.8194,713.6476,1530.22,710.71" style="stroke:#181818;stroke-width:1;"/><path d="M1154,637 L1154,662 L1289,662 L1289,647 L1279,637 L1154,637" fill="#FEFFDD" style="stroke:#181818;stroke-width:0.5;"/><path d="M1279,637 L1279,647 L1289,647 L1279,637" fill="#FEFFDD" style="stroke:#181818;stroke-width:0.5;"/><text fill="#000000" font-family="sans-serif" font-size="13" lengthAdjust="spacing" textLength="114.3657" x="1160" y="654.0669">Cuarto disponible</text></g><!--link CalculandoMonto to ConfirmandoReserva--><g class="link" data-entity-1="CalculandoMonto" data-entity-2="ConfirmandoReserva" data-source-line="41" data-uid="lnk9" id="link_CalculandoMonto_ConfirmandoReserva"><path d="M1612.74,747.32 C1608.42,769.49 1605.59,802.44 1619,827 C1625.65,839.17 1631.361,845.662 1642.931,853.442" fill="none" id="CalculandoMonto-to-ConfirmandoReserva" style="stroke:#181818;stroke-width:1;"/><polygon fill="#181818" points="1647.91,856.79,1642.6735,848.4486,1643.7608,854,1638.2094,855.0873,1647.91,856.79" style="stroke:#181818;stroke-width:1;"/><path d="M1624,782 L1624,822 L1755,822 L1755,792 L1745,782 L1624,782" fill="#FEFFDD" style="stroke:#181818;stroke-width:0.5;"/><path d="M1745,782 L1745,792 L1755,792 L1745,782" fill="#FEFFDD" style="stroke:#181818;stroke-width:0.5;"/><text fill="#000000" font-family="sans-serif" font-size="13" lengthAdjust="spacing" textLength="110.8682" x="1630" y="799.0669">Monto calculado:</text><text fill="#000000" font-family="sans-serif" font-size="13" lengthAdjust="spacing" textLength="86.0679" x="1630" y="814.1997">días × precio</text></g><!--link ConfirmandoReserva to ListandoReservas--><g class="link" data-entity-1="ConfirmandoReserva" data-entity-2="ListandoReservas" data-source-line="47" data-uid="lnk10" id="link_ConfirmandoReserva_ListandoReservas"><path d="M1737.97,856.75 C1747.73,848.38 1757.45,838.24 1764,827 C1787.78,786.17 1786,770.25 1786,723 C1786,416 1786,416 1786,416 C1786,365.81 1782.83,341.19 1742,312 C1688.2,273.53 1261.0392,262.3197 1073.2792,259.1997" fill="none" id="ConfirmandoReserva-to-ListandoReservas" style="stroke:#181818;stroke-width:1;"/><polygon fill="#181818" points="1067.28,259.1,1076.2123,263.249,1072.2793,259.1831,1076.3452,255.2501,1067.28,259.1" style="stroke:#181818;stroke-width:1;"/><path d="M1791,557 L1791,597 L1947,597 L1947,567 L1937,557 L1791,557" fill="#FEFFDD" style="stroke:#181818;stroke-width:0.5;"/><path d="M1937,557 L1937,567 L1947,567 L1937,557" fill="#FEFFDD" style="stroke:#181818;stroke-width:0.5;"/><text fill="#000000" font-family="sans-serif" font-size="13" lengthAdjust="spacing" textLength="129.0859" x="1797" y="574.0669">Reserva creada con</text><text fill="#000000" font-family="sans-serif" font-size="13" lengthAdjust="spacing" textLength="135.7827" x="1797" y="589.1997">estado "Confirmada"</text></g><!--link ListandoReservas to ModificandoReserva--><g class="link" data-entity-1="ListandoReservas" data-entity-2="ModificandoReserva" data-source-line="53" data-uid="lnk11" id="link_ListandoReservas_ModificandoReserva"><path d="M894.77,258.33 C718.35,259.92 329.35,268.38 289,312 C273.91,328.31 275.73,344.17 289,362 C299.81,376.53 329.2653,387.1702 365.7553,396.1902" fill="none" id="ListandoReservas-to-ModificandoReserva" style="stroke:#181818;stroke-width:1;"/><polygon fill="#181818" points="371.58,397.63,363.8028,391.5872,366.7261,396.4302,361.8831,399.3534,371.58,397.63" style="stroke:#181818;stroke-width:1;"/><path d="M294,317 L294,357 L421,357 L421,327 L411,317 L294,317" fill="#FEFFDD" style="stroke:#181818;stroke-width:0.5;"/><path d="M411,317 L411,327 L421,327 L411,317" fill="#FEFFDD" style="stroke:#181818;stroke-width:0.5;"/><text fill="#000000" font-family="sans-serif" font-size="13" lengthAdjust="spacing" textLength="106.5137" x="300" y="334.0669">Modificar fechas</text><text fill="#000000" font-family="sans-serif" font-size="13" lengthAdjust="spacing" textLength="106.0757" x="300" y="349.1997">u observaciones</text></g><!--link ModificandoReserva to ListandoReservas--><g class="link" data-entity-1="ModificandoReserva" data-entity-2="ListandoReservas" data-source-line="65" data-uid="lnk13" id="link_ModificandoReserva_ListandoReservas"><path d="M465.97,391.98 C464.43,368.08 466.37,332.13 488,312 C517.15,284.87 755.6379,269.0578 889.0079,262.2078" fill="none" id="ModificandoReserva-to-ListandoReservas" style="stroke:#181818;stroke-width:1;"/><polygon fill="#181818" points="895,261.9,885.8067,258.3669,890.0066,262.1565,886.217,266.3564,895,261.9" style="stroke:#181818;stroke-width:1;"/><path d="M493,317 L493,357 L642,357 L642,327 L632,317 L493,317" fill="#FEFFDD" style="stroke:#181818;stroke-width:0.5;"/><path d="M632,317 L632,327 L642,327 L632,317" fill="#FEFFDD" style="stroke:#181818;stroke-width:0.5;"/><text fill="#000000" font-family="sans-serif" font-size="13" lengthAdjust="spacing" textLength="128.9399" x="499" y="334.0669">Reserva modificada</text><text fill="#000000" font-family="sans-serif" font-size="13" lengthAdjust="spacing" textLength="89.0894" x="499" y="349.1997">exitosamente</text></g><!--link ModificandoReserva to ValidandoDisponibilidad--><g class="link" data-entity-1="ModificandoReserva" data-entity-2="ValidandoDisponibilidad" data-source-line="59" data-uid="lnk12" id="link_ModificandoReserva_ValidandoDisponibilidad"><path d="M468.52,442.29 C467.1,464.44 462.45,497.38 448,522 C441.29,533.43 435.8902,539.792 425.8002,548.152" fill="none" id="ModificandoReserva-to-ValidandoDisponibilidad" style="stroke:#181818;stroke-width:1;"/><polygon fill="#181818" points="421.18,551.98,430.6623,549.3181,425.0302,548.79,425.5583,543.1578,421.18,551.98" style="stroke:#181818;stroke-width:1;"/><path d="M470,477 L470,517 L581,517 L581,487 L571,477 L470,477" fill="#FEFFDD" style="stroke:#181818;stroke-width:0.5;"/><path d="M571,477 L571,487 L581,487 L571,477" fill="#FEFFDD" style="stroke:#181818;stroke-width:0.5;"/><text fill="#000000" font-family="sans-serif" font-size="13" lengthAdjust="spacing" textLength="89.9146" x="476" y="494.0669">Validar nueva</text><text fill="#000000" font-family="sans-serif" font-size="13" lengthAdjust="spacing" textLength="90.251" x="476" y="509.1997">disponibilidad</text></g><!--link ListandoReservas to CancelandoReserva--><g class="link" data-entity-1="ListandoReservas" data-entity-2="CancelandoReserva" data-source-line="71" data-uid="lnk14" id="link_ListandoReservas_CancelandoReserva"><path d="M894.68,260.64 C811.43,265.23 693.89,277.75 665,312 C650.67,328.99 652.01,343.97 665,362 C680.86,384.01 700.3381,395.4392 726.1981,403.2792" fill="none" id="ListandoReservas-to-CancelandoReserva" style="stroke:#181818;stroke-width:1;"/><polygon fill="#181818" points="731.94,405.02,724.4876,398.5809,727.1551,403.5693,722.1666,406.2368,731.94,405.02" style="stroke:#181818;stroke-width:1;"/><path d="M670,317 L670,357 L836,357 L836,327 L826,317 L670,317" fill="#FEFFDD" style="stroke:#181818;stroke-width:0.5;"/><path d="M826,317 L826,327 L836,327 L826,317" fill="#FEFFDD" style="stroke:#181818;stroke-width:0.5;"/><text fill="#000000" font-family="sans-serif" font-size="13" lengthAdjust="spacing" textLength="110.6016" x="676" y="334.0669">Cancelar reserva</text><text fill="#000000" font-family="sans-serif" font-size="13" lengthAdjust="spacing" textLength="145.7676" x="676" y="349.1997">confirmada o en curso</text></g><!--link CancelandoReserva to ListandoReservas--><g class="link" data-entity-1="CancelandoReserva" data-entity-2="ListandoReservas" data-source-line="77" data-uid="lnk15" id="link_CancelandoReserva_ListandoReservas"><path d="M834.93,391.58 C843.36,368.73 858.6,334.77 881,312 C892.76,300.05 902.4635,292.9363 917.2235,284.9463" fill="none" id="CancelandoReserva-to-ListandoReservas" style="stroke:#181818;stroke-width:1;"/><polygon fill="#181818" points="922.5,282.09,912.681,282.8568,918.1029,284.4703,916.4895,289.8921,922.5,282.09" style="stroke:#181818;stroke-width:1;"/><path d="M886,317 L886,357 L1030,357 L1030,327 L1020,317 L886,317" fill="#FEFFDD" style="stroke:#181818;stroke-width:0.5;"/><path d="M1020,317 L1020,327 L1030,327 L1020,317" fill="#FEFFDD" style="stroke:#181818;stroke-width:0.5;"/><text fill="#000000" font-family="sans-serif" font-size="13" lengthAdjust="spacing" textLength="123.2334" x="892" y="334.0669">Reserva cancelada</text><text fill="#000000" font-family="sans-serif" font-size="13" lengthAdjust="spacing" textLength="100.8008" x="892" y="349.1997">Cuarto liberado</text></g><!--link ListandoReservas to ConsultandoDetalles--><g class="link" data-entity-1="ListandoReservas" data-entity-2="ConsultandoDetalles" data-source-line="83" data-uid="lnk16" id="link_ListandoReservas_ConsultandoDetalles"><path d="M1009.23,282.22 C1019.06,291.18 1029.9,301.68 1039,312 C1057.11,332.54 1056.72,341.61 1075,362 C1084.36,372.43 1091.0539,378.9983 1101.2339,387.9483" fill="none" id="ListandoReservas-to-ConsultandoDetalles" style="stroke:#181818;stroke-width:1;"/><polygon fill="#181818" points="1105.74,391.91,1101.6219,382.9634,1101.9849,388.6086,1096.3397,388.9716,1105.74,391.91" style="stroke:#181818;stroke-width:1;"/><path d="M1080,317 L1080,357 L1250,357 L1250,327 L1240,317 L1080,317" fill="#FEFFDD" style="stroke:#181818;stroke-width:0.5;"/><path d="M1240,317 L1240,327 L1250,327 L1240,317" fill="#FEFFDD" style="stroke:#181818;stroke-width:0.5;"/><text fill="#000000" font-family="sans-serif" font-size="13" lengthAdjust="spacing" textLength="149.2588" x="1086" y="334.0669">Ver detalles completos</text><text fill="#000000" font-family="sans-serif" font-size="13" lengthAdjust="spacing" textLength="85.2109" x="1086" y="349.1997">de la reserva</text></g><!--link ConsultandoDetalles to ListandoReservas--><g class="link" data-entity-1="ConsultandoDetalles" data-entity-2="ListandoReservas" data-source-line="89" data-uid="lnk17" id="link_ConsultandoDetalles_ListandoReservas"><path d="M1225.11,391.99 C1238.52,384.53 1250.64,374.77 1259,362 C1271.18,343.41 1273.14,329.15 1259,312 C1234.96,282.84 1145.498,269.7435 1073.088,263.5235" fill="none" id="ConsultandoDetalles-to-ListandoReservas" style="stroke:#181818;stroke-width:1;"/><polygon fill="#181818" points="1067.11,263.01,1075.7346,267.7656,1072.0917,263.4379,1076.4193,259.7949,1067.11,263.01" style="stroke:#181818;stroke-width:1;"/><path d="M1274,317 L1274,357 L1379,357 L1379,327 L1369,317 L1274,317" fill="#FEFFDD" style="stroke:#181818;stroke-width:0.5;"/><path d="M1369,317 L1369,327 L1379,327 L1369,317" fill="#FEFFDD" style="stroke:#181818;stroke-width:0.5;"/><text fill="#000000" font-family="sans-serif" font-size="13" lengthAdjust="spacing" textLength="84.7856" x="1280" y="334.0669">Volver a lista</text><text fill="#000000" font-family="sans-serif" font-size="13" lengthAdjust="spacing" textLength="76.2734" x="1280" y="349.1997">de reservas</text></g><!--link ListandoReservas to FiltrandoPorFecha--><g class="link" data-entity-1="ListandoReservas" data-entity-2="FiltrandoPorFecha" data-source-line="95" data-uid="lnk18" id="link_ListandoReservas_FiltrandoPorFecha"><path d="M1067.37,263.52 C1170.36,271.11 1335.68,286.78 1392,312 C1423.06,325.91 1422.19,342.39 1450,362 C1465.19,372.71 1477.4376,380.2216 1493.2276,389.0116" fill="none" id="ListandoReservas-to-FiltrandoPorFecha" style="stroke:#181818;stroke-width:1;"/><polygon fill="#181818" points="1498.47,391.93,1492.5519,384.0575,1494.1013,389.498,1488.6608,391.0474,1498.47,391.93" style="stroke:#181818;stroke-width:1;"/><path d="M1455,317 L1455,357 L1606,357 L1606,327 L1596,317 L1455,317" fill="#FEFFDD" style="stroke:#181818;stroke-width:0.5;"/><path d="M1596,317 L1596,327 L1606,327 L1596,317" fill="#FEFFDD" style="stroke:#181818;stroke-width:0.5;"/><text fill="#000000" font-family="sans-serif" font-size="13" lengthAdjust="spacing" textLength="104.4126" x="1461" y="334.0669">Buscar reservas</text><text fill="#000000" font-family="sans-serif" font-size="13" lengthAdjust="spacing" textLength="130.6538" x="1461" y="349.1997">por rango de fechas</text></g><!--link FiltrandoPorFecha to ListandoReservas--><g class="link" data-entity-1="FiltrandoPorFecha" data-entity-2="ListandoReservas" data-source-line="101" data-uid="lnk19" id="link_FiltrandoPorFecha_ListandoReservas"><path d="M1588.91,391.86 C1599.37,383.83 1609.18,373.85 1615,362 C1624.8,342.06 1630.03,328.37 1615,312 C1578.69,272.46 1238.0191,261.9327 1073.2191,259.1127" fill="none" id="FiltrandoPorFecha-to-ListandoReservas" style="stroke:#181818;stroke-width:1;"/><polygon fill="#181818" points="1067.22,259.01,1076.1502,263.1634,1072.2193,259.0955,1076.2871,255.1646,1067.22,259.01" style="stroke:#181818;stroke-width:1;"/><path d="M1630,317 L1630,357 L1729,357 L1729,327 L1719,317 L1630,317" fill="#FEFFDD" style="stroke:#181818;stroke-width:0.5;"/><path d="M1719,317 L1719,327 L1729,327 L1719,317" fill="#FEFFDD" style="stroke:#181818;stroke-width:0.5;"/><text fill="#000000" font-family="sans-serif" font-size="13" lengthAdjust="spacing" textLength="62.4102" x="1636" y="334.0669">Ver todas</text><text fill="#000000" font-family="sans-serif" font-size="13" lengthAdjust="spacing" textLength="78.3745" x="1636" y="349.1997">las reservas</text></g><!--SRC=[fPNRYjim48Rl_HGYbuLzWLuKl3vGWq_OIMvA2LfBsOegKf3jq3VfK_G5UfiNgmxnKV5kl1M4OFcV-JoZcL7Tm0Q3JHAakqDUHAaNvMwy0R062MPjBWYho1bIfpQwE2gtRkfdXo8eWsBlbbeQ4_cQ8LxW6eiBh3krLmHZiTPw0e-adNBlnf6ljNvKvbaQFKTgmzScUqW9KaO-gS-SaHUYdb5FSMDl5slZ94ktcS50MhLK6IMSDRpNPcaO5OdzLPmTYJZT-R8aywCmyYoBX2Do9DKT2wdrWjX6G5PXUa-VfUKkDcdrWwqRnq7PVLJTKfrP7pUGKjndDepYRQ4jygmuX87trK12GXkX378kGbpzW8xpxTDtyFJqPNQUpkHH2wnJ178nBd6S0KhOJxsXrXuBq70aULJ-n5YF6T8sZZDtfncpqryaA9q0hCKNsFcVkPzwqiwNwcGv3cqW0BBrQY5CGTL28Sjdobu0cGXdXRSSelRSiobU0taqZOR1B8nQ9QQugWXdCWEy4VCWPu4OhjqcYsnZLHalY7yUqdhz8wlX-XkS1PRuETP2h2pEpggIEKBoZxF-5PO-49STTsCWk7caQE-q-XjH6wq0HzL-TV-Y1Vn5swgCutcps8Z_gsZTEKF6RUjtqUiJVhevGWCO_o8Dh-49imO_D1wi6RbSsaOg9kD1hQe_NC0bJtQmgEtQdd4-McF6poZYMyTHyeA5hBM7WhupvjySlUYcag6UpXJB38z6bXp9InFJvgoT-vnU91_ANMaoXgwv0-mxQX7utDRLSCH3c6SkDo5xvOezQhI1R44-UiNrEsklkkbz-svEgJAu_WLJauxn3m00]--></g></svg>