<svg xmlns="http://www.w3.org/2000/svg" xmlns:xlink="http://www.w3.org/1999/xlink" contentStyleType="text/css" data-diagram-type="STATE" height="352px" preserveAspectRatio="none" style="width:1620px;height:352px;background:#FFFFFF;" version="1.1" viewBox="0 0 1620 352" width="1620px" zoomAndPan="magnify"><defs/><g><g id="MenuPrincipal"><rect fill="#F1F1F1" height="50" rx="12.5" ry="12.5" style="stroke:#181818;stroke-width:0.5;" width="141.1396" x="687.62" y="136"/><line style="stroke:#181818;stroke-width:0.5;" x1="687.62" x2="828.7596" y1="162.2969" y2="162.2969"/><text fill="#000000" font-family="sans-serif" font-size="14" lengthAdjust="spacing" textLength="121.1396" x="697.62" y="153.9951">MENU_PRINCIPAL</text></g><g id="Cuartos"><rect fill="#F1F1F1" height="50" rx="12.5" ry="12.5" style="stroke:#181818;stroke-width:0.5;" width="199.3887" x="59.62" y="296"/><line style="stroke:#181818;stroke-width:0.5;" x1="59.62" x2="259.0087" y1="322.2969" y2="322.2969"/><text fill="#000000" font-family="sans-serif" font-size="14" lengthAdjust="spacing" textLength="179.3887" x="69.62" y="313.9951">GESTIONANDO_CUARTOS</text></g><g id="Huespedes"><rect fill="#F1F1F1" height="50" rx="12.5" ry="12.5" style="stroke:#181818;stroke-width:0.5;" width="215.9111" x="379.12" y="296"/><line style="stroke:#181818;stroke-width:0.5;" x1="379.12" x2="595.0311" y1="322.2969" y2="322.2969"/><text fill="#000000" font-family="sans-serif" font-size="14" lengthAdjust="spacing" textLength="195.9111" x="389.12" y="313.9951">GESTIONANDO_HUESPEDES</text></g><g id="Reservas"><rect fill="#F1F1F1" height="50" rx="12.5" ry="12.5" style="stroke:#181818;stroke-width:0.5;" width="205.6777" x="858.12" y="296"/><line style="stroke:#181818;stroke-width:0.5;" x1="858.12" x2="1063.7977" y1="322.2969" y2="322.2969"/><text fill="#000000" font-family="sans-serif" font-size="14" lengthAdjust="spacing" textLength="185.6777" x="868.12" y="313.9951">GESTIONANDO_RESERVAS</text></g><g id="Reportes"><rect fill="#F1F1F1" height="50" rx="12.5" ry="12.5" style="stroke:#181818;stroke-width:0.5;" width="209.6494" x="1272.12" y="296"/><line style="stroke:#181818;stroke-width:0.5;" x1="1272.12" x2="1481.7694" y1="322.2969" y2="322.2969"/><text fill="#000000" font-family="sans-serif" font-size="14" lengthAdjust="spacing" textLength="189.6494" x="1282.12" y="313.9951">CONSULTANDO_REPORTES</text></g><ellipse cx="758.12" cy="16" fill="#222222" rx="10" ry="10" style="stroke:#222222;stroke-width:1;"/><ellipse cx="1001.12" cy="161" fill="none" rx="11" ry="11" style="stroke:#222222;stroke-width:1;"/><ellipse cx="1001.12" cy="161" fill="#222222" rx="6" ry="6" style="stroke:#222222;stroke-width:1;"/><!--link *start* to MenuPrincipal--><g class="link" data-entity-1=".start." data-entity-2="MenuPrincipal" data-source-line="7" data-uid="lnk3" id="link_.start._MenuPrincipal"><path d="M758.12,26.38 C758.12,48.38 758.12,97.83 758.12,129.96" fill="none" id="*start*-to-MenuPrincipal" style="stroke:#181818;stroke-width:1;"/><polygon fill="#181818" points="758.12,135.96,762.12,126.96,758.12,130.96,754.12,126.96,758.12,135.96" style="stroke:#181818;stroke-width:1;"/><path d="M763.12,61 L763.12,101 L880.12,101 L880.12,71 L870.12,61 L763.12,61" fill="#FEFFDD" style="stroke:#181818;stroke-width:0.5;"/><path d="M870.12,61 L870.12,71 L880.12,71 L870.12,61" fill="#FEFFDD" style="stroke:#181818;stroke-width:0.5;"/><text fill="#000000" font-family="sans-serif" font-size="13" lengthAdjust="spacing" textLength="92.0029" x="769.12" y="78.0669">Administrador</text><text fill="#000000" font-family="sans-serif" font-size="13" lengthAdjust="spacing" textLength="79.6694" x="769.12" y="93.1997">inicia sesión</text></g><!--link MenuPrincipal to *end*--><g class="link" data-entity-1="MenuPrincipal" data-entity-2=".end." data-source-line="13" data-uid="lnk5" id="link_MenuPrincipal_.end."><path d="M828.74,161 C885.91,161 955.43,161 983.75,161" fill="none" id="MenuPrincipal-to-*end*" style="stroke:#181818;stroke-width:1;"/><polygon fill="#181818" points="989.75,161,980.75,157,984.75,161,980.75,165,989.75,161" style="stroke:#181818;stroke-width:1;"/><path d="M850.87,113 L850.87,153 L967.87,153 L967.87,123 L957.87,113 L850.87,113" fill="#FEFFDD" style="stroke:#181818;stroke-width:0.5;"/><path d="M957.87,113 L957.87,123 L967.87,123 L957.87,113" fill="#FEFFDD" style="stroke:#181818;stroke-width:0.5;"/><text fill="#000000" font-family="sans-serif" font-size="13" lengthAdjust="spacing" textLength="92.0029" x="856.87" y="130.0669">Administrador</text><text fill="#000000" font-family="sans-serif" font-size="13" lengthAdjust="spacing" textLength="82.894" x="856.87" y="145.1997">cierra sesión</text></g><!--link MenuPrincipal to Cuartos--><g class="link" data-entity-1="MenuPrincipal" data-entity-2="Cuartos" data-source-line="19" data-uid="lnk6" id="link_MenuPrincipal_Cuartos"><path d="M687.36,161.84 C511.56,162.18 65.89,167.84 21.12,216 C6,232.28 8.6,247.65 21.12,266 C30.62,279.92 38.952,287.5299 54.032,295.1999" fill="none" id="MenuPrincipal-to-Cuartos" style="stroke:#181818;stroke-width:1;"/><polygon fill="#181818" points="59.38,297.92,53.1714,290.2745,54.9233,295.6532,49.5446,297.4052,59.38,297.92" style="stroke:#181818;stroke-width:1;"/><path d="M26.12,228.5 L26.12,253.5 L162.12,253.5 L162.12,238.5 L152.12,228.5 L26.12,228.5" fill="#FEFFDD" style="stroke:#181818;stroke-width:0.5;"/><path d="M152.12,228.5 L152.12,238.5 L162.12,238.5 L152.12,228.5" fill="#FEFFDD" style="stroke:#181818;stroke-width:0.5;"/><text fill="#000000" font-family="sans-serif" font-size="13" lengthAdjust="spacing" textLength="115.7114" x="32.12" y="245.5669">Gestionar cuartos</text></g><!--link Cuartos to MenuPrincipal--><g class="link" data-entity-1="Cuartos" data-entity-2="MenuPrincipal" data-source-line="24" data-uid="lnk7" id="link_Cuartos_MenuPrincipal"><path d="M168.73,295.55 C179.8,270.94 200.5,234.1 231.12,216 C306.64,171.38 556.2103,163.3289 681.5803,162.0989" fill="none" id="Cuartos-to-MenuPrincipal" style="stroke:#181818;stroke-width:1;"/><polygon fill="#181818" points="687.58,162.04,678.5412,158.1285,682.5802,162.0891,678.6197,166.1281,687.58,162.04" style="stroke:#181818;stroke-width:1;"/><path d="M236.12,228.5 L236.12,253.5 L413.12,253.5 L413.12,238.5 L403.12,228.5 L236.12,228.5" fill="#FEFFDD" style="stroke:#181818;stroke-width:0.5;"/><path d="M403.12,228.5 L403.12,238.5 L413.12,238.5 L403.12,228.5" fill="#FEFFDD" style="stroke:#181818;stroke-width:0.5;"/><text fill="#000000" font-family="sans-serif" font-size="13" lengthAdjust="spacing" textLength="156.7871" x="242.12" y="245.5669">Volver al Menú Principal</text></g><!--link MenuPrincipal to Huespedes--><g class="link" data-entity-1="MenuPrincipal" data-entity-2="Huespedes" data-source-line="29" data-uid="lnk8" id="link_MenuPrincipal_Huespedes"><path d="M687.35,163.51 C601.97,167 465.92,178.47 434.12,216 C419.76,232.96 425.72,245.43 434.12,266 C438.75,277.31 442.7031,283.3424 451.3531,291.7724" fill="none" id="MenuPrincipal-to-Huespedes" style="stroke:#181818;stroke-width:1;"/><polygon fill="#181818" points="455.65,295.96,451.9964,286.8139,452.0692,292.4703,446.4128,292.5432,455.65,295.96" style="stroke:#181818;stroke-width:1;"/><path d="M439.12,228.5 L439.12,253.5 L597.12,253.5 L597.12,238.5 L587.12,228.5 L439.12,228.5" fill="#FEFFDD" style="stroke:#181818;stroke-width:0.5;"/><path d="M587.12,228.5 L587.12,238.5 L597.12,238.5 L587.12,228.5" fill="#FEFFDD" style="stroke:#181818;stroke-width:0.5;"/><text fill="#000000" font-family="sans-serif" font-size="13" lengthAdjust="spacing" textLength="137.7124" x="445.12" y="245.5669">Gestionar huéspedes</text></g><!--link Huespedes to MenuPrincipal--><g class="link" data-entity-1="Huespedes" data-entity-2="MenuPrincipal" data-source-line="34" data-uid="lnk9" id="link_Huespedes_MenuPrincipal"><path d="M557.83,295.95 C574.8,288.1 592.06,278.18 606.12,266 C626.07,248.73 618.15,233.24 638.12,216 C652.48,203.61 664.6816,196.0711 681.9916,188.1711" fill="none" id="Huespedes-to-MenuPrincipal" style="stroke:#181818;stroke-width:1;"/><polygon fill="#181818" points="687.45,185.68,677.6016,185.7778,682.9013,187.7559,680.9231,193.0556,687.45,185.68" style="stroke:#181818;stroke-width:1;"/><path d="M643.12,228.5 L643.12,253.5 L820.12,253.5 L820.12,238.5 L810.12,228.5 L643.12,228.5" fill="#FEFFDD" style="stroke:#181818;stroke-width:0.5;"/><path d="M810.12,228.5 L810.12,238.5 L820.12,238.5 L810.12,228.5" fill="#FEFFDD" style="stroke:#181818;stroke-width:0.5;"/><text fill="#000000" font-family="sans-serif" font-size="13" lengthAdjust="spacing" textLength="156.7871" x="649.12" y="245.5669">Volver al Menú Principal</text></g><!--link MenuPrincipal to Reservas--><g class="link" data-entity-1="MenuPrincipal" data-entity-2="Reservas" data-source-line="39" data-uid="lnk10" id="link_MenuPrincipal_Reservas"><path d="M796.63,186.15 C808.96,194.79 822.23,205.11 833.12,216 C852.49,235.36 848.88,247.56 869.12,266 C881.58,277.35 891.6088,284.4588 906.0588,292.7688" fill="none" id="MenuPrincipal-to-Reservas" style="stroke:#181818;stroke-width:1;"/><polygon fill="#181818" points="911.26,295.76,905.4522,287.8058,906.9256,293.2674,901.464,294.7407,911.26,295.76" style="stroke:#181818;stroke-width:1;"/><path d="M874.12,228.5 L874.12,253.5 L1018.12,253.5 L1018.12,238.5 L1008.12,228.5 L874.12,228.5" fill="#FEFFDD" style="stroke:#181818;stroke-width:0.5;"/><path d="M1008.12,228.5 L1008.12,238.5 L1018.12,238.5 L1008.12,228.5" fill="#FEFFDD" style="stroke:#181818;stroke-width:0.5;"/><text fill="#000000" font-family="sans-serif" font-size="13" lengthAdjust="spacing" textLength="123.0811" x="880.12" y="245.5669">Gestionar reservas</text></g><!--link Reservas to MenuPrincipal--><g class="link" data-entity-1="Reservas" data-entity-2="MenuPrincipal" data-source-line="44" data-uid="lnk11" id="link_Reservas_MenuPrincipal"><path d="M1001.88,295.97 C1012,287.83 1021.54,277.77 1027.12,266 C1036.64,245.92 1041.21,233.19 1027.12,216 C1002.48,185.92 905.859,172.752 834.749,166.782" fill="none" id="Reservas-to-MenuPrincipal" style="stroke:#181818;stroke-width:1;"/><polygon fill="#181818" points="828.77,166.28,837.4038,171.0189,833.7525,166.6983,838.0731,163.047,828.77,166.28" style="stroke:#181818;stroke-width:1;"/><path d="M1041.12,228.5 L1041.12,253.5 L1218.12,253.5 L1218.12,238.5 L1208.12,228.5 L1041.12,228.5" fill="#FEFFDD" style="stroke:#181818;stroke-width:0.5;"/><path d="M1208.12,228.5 L1208.12,238.5 L1218.12,238.5 L1208.12,228.5" fill="#FEFFDD" style="stroke:#181818;stroke-width:0.5;"/><text fill="#000000" font-family="sans-serif" font-size="13" lengthAdjust="spacing" textLength="156.7871" x="1047.12" y="245.5669">Volver al Menú Principal</text></g><!--link MenuPrincipal to Reportes--><g class="link" data-entity-1="MenuPrincipal" data-entity-2="Reportes" data-source-line="49" data-uid="lnk12" id="link_MenuPrincipal_Reportes"><path d="M828.78,169.94 C960.12,184.7 1228.83,215.01 1231.12,216 C1262.67,229.65 1262.33,245.77 1290.12,266 C1304.5,276.46 1315.787,283.8667 1330.467,292.8167" fill="none" id="MenuPrincipal-to-Reportes" style="stroke:#181818;stroke-width:1;"/><polygon fill="#181818" points="1335.59,295.94,1329.9878,287.8397,1331.3209,293.3372,1325.8233,294.6703,1335.59,295.94" style="stroke:#181818;stroke-width:1;"/><path d="M1295.12,221 L1295.12,261 L1413.12,261 L1413.12,231 L1403.12,221 L1295.12,221" fill="#FEFFDD" style="stroke:#181818;stroke-width:0.5;"/><path d="M1403.12,221 L1403.12,231 L1413.12,231 L1403.12,221" fill="#FEFFDD" style="stroke:#181818;stroke-width:0.5;"/><text fill="#000000" font-family="sans-serif" font-size="13" lengthAdjust="spacing" textLength="92.9551" x="1301.12" y="238.0669">Ver reportes y</text><text fill="#000000" font-family="sans-serif" font-size="13" lengthAdjust="spacing" textLength="77.0669" x="1301.12" y="253.1997">estadísticas</text></g><!--link Reportes to MenuPrincipal--><g class="link" data-entity-1="Reportes" data-entity-2="MenuPrincipal" data-source-line="55" data-uid="lnk13" id="link_Reportes_MenuPrincipal"><path d="M1401.19,295.93 C1421.24,272.99 1443.36,238.7 1422.12,216 C1387.89,179.41 1022.04,190.46 972.12,186 C924.27,181.72 876.4982,176.3967 834.8482,171.4567" fill="none" id="Reportes-to-MenuPrincipal" style="stroke:#181818;stroke-width:1;"/><polygon fill="#181818" points="828.89,170.75,837.3562,175.7822,833.8552,171.3389,838.2985,167.8379,828.89,170.75" style="stroke:#181818;stroke-width:1;"/><path d="M1436.12,228.5 L1436.12,253.5 L1613.12,253.5 L1613.12,238.5 L1603.12,228.5 L1436.12,228.5" fill="#FEFFDD" style="stroke:#181818;stroke-width:0.5;"/><path d="M1603.12,228.5 L1603.12,238.5 L1613.12,238.5 L1603.12,228.5" fill="#FEFFDD" style="stroke:#181818;stroke-width:0.5;"/><text fill="#000000" font-family="sans-serif" font-size="13" lengthAdjust="spacing" textLength="156.7871" x="1442.12" y="245.5669">Volver al Menú Principal</text></g><!--SRC=[lP9DQiCm44RtFiMGPI5NA1X798R4DhATJIb1s0CLTIKZoO4UgOkkkklM5wlYtwGunO4IBOUdDzz8emqp28iT2T93HFt0yoDtkm2cOOUYYXGN6IzPuUYMMvCuySF03LRXmKjTceHn0tiLKqRgAMoJaZWYAzA2cmfrYJbEefJ4XExTbgIeKHtP07fX4AVRf0EZa2Qa1qkfZ3KwJm_Fi5m-_eeEzWXf5L90mSLhKpWTDt_ZWckZM2uL36LRopW3ZPhNNw8feyWRXUDSgC7siZrlxf1nL6fc1zkYVzohRTQe3PU2ASZEq57P2MvvcxqiZgZ09h0Nwc-ulF9Nsl67P-HzgUgFCthq3fRxX1wMRKPcTSwEqbvnhy3TqbztuobgIy7xk7ns3fRNdtQQR6A6Zl_t6Nu0]--></g></svg>