<svg xmlns="http://www.w3.org/2000/svg" xmlns:xlink="http://www.w3.org/1999/xlink" contentStyleType="text/css" data-diagram-type="STATE" height="448px" preserveAspectRatio="none" style="width:1812px;height:448px;background:#FFFFFF;" version="1.1" viewBox="0 0 1812 448" width="1812px" zoomAndPan="magnify"><defs/><g><g id="MenuPrincipal"><rect fill="#F1F1F1" height="50" rx="12.5" ry="12.5" style="stroke:#181818;stroke-width:0.5;" width="141.1396" x="807.71" y="87"/><line style="stroke:#181818;stroke-width:0.5;" x1="807.71" x2="948.8496" y1="113.2969" y2="113.2969"/><text fill="#000000" font-family="sans-serif" font-size="14" lengthAdjust="spacing" textLength="121.1396" x="817.71" y="104.9951">MENU_PRINCIPAL</text></g><g id="ListandoCuartos"><rect fill="#F1F1F1" height="50" rx="12.5" ry="12.5" style="stroke:#181818;stroke-width:0.5;" width="166.002" x="795.21" y="232"/><line style="stroke:#181818;stroke-width:0.5;" x1="795.21" x2="961.212" y1="258.2969" y2="258.2969"/><text fill="#000000" font-family="sans-serif" font-size="14" lengthAdjust="spacing" textLength="146.002" x="805.21" y="249.9951">LISTANDO_CUARTOS</text></g><g id="CreandoCuarto"><rect fill="#F1F1F1" height="50" rx="12.5" ry="12.5" style="stroke:#181818;stroke-width:0.5;" width="156.0967" x="81.21" y="392"/><line style="stroke:#181818;stroke-width:0.5;" x1="81.21" x2="237.3067" y1="418.2969" y2="418.2969"/><text fill="#000000" font-family="sans-serif" font-size="14" lengthAdjust="spacing" textLength="136.0967" x="91.21" y="409.9951">CREANDO_CUARTO</text></g><g id="ActualizandoCuarto"><rect fill="#F1F1F1" height="50" rx="12.5" ry="12.5" style="stroke:#181818;stroke-width:0.5;" width="196.9961" x="345.71" y="392"/><line style="stroke:#181818;stroke-width:0.5;" x1="345.71" x2="542.7061" y1="418.2969" y2="418.2969"/><text fill="#000000" font-family="sans-serif" font-size="14" lengthAdjust="spacing" textLength="176.9961" x="355.71" y="409.9951">ACTUALIZANDO_CUARTO</text></g><g id="EliminandoCuarto"><rect fill="#F1F1F1" height="50" rx="12.5" ry="12.5" style="stroke:#181818;stroke-width:0.5;" width="175.2031" x="757.71" y="392"/><line style="stroke:#181818;stroke-width:0.5;" x1="757.71" x2="932.9131" y1="418.2969" y2="418.2969"/><text fill="#000000" font-family="sans-serif" font-size="14" lengthAdjust="spacing" textLength="155.2031" x="767.71" y="409.9951">ELIMINANDO_CUARTO</text></g><g id="ConsultandoDisponibilidad"><rect fill="#F1F1F1" height="50" rx="12.5" ry="12.5" style="stroke:#181818;stroke-width:0.5;" width="250.2617" x="1047.21" y="392"/><line style="stroke:#181818;stroke-width:0.5;" x1="1047.21" x2="1297.4717" y1="418.2969" y2="418.2969"/><text fill="#000000" font-family="sans-serif" font-size="14" lengthAdjust="spacing" textLength="230.2617" x="1057.21" y="409.9951">CONSULTANDO_DISPONIBILIDAD</text></g><g id="CambiandoEstado"><rect fill="#F1F1F1" height="50" rx="12.5" ry="12.5" style="stroke:#181818;stroke-width:0.5;" width="171.6758" x="1484.21" y="392"/><line style="stroke:#181818;stroke-width:0.5;" x1="1484.21" x2="1655.8858" y1="418.2969" y2="418.2969"/><text fill="#000000" font-family="sans-serif" font-size="14" lengthAdjust="spacing" textLength="151.6758" x="1494.21" y="409.9951">CAMBIANDO_ESTADO</text></g><ellipse cx="878.21" cy="16" fill="#222222" rx="10" ry="10" style="stroke:#222222;stroke-width:1;"/><!--link *start* to MenuPrincipal--><g class="link" data-entity-1=".start." data-entity-2="MenuPrincipal" data-source-line="9" data-uid="lnk3" id="link_.start._MenuPrincipal"><path d="M878.21,26.01 C878.21,39.89 878.21,60.97 878.21,80.84" fill="none" id="*start*-to-MenuPrincipal" style="stroke:#181818;stroke-width:1;"/><polygon fill="#181818" points="878.21,86.84,882.21,77.84,878.21,81.84,874.21,77.84,878.21,86.84" style="stroke:#181818;stroke-width:1;"/></g><!--link MenuPrincipal to ListandoCuartos--><g class="link" data-entity-1="MenuPrincipal" data-entity-2="ListandoCuartos" data-source-line="11" data-uid="lnk4" id="link_MenuPrincipal_ListandoCuartos"><path d="M807.57,134.82 C793.14,142.63 779.77,153.09 771.21,167 C763.06,180.25 763.06,188.75 771.21,202 C778.95,214.58 785.4544,221.3048 798.2944,228.8348" fill="none" id="MenuPrincipal-to-ListandoCuartos" style="stroke:#181818;stroke-width:1;"/><polygon fill="#181818" points="803.47,231.87,797.73,223.8667,799.157,229.3406,793.683,230.7676,803.47,231.87" style="stroke:#181818;stroke-width:1;"/><path d="M776.21,172 L776.21,197 L934.21,197 L934.21,182 L924.21,172 L776.21,172" fill="#FEFFDD" style="stroke:#181818;stroke-width:0.5;"/><path d="M924.21,172 L924.21,182 L934.21,182 L924.21,172" fill="#FEFFDD" style="stroke:#181818;stroke-width:0.5;"/><text fill="#000000" font-family="sans-serif" font-size="13" lengthAdjust="spacing" textLength="137.522" x="782.21" y="189.0669">Ver todos los cuartos</text></g><!--link ListandoCuartos to MenuPrincipal--><g class="link" data-entity-1="ListandoCuartos" data-entity-2="MenuPrincipal" data-source-line="75" data-uid="lnk15" id="link_ListandoCuartos_MenuPrincipal"><path d="M918.36,231.86 C928.33,223.72 937.72,213.69 943.21,202 C949.82,187.92 949.82,181.08 943.21,167 C937.72,155.31 932.9777,149.0746 923.0077,140.9346" fill="none" id="ListandoCuartos-to-MenuPrincipal" style="stroke:#181818;stroke-width:1;"/><polygon fill="#181818" points="918.36,137.14,922.8018,145.9304,922.2331,140.3022,927.8613,139.7334,918.36,137.14" style="stroke:#181818;stroke-width:1;"/><path d="M953.21,172 L953.21,197 L1130.21,197 L1130.21,182 L1120.21,172 L953.21,172" fill="#FEFFDD" style="stroke:#181818;stroke-width:0.5;"/><path d="M1120.21,172 L1120.21,182 L1130.21,182 L1120.21,172" fill="#FEFFDD" style="stroke:#181818;stroke-width:0.5;"/><text fill="#000000" font-family="sans-serif" font-size="13" lengthAdjust="spacing" textLength="156.7871" x="959.21" y="189.0669">Volver al Menú Principal</text></g><!--link ListandoCuartos to CreandoCuarto--><g class="link" data-entity-1="ListandoCuartos" data-entity-2="CreandoCuarto" data-source-line="16" data-uid="lnk5" id="link_ListandoCuartos_CreandoCuarto"><path d="M795.15,260.19 C585.09,266.15 47.46,284.05 21.21,312 C6,328.2 8.68,343.65 21.21,362 C35.13,382.4 52.341,393.1537 75.511,401.0537" fill="none" id="ListandoCuartos-to-CreandoCuarto" style="stroke:#181818;stroke-width:1;"/><polygon fill="#181818" points="81.19,402.99,73.9624,396.2996,76.4575,401.3764,71.3807,403.8715,81.19,402.99" style="stroke:#181818;stroke-width:1;"/><path d="M26.21,324.5 L26.21,349.5 L172.21,349.5 L172.21,334.5 L162.21,324.5 L26.21,324.5" fill="#FEFFDD" style="stroke:#181818;stroke-width:0.5;"/><path d="M162.21,324.5 L162.21,334.5 L172.21,334.5 L162.21,324.5" fill="#FEFFDD" style="stroke:#181818;stroke-width:0.5;"/><text fill="#000000" font-family="sans-serif" font-size="13" lengthAdjust="spacing" textLength="125.8677" x="32.21" y="341.5669">Crear nuevo cuarto</text></g><!--link CreandoCuarto to ListandoCuartos--><g class="link" data-entity-1="CreandoCuarto" data-entity-2="ListandoCuartos" data-source-line="21" data-uid="lnk6" id="link_CreandoCuarto_ListandoCuartos"><path d="M170.53,391.84 C183.54,367.08 207.41,329.78 240.21,312 C287.85,286.17 627.0956,268.62 788.9156,261.6" fill="none" id="CreandoCuarto-to-ListandoCuartos" style="stroke:#181818;stroke-width:1;"/><polygon fill="#181818" points="794.91,261.34,785.7451,257.7338,789.9147,261.5567,786.0918,265.7263,794.91,261.34" style="stroke:#181818;stroke-width:1;"/><path d="M245.21,317 L245.21,357 L358.21,357 L358.21,327 L348.21,317 L245.21,317" fill="#FEFFDD" style="stroke:#181818;stroke-width:0.5;"/><path d="M348.21,317 L348.21,327 L358.21,327 L348.21,317" fill="#FEFFDD" style="stroke:#181818;stroke-width:0.5;"/><text fill="#000000" font-family="sans-serif" font-size="13" lengthAdjust="spacing" textLength="92.4727" x="251.21" y="334.0669">Cuarto creado</text><text fill="#000000" font-family="sans-serif" font-size="13" lengthAdjust="spacing" textLength="89.0894" x="251.21" y="349.1997">exitosamente</text></g><!--link ListandoCuartos to ActualizandoCuarto--><g class="link" data-entity-1="ListandoCuartos" data-entity-2="ActualizandoCuarto" data-source-line="27" data-uid="lnk7" id="link_ListandoCuartos_ActualizandoCuarto"><path d="M795.1,261.06 C660.57,266.88 407.36,281.74 380.21,312 C365.37,328.54 370.85,341.85 380.21,362 C385.6,373.6 390.2326,379.7786 400.0426,387.9186" fill="none" id="ListandoCuartos-to-ActualizandoCuarto" style="stroke:#181818;stroke-width:1;"/><polygon fill="#181818" points="404.66,391.75,400.2881,382.9247,400.8122,388.5572,395.1796,389.0812,404.66,391.75" style="stroke:#181818;stroke-width:1;"/><path d="M385.21,317 L385.21,357 L552.21,357 L552.21,327 L542.21,317 L385.21,317" fill="#FEFFDD" style="stroke:#181818;stroke-width:0.5;"/><path d="M542.21,317 L542.21,327 L552.21,327 L542.21,317" fill="#FEFFDD" style="stroke:#181818;stroke-width:0.5;"/><text fill="#000000" font-family="sans-serif" font-size="13" lengthAdjust="spacing" textLength="146.1421" x="391.21" y="334.0669">Actualizar información</text><text fill="#000000" font-family="sans-serif" font-size="13" lengthAdjust="spacing" textLength="65.7427" x="391.21" y="349.1997">del cuarto</text></g><!--link ActualizandoCuarto to ListandoCuartos--><g class="link" data-entity-1="ActualizandoCuarto" data-entity-2="ListandoCuartos" data-source-line="33" data-uid="lnk8" id="link_ActualizandoCuarto_ListandoCuartos"><path d="M504.06,391.9 C522.88,383.41 543.39,373.16 561.21,362 C590.92,343.39 590.6,327.16 622.21,312 C676.58,285.92 737.4543,273.1756 789.1943,266.1656" fill="none" id="ActualizandoCuarto-to-ListandoCuartos" style="stroke:#181818;stroke-width:1;"/><polygon fill="#181818" points="795.14,265.36,785.6844,262.6045,790.1853,266.0313,786.7585,270.5321,795.14,265.36" style="stroke:#181818;stroke-width:1;"/><path d="M627.21,317 L627.21,357 L770.21,357 L770.21,327 L760.21,317 L627.21,317" fill="#FEFFDD" style="stroke:#181818;stroke-width:0.5;"/><path d="M760.21,317 L760.21,327 L770.21,327 L760.21,317" fill="#FEFFDD" style="stroke:#181818;stroke-width:0.5;"/><text fill="#000000" font-family="sans-serif" font-size="13" lengthAdjust="spacing" textLength="122.4463" x="633.21" y="334.0669">Cuarto actualizado</text><text fill="#000000" font-family="sans-serif" font-size="13" lengthAdjust="spacing" textLength="89.0894" x="633.21" y="349.1997">exitosamente</text></g><!--link ListandoCuartos to EliminandoCuarto--><g class="link" data-entity-1="ListandoCuartos" data-entity-2="EliminandoCuarto" data-source-line="39" data-uid="lnk9" id="link_ListandoCuartos_EliminandoCuarto"><path d="M820.1,282.02 C808.15,289.77 797.13,299.64 790.21,312 C779.36,331.39 781.61,341.51 790.21,362 C794.97,373.35 799.0585,379.3997 807.9185,387.7697" fill="none" id="ListandoCuartos-to-EliminandoCuarto" style="stroke:#181818;stroke-width:1;"/><polygon fill="#181818" points="812.28,391.89,808.4846,382.8018,808.6454,388.4564,802.9908,388.6172,812.28,391.89" style="stroke:#181818;stroke-width:1;"/><path d="M795.21,317 L795.21,357 L915.21,357 L915.21,327 L905.21,317 L795.21,317" fill="#FEFFDD" style="stroke:#181818;stroke-width:0.5;"/><path d="M905.21,317 L905.21,327 L915.21,327 L905.21,317" fill="#FEFFDD" style="stroke:#181818;stroke-width:0.5;"/><text fill="#000000" font-family="sans-serif" font-size="13" lengthAdjust="spacing" textLength="99.144" x="801.21" y="334.0669">Eliminar cuarto</text><text fill="#000000" font-family="sans-serif" font-size="13" lengthAdjust="spacing" textLength="78.6475" x="801.21" y="349.1997">sin reservas</text></g><!--link EliminandoCuarto to ListandoCuartos--><g class="link" data-entity-1="EliminandoCuarto" data-entity-2="ListandoCuartos" data-source-line="45" data-uid="lnk10" id="link_EliminandoCuarto_ListandoCuartos"><path d="M896.27,391.77 C907.46,383.92 917.85,374.05 924.21,362 C934.58,342.35 931.89,332.85 924.21,312 C920.17,301.02 916.7943,295.2183 909.1143,286.6483" fill="none" id="EliminandoCuarto-to-ListandoCuartos" style="stroke:#181818;stroke-width:1;"/><polygon fill="#181818" points="905.11,282.18,908.1375,291.552,908.4469,285.9036,914.0953,286.2129,905.11,282.18" style="stroke:#181818;stroke-width:1;"/><path d="M936.21,317 L936.21,357 L1068.21,357 L1068.21,327 L1058.21,317 L936.21,317" fill="#FEFFDD" style="stroke:#181818;stroke-width:0.5;"/><path d="M1058.21,317 L1058.21,327 L1068.21,327 L1058.21,317" fill="#FEFFDD" style="stroke:#181818;stroke-width:0.5;"/><text fill="#000000" font-family="sans-serif" font-size="13" lengthAdjust="spacing" textLength="111.7188" x="942.21" y="334.0669">Cuarto eliminado</text><text fill="#000000" font-family="sans-serif" font-size="13" lengthAdjust="spacing" textLength="89.0894" x="942.21" y="349.1997">exitosamente</text></g><!--link ListandoCuartos to ConsultandoDisponibilidad--><g class="link" data-entity-1="ListandoCuartos" data-entity-2="ConsultandoDisponibilidad" data-source-line="51" data-uid="lnk11" id="link_ListandoCuartos_ConsultandoDisponibilidad"><path d="M961.7,268.75 C1000.23,276.49 1045.28,289.67 1081.21,312 C1113.81,332.26 1137.8702,362.8354 1153.8302,386.6554" fill="none" id="ListandoCuartos-to-ConsultandoDisponibilidad" style="stroke:#181818;stroke-width:1;"/><polygon fill="#181818" points="1157.17,391.64,1155.4834,381.9366,1154.3868,387.4862,1148.8373,386.3897,1157.17,391.64" style="stroke:#181818;stroke-width:1;"/><path d="M1139.21,317 L1139.21,357 L1234.21,357 L1234.21,327 L1224.21,317 L1139.21,317" fill="#FEFFDD" style="stroke:#181818;stroke-width:0.5;"/><path d="M1224.21,317 L1224.21,327 L1234.21,327 L1224.21,317" fill="#FEFFDD" style="stroke:#181818;stroke-width:0.5;"/><text fill="#000000" font-family="sans-serif" font-size="13" lengthAdjust="spacing" textLength="74.8896" x="1145.21" y="334.0669">Ver cuartos</text><text fill="#000000" font-family="sans-serif" font-size="13" lengthAdjust="spacing" textLength="73.3281" x="1145.21" y="349.1997">disponibles</text></g><!--link ConsultandoDisponibilidad to ListandoCuartos--><g class="link" data-entity-1="ConsultandoDisponibilidad" data-entity-2="ListandoCuartos" data-source-line="57" data-uid="lnk12" id="link_ConsultandoDisponibilidad_ListandoCuartos"><path d="M1219.96,391.87 C1230.88,383.93 1241.07,374 1247.21,362 C1257.34,342.22 1261.74,328.81 1247.21,312 C1211.01,270.12 1064.5287,260.2158 967.2587,258.1758" fill="none" id="ConsultandoDisponibilidad-to-ListandoCuartos" style="stroke:#181818;stroke-width:1;"/><polygon fill="#181818" points="961.26,258.05,970.1741,262.2378,966.2589,258.1548,970.3419,254.2396,961.26,258.05" style="stroke:#181818;stroke-width:1;"/><path d="M1262.21,317 L1262.21,357 L1367.21,357 L1367.21,327 L1357.21,317 L1262.21,317" fill="#FEFFDD" style="stroke:#181818;stroke-width:0.5;"/><path d="M1357.21,317 L1357.21,327 L1367.21,327 L1357.21,317" fill="#FEFFDD" style="stroke:#181818;stroke-width:0.5;"/><text fill="#000000" font-family="sans-serif" font-size="13" lengthAdjust="spacing" textLength="84.7856" x="1268.21" y="334.0669">Volver a lista</text><text fill="#000000" font-family="sans-serif" font-size="13" lengthAdjust="spacing" textLength="60.6899" x="1268.21" y="349.1997">completa</text></g><!--link ListandoCuartos to CambiandoEstado--><g class="link" data-entity-1="ListandoCuartos" data-entity-2="CambiandoEstado" data-source-line="63" data-uid="lnk13" id="link_ListandoCuartos_CambiandoEstado"><path d="M961.33,261.27 C1083.88,267.05 1306.52,281.46 1380.21,312 C1412.91,325.55 1411.83,343.83 1442.21,362 C1461.25,373.39 1477.5948,381.2785 1497.8248,389.6385" fill="none" id="ListandoCuartos-to-CambiandoEstado" style="stroke:#181818;stroke-width:1;"/><polygon fill="#181818" points="1503.37,391.93,1496.5799,384.7959,1498.749,390.0204,1493.5246,392.1895,1503.37,391.93" style="stroke:#181818;stroke-width:1;"/><path d="M1447.21,317 L1447.21,357 L1648.21,357 L1648.21,327 L1638.21,317 L1447.21,317" fill="#FEFFDD" style="stroke:#181818;stroke-width:0.5;"/><path d="M1638.21,317 L1638.21,327 L1648.21,327 L1638.21,317" fill="#FEFFDD" style="stroke:#181818;stroke-width:0.5;"/><text fill="#000000" font-family="sans-serif" font-size="13" lengthAdjust="spacing" textLength="103.0542" x="1453.21" y="334.0669">Cambiar estado</text><text fill="#000000" font-family="sans-serif" font-size="13" lengthAdjust="spacing" textLength="180.7686" x="1453.21" y="349.1997">(Disponible/Mantenimiento)</text></g><!--link CambiandoEstado to ListandoCuartos--><g class="link" data-entity-1="CambiandoEstado" data-entity-2="ListandoCuartos" data-source-line="69" data-uid="lnk14" id="link_CambiandoEstado_ListandoCuartos"><path d="M1627.68,391.85 C1639.48,384.11 1650.38,374.27 1657.21,362 C1668.01,342.58 1672.37,328.25 1657.21,312 C1610.5,261.94 1158.49,257.2522 967.34,257.5022" fill="none" id="CambiandoEstado-to-ListandoCuartos" style="stroke:#181818;stroke-width:1;"/><polygon fill="#181818" points="961.34,257.51,970.3452,261.4982,966.34,257.5035,970.3348,253.4982,961.34,257.51" style="stroke:#181818;stroke-width:1;"/><path d="M1672.21,317 L1672.21,357 L1805.21,357 L1805.21,327 L1795.21,317 L1672.21,317" fill="#FEFFDD" style="stroke:#181818;stroke-width:0.5;"/><path d="M1795.21,317 L1795.21,327 L1805.21,327 L1795.21,317" fill="#FEFFDD" style="stroke:#181818;stroke-width:0.5;"/><text fill="#000000" font-family="sans-serif" font-size="13" lengthAdjust="spacing" textLength="112.2012" x="1678.21" y="334.0669">Estado cambiado</text><text fill="#000000" font-family="sans-serif" font-size="13" lengthAdjust="spacing" textLength="89.0894" x="1678.21" y="349.1997">exitosamente</text></g><!--SRC=[dLJRQeCm6BxtASAkja7P6moiUX7mHAsxs1WbrGp2Ob8IBMEljRlTziKMuw4QwqeDUE6Vxv3lpq6MgCJWBl32T1TlOEZ0sFRl098WmAoA1M4PEI1goGRdmsHhXswqSr9xiuqIZVI9ccKvToeaIYuxhBFn1b2DT0G-0pkSxMnJsuUl9jZEoWfHyZrbU3uCO6ZYFKeAmgPe9mgJr6-MxS8aZaAuXZvqRRTP4sUoeZg0I-I1Cx8dbEGex_bsi8QQxQdmRfi45NjISpo5ohbblJs-WzNgsMYRDVhL0BDRG0t6bH5dW1BsgGlrUC42b3pd4b3rPGCuPhccM9OXfWt6JPwLhs42i0eVUIjkQ8zqRbjwoycKGixxAluYYeKAp9JyzHmNzd_MiCSAGDW75mNAoEc7zVCvffT3JaqM9KMTpFAua-CxwzaYnJ1HFIHXG629nH6PvyGKNnGIDoBB8yvVjNylmV3ewyrikHIRCMSDRhnvd1wLBr9LnUZB6IyE5BU5AqcDvs6-jHee03xZwd7lzXcV0gIworJhLPVvWvbuR7HRpfQJQOtbspf-ygvsbTQ4qoyOKpgBFm00]--></g></svg>