<svg xmlns="http://www.w3.org/2000/svg" xmlns:xlink="http://www.w3.org/1999/xlink" contentStyleType="text/css" data-diagram-type="STATE" height="448px" preserveAspectRatio="none" style="width:1094px;height:448px;background:#FFFFFF;" version="1.1" viewBox="0 0 1094 448" width="1094px" zoomAndPan="magnify"><defs/><g><g id="MenuPrincipal"><rect fill="#F1F1F1" height="50" rx="12.5" ry="12.5" style="stroke:#181818;stroke-width:0.5;" width="141.1396" x="413.28" y="87"/><line style="stroke:#181818;stroke-width:0.5;" x1="413.28" x2="554.4196" y1="113.2969" y2="113.2969"/><text fill="#000000" font-family="sans-serif" font-size="14" lengthAdjust="spacing" textLength="121.1396" x="423.28" y="104.9951">MENU_PRINCIPAL</text></g><g id="ListandoHuespedes"><rect fill="#F1F1F1" height="50" rx="12.5" ry="12.5" style="stroke:#181818;stroke-width:0.5;" width="182.5244" x="392.28" y="232"/><line style="stroke:#181818;stroke-width:0.5;" x1="392.28" x2="574.8044" y1="258.2969" y2="258.2969"/><text fill="#000000" font-family="sans-serif" font-size="14" lengthAdjust="spacing" textLength="162.5244" x="402.28" y="249.9951">LISTANDO_HUESPEDES</text></g><g id="RegistrandoHuesped"><rect fill="#F1F1F1" height="50" rx="12.5" ry="12.5" style="stroke:#181818;stroke-width:0.5;" width="196.1416" x="46.78" y="392"/><line style="stroke:#181818;stroke-width:0.5;" x1="46.78" x2="242.9216" y1="418.2969" y2="418.2969"/><text fill="#000000" font-family="sans-serif" font-size="14" lengthAdjust="spacing" textLength="176.1416" x="56.78" y="409.9951">REGISTRANDO_HUESPED</text></g><g id="ActualizandoHuesped"><rect fill="#F1F1F1" height="50" rx="12.5" ry="12.5" style="stroke:#181818;stroke-width:0.5;" width="204.6729" x="346.28" y="392"/><line style="stroke:#181818;stroke-width:0.5;" x1="346.28" x2="550.9529" y1="418.2969" y2="418.2969"/><text fill="#000000" font-family="sans-serif" font-size="14" lengthAdjust="spacing" textLength="184.6729" x="356.28" y="409.9951">ACTUALIZANDO_HUESPED</text></g><g id="EliminandoHuesped"><rect fill="#F1F1F1" height="50" rx="12.5" ry="12.5" style="stroke:#181818;stroke-width:0.5;" width="182.8799" x="774.28" y="392"/><line style="stroke:#181818;stroke-width:0.5;" x1="774.28" x2="957.1599" y1="418.2969" y2="418.2969"/><text fill="#000000" font-family="sans-serif" font-size="14" lengthAdjust="spacing" textLength="162.8799" x="784.28" y="409.9951">ELIMINANDO_HUESPED</text></g><ellipse cx="483.78" cy="16" fill="#222222" rx="10" ry="10" style="stroke:#222222;stroke-width:1;"/><!--link *start* to MenuPrincipal--><g class="link" data-entity-1=".start." data-entity-2="MenuPrincipal" data-source-line="7" data-uid="lnk3" id="link_.start._MenuPrincipal"><path d="M483.78,26.01 C483.78,39.89 483.78,60.97 483.78,80.84" fill="none" id="*start*-to-MenuPrincipal" style="stroke:#181818;stroke-width:1;"/><polygon fill="#181818" points="483.78,86.84,487.78,77.84,483.78,81.84,479.78,77.84,483.78,86.84" style="stroke:#181818;stroke-width:1;"/></g><!--link MenuPrincipal to ListandoHuespedes--><g class="link" data-entity-1="MenuPrincipal" data-entity-2="ListandoHuespedes" data-source-line="9" data-uid="lnk4" id="link_MenuPrincipal_ListandoHuespedes"><path d="M413.1,130.15 C394.57,138.2 376.74,149.94 365.78,167 C357.38,180.09 357.38,188.91 365.78,202 C373.94,214.7 380.6879,221.4953 393.9079,228.9753" fill="none" id="MenuPrincipal-to-ListandoHuespedes" style="stroke:#181818;stroke-width:1;"/><polygon fill="#181818" points="399.13,231.93,393.2667,224.0166,394.7783,229.4678,389.3271,230.9793,399.13,231.93" style="stroke:#181818;stroke-width:1;"/><path d="M370.78,172 L370.78,197 L550.78,197 L550.78,182 L540.78,172 L370.78,172" fill="#FEFFDD" style="stroke:#181818;stroke-width:0.5;"/><path d="M540.78,172 L540.78,182 L550.78,182 L540.78,172" fill="#FEFFDD" style="stroke:#181818;stroke-width:0.5;"/><text fill="#000000" font-family="sans-serif" font-size="13" lengthAdjust="spacing" textLength="159.5229" x="376.78" y="189.0669">Ver todos los huéspedes</text></g><!--link ListandoHuespedes to MenuPrincipal--><g class="link" data-entity-1="ListandoHuespedes" data-entity-2="MenuPrincipal" data-source-line="50" data-uid="lnk11" id="link_ListandoHuespedes_MenuPrincipal"><path d="M532.16,231.99 C543.22,224.05 553.54,214.08 559.78,202 C566.92,188.18 566.92,180.82 559.78,167 C553.54,154.92 548.094,148.4491 537.034,140.5091" fill="none" id="ListandoHuespedes-to-MenuPrincipal" style="stroke:#181818;stroke-width:1;"/><polygon fill="#181818" points="532.16,137.01,537.1383,145.508,536.2217,139.9259,541.8038,139.0093,532.16,137.01" style="stroke:#181818;stroke-width:1;"/><path d="M570.78,172 L570.78,197 L747.78,197 L747.78,182 L737.78,172 L570.78,172" fill="#FEFFDD" style="stroke:#181818;stroke-width:0.5;"/><path d="M737.78,172 L737.78,182 L747.78,182 L737.78,172" fill="#FEFFDD" style="stroke:#181818;stroke-width:0.5;"/><text fill="#000000" font-family="sans-serif" font-size="13" lengthAdjust="spacing" textLength="156.7871" x="576.78" y="189.0669">Volver al Menú Principal</text></g><!--link ListandoHuespedes to RegistrandoHuesped--><g class="link" data-entity-1="ListandoHuespedes" data-entity-2="RegistrandoHuesped" data-source-line="14" data-uid="lnk5" id="link_ListandoHuespedes_RegistrandoHuesped"><path d="M392.26,262.25 C264.36,269.13 45.01,284.78 20.78,312 C6,328.6 8.6,343.41 20.78,362 C29.14,374.77 36.0167,381.6132 49.4267,389.0732" fill="none" id="ListandoHuespedes-to-RegistrandoHuesped" style="stroke:#181818;stroke-width:1;"/><polygon fill="#181818" points="54.67,391.99,48.7496,384.1192,50.3006,389.5593,44.8605,391.1103,54.67,391.99" style="stroke:#181818;stroke-width:1;"/><path d="M25.78,317 L25.78,357 L149.78,357 L149.78,327 L139.78,317 L25.78,317" fill="#FEFFDD" style="stroke:#181818;stroke-width:0.5;"/><path d="M139.78,317 L139.78,327 L149.78,327 L139.78,317" fill="#FEFFDD" style="stroke:#181818;stroke-width:0.5;"/><text fill="#000000" font-family="sans-serif" font-size="13" lengthAdjust="spacing" textLength="103.6763" x="31.78" y="334.0669">Registrar nuevo</text><text fill="#000000" font-family="sans-serif" font-size="13" lengthAdjust="spacing" textLength="55.7515" x="31.78" y="349.1997">huésped</text></g><!--link RegistrandoHuesped to ListandoHuespedes--><g class="link" data-entity-1="RegistrandoHuesped" data-entity-2="ListandoHuespedes" data-source-line="20" data-uid="lnk6" id="link_RegistrandoHuesped_ListandoHuespedes"><path d="M155.66,391.7 C167.78,367.58 189.68,331.46 219.78,312 C270.85,278.98 332.1578,266.1466 386.0178,260.9466" fill="none" id="RegistrandoHuesped-to-ListandoHuespedes" style="stroke:#181818;stroke-width:1;"/><polygon fill="#181818" points="391.99,260.37,382.6473,257.2534,387.0131,260.8505,383.4161,265.2164,391.99,260.37" style="stroke:#181818;stroke-width:1;"/><path d="M224.78,317 L224.78,357 L373.78,357 L373.78,327 L363.78,317 L224.78,317" fill="#FEFFDD" style="stroke:#181818;stroke-width:0.5;"/><path d="M363.78,317 L363.78,327 L373.78,327 L363.78,317" fill="#FEFFDD" style="stroke:#181818;stroke-width:0.5;"/><text fill="#000000" font-family="sans-serif" font-size="13" lengthAdjust="spacing" textLength="128.0132" x="230.78" y="334.0669">Huésped registrado</text><text fill="#000000" font-family="sans-serif" font-size="13" lengthAdjust="spacing" textLength="89.0894" x="230.78" y="349.1997">exitosamente</text></g><!--link ListandoHuespedes to ActualizandoHuesped--><g class="link" data-entity-1="ListandoHuespedes" data-entity-2="ActualizandoHuesped" data-source-line="26" data-uid="lnk7" id="link_ListandoHuespedes_ActualizandoHuesped"><path d="M423.91,282.08 C411.87,289.79 400.78,299.63 393.78,312 C382.83,331.34 385.18,341.51 393.78,362 C398.54,373.35 402.6285,379.3997 411.4885,387.7697" fill="none" id="ListandoHuespedes-to-ActualizandoHuesped" style="stroke:#181818;stroke-width:1;"/><polygon fill="#181818" points="415.85,391.89,412.0546,382.8018,412.2154,388.4564,406.5608,388.6172,415.85,391.89" style="stroke:#181818;stroke-width:1;"/><path d="M398.78,317 L398.78,357 L523.78,357 L523.78,327 L513.78,317 L398.78,317" fill="#FEFFDD" style="stroke:#181818;stroke-width:0.5;"/><path d="M513.78,317 L513.78,327 L523.78,327 L513.78,317" fill="#FEFFDD" style="stroke:#181818;stroke-width:0.5;"/><text fill="#000000" font-family="sans-serif" font-size="13" lengthAdjust="spacing" textLength="104.876" x="404.78" y="334.0669">Actualizar datos</text><text fill="#000000" font-family="sans-serif" font-size="13" lengthAdjust="spacing" textLength="79.7456" x="404.78" y="349.1997">del huésped</text></g><!--link ActualizandoHuesped to ListandoHuespedes--><g class="link" data-entity-1="ActualizandoHuesped" data-entity-2="ListandoHuespedes" data-source-line="32" data-uid="lnk8" id="link_ActualizandoHuesped_ListandoHuespedes"><path d="M503.87,391.79 C515.44,384.01 526.13,374.17 532.78,362 C543.43,342.5 540.78,332.73 532.78,312 C528.49,300.9 524.8865,295.0162 516.7965,286.5162" fill="none" id="ActualizandoHuesped-to-ListandoHuespedes" style="stroke:#181818;stroke-width:1;"/><polygon fill="#181818" points="512.66,282.17,515.9673,291.4469,516.1071,285.7918,521.7622,285.9316,512.66,282.17" style="stroke:#181818;stroke-width:1;"/><path d="M545.78,317 L545.78,357 L689.78,357 L689.78,327 L679.78,317 L545.78,317" fill="#FEFFDD" style="stroke:#181818;stroke-width:0.5;"/><path d="M679.78,317 L679.78,327 L689.78,327 L679.78,317" fill="#FEFFDD" style="stroke:#181818;stroke-width:0.5;"/><text fill="#000000" font-family="sans-serif" font-size="13" lengthAdjust="spacing" textLength="123.3413" x="551.78" y="334.0669">Datos actualizados</text><text fill="#000000" font-family="sans-serif" font-size="13" lengthAdjust="spacing" textLength="89.0894" x="551.78" y="349.1997">exitosamente</text></g><!--link ListandoHuespedes to EliminandoHuesped--><g class="link" data-entity-1="ListandoHuespedes" data-entity-2="EliminandoHuesped" data-source-line="38" data-uid="lnk9" id="link_ListandoHuespedes_EliminandoHuesped"><path d="M575.48,271.03 C616,279.17 663.29,292.03 702.78,312 C733.76,327.67 733.91,342.72 762.78,362 C779.07,372.88 792.4607,380.5228 809.4507,389.2328" fill="none" id="ListandoHuespedes-to-EliminandoHuesped" style="stroke:#181818;stroke-width:1;"/><polygon fill="#181818" points="814.79,391.97,808.6059,384.3047,810.3406,389.689,804.9563,391.4237,814.79,391.97" style="stroke:#181818;stroke-width:1;"/><path d="M767.78,317 L767.78,357 L917.78,357 L917.78,327 L907.78,317 L767.78,317" fill="#FEFFDD" style="stroke:#181818;stroke-width:0.5;"/><path d="M907.78,317 L907.78,327 L917.78,327 L907.78,317" fill="#FEFFDD" style="stroke:#181818;stroke-width:0.5;"/><text fill="#000000" font-family="sans-serif" font-size="13" lengthAdjust="spacing" textLength="113.147" x="773.78" y="334.0669">Eliminar huésped</text><text fill="#000000" font-family="sans-serif" font-size="13" lengthAdjust="spacing" textLength="129.0352" x="773.78" y="349.1997">sin reservas activas</text></g><!--link EliminandoHuesped to ListandoHuespedes--><g class="link" data-entity-1="EliminandoHuesped" data-entity-2="ListandoHuespedes" data-source-line="44" data-uid="lnk10" id="link_EliminandoHuesped_ListandoHuespedes"><path d="M902.87,391.97 C912.46,383.73 921.55,373.61 926.78,362 C935.9,341.74 941.51,328.64 926.78,312 C903.91,286.17 704.3793,270.4986 581.4593,263.1386" fill="none" id="EliminandoHuesped-to-ListandoHuespedes" style="stroke:#181818;stroke-width:1;"/><polygon fill="#181818" points="575.47,262.78,584.2148,267.3108,580.4611,263.0788,584.693,259.3251,575.47,262.78" style="stroke:#181818;stroke-width:1;"/><path d="M941.78,317 L941.78,357 L1087.78,357 L1087.78,327 L1077.78,317 L941.78,317" fill="#FEFFDD" style="stroke:#181818;stroke-width:0.5;"/><path d="M1077.78,317 L1077.78,327 L1087.78,327 L1077.78,317" fill="#FEFFDD" style="stroke:#181818;stroke-width:0.5;"/><text fill="#000000" font-family="sans-serif" font-size="13" lengthAdjust="spacing" textLength="125.3281" x="947.78" y="334.0669">Huésped eliminado</text><text fill="#000000" font-family="sans-serif" font-size="13" lengthAdjust="spacing" textLength="89.0894" x="947.78" y="349.1997">exitosamente</text></g><!--SRC=[fPFHIiCm58Rl-nI7NGfx1Q6imHMwMhhD2qL6M0uQp9AHj4Dy8r_1sxsOPzawswK5fu5Ialp_-VedFQxY5S9enlBbgYZJV98MSJO2xc26kYwir6kvvIfoHrsMpXTndjolfaisBrZ2vbwRIThNmanhT5iKw1fzoUx8KROjtb3Y2rbiozCuuibY6MVfOs29rrNDbVpeyR0idQLvu61ARgHkwwEdcsSOZsylmaMTgHU4YO26DeGp6fJKRtxXC1xGGcM4SQ3eUQttdoq7Qk5TKHHKz9oUWnW4DLeBkiQTEQyto0jWMFhQPDDJOR2dKk87Yk-oCevlK1FhDqdxxc-GV1PR49muvms1QYXl3-3QmCc11Rmf95hWg_E6VzyWzYIrtMI7uQIcmtTeTzn_bwJt1JtW_FcMyLZfFvVSxQlXbZ5gHrr3lKQ6_HTqBGta6m00]--></g></svg>