<svg xmlns="http://www.w3.org/2000/svg" xmlns:xlink="http://www.w3.org/1999/xlink" contentStyleType="text/css" data-diagram-type="STATE" height="644px" preserveAspectRatio="none" style="width:750px;height:644px;background:#FFFFFF;" version="1.1" viewBox="0 0 750 644" width="750px" zoomAndPan="magnify"><defs/><g><ellipse cx="409.5" cy="16" fill="#222222" rx="10" ry="10" style="stroke:#222222;stroke-width:1;"/><g id="Confirmada"><rect fill="#F1F1F1" height="50" rx="12.5" ry="12.5" style="stroke:#181818;stroke-width:0.5;" width="101.4707" x="359" y="136"/><line style="stroke:#181818;stroke-width:0.5;" x1="359" x2="460.4707" y1="162.2969" y2="162.2969"/><text fill="#000000" font-family="sans-serif" font-size="14" lengthAdjust="spacing" textLength="81.4707" x="369" y="153.9951">Confirmada</text></g><g id="EnCurso"><rect fill="#F1F1F1" height="50" rx="12.5" ry="12.5" style="stroke:#181818;stroke-width:0.5;" width="77.9824" x="222.5" y="296"/><line style="stroke:#181818;stroke-width:0.5;" x1="222.5" x2="300.4824" y1="322.2969" y2="322.2969"/><text fill="#000000" font-family="sans-serif" font-size="14" lengthAdjust="spacing" textLength="57.9824" x="232.5" y="313.9951">EnCurso</text></g><g id="Completada"><rect fill="#F1F1F1" height="50" rx="12.5" ry="12.5" style="stroke:#181818;stroke-width:0.5;" width="104.9023" x="7" y="456"/><line style="stroke:#181818;stroke-width:0.5;" x1="7" x2="111.9023" y1="482.2969" y2="482.2969"/><text fill="#000000" font-family="sans-serif" font-size="14" lengthAdjust="spacing" textLength="84.9023" x="17" y="473.9951">Completada</text></g><ellipse cx="215.5" cy="627" fill="none" rx="11" ry="11" style="stroke:#222222;stroke-width:1;"/><ellipse cx="215.5" cy="627" fill="#222222" rx="6" ry="6" style="stroke:#222222;stroke-width:1;"/><g id="Cancelada"><rect fill="#F1F1F1" height="50" rx="12.5" ry="12.5" style="stroke:#181818;stroke-width:0.5;" width="93.4727" x="325" y="456"/><line style="stroke:#181818;stroke-width:0.5;" x1="325" x2="418.4727" y1="482.2969" y2="482.2969"/><text fill="#000000" font-family="sans-serif" font-size="14" lengthAdjust="spacing" textLength="73.4727" x="335" y="473.9951">Cancelada</text></g><g class="entity" data-entity="GMN2" data-source-line="44" data-uid="ent0003" id="entity_GMN2"><path d="M495.5,141 L495.5,157 L460.1,161 L495.5,165 L495.5,181.2656 A0,0 0 0 0 495.5,181.2656 L637.7021,181.2656 A0,0 0 0 0 637.7021,181.2656 L637.7021,151 L627.7021,141 L495.5,141 A0,0 0 0 0 495.5,141" fill="#FEFFDD" style="stroke:#181818;stroke-width:0.5;"/><path d="M627.7021,141 L627.7021,151 L637.7021,151 L627.7021,141" fill="#FEFFDD" style="stroke:#181818;stroke-width:0.5;"/><text fill="#000000" font-family="sans-serif" font-size="13" lengthAdjust="spacing" textLength="86.1885" x="501.5" y="158.0669">Estado inicial</text><text fill="#000000" font-family="sans-serif" font-size="13" lengthAdjust="spacing" textLength="121.2021" x="501.5" y="173.1997">Cuarto: Reservado</text></g><g class="entity" data-entity="GMN5" data-source-line="49" data-uid="ent0006" id="entity_GMN5"><path d="M336,301 L336,317 L300.76,321 L336,325 L336,341.2656 A0,0 0 0 0 336,341.2656 L487.4316,341.2656 A0,0 0 0 0 487.4316,341.2656 L487.4316,311 L477.4316,301 L336,301 A0,0 0 0 0 336,301" fill="#FEFFDD" style="stroke:#181818;stroke-width:0.5;"/><path d="M477.4316,301 L477.4316,311 L487.4316,311 L477.4316,301" fill="#FEFFDD" style="stroke:#181818;stroke-width:0.5;"/><text fill="#000000" font-family="sans-serif" font-size="13" lengthAdjust="spacing" textLength="130.4316" x="342" y="318.0669">Huésped en el hotel</text><text fill="#000000" font-family="sans-serif" font-size="13" lengthAdjust="spacing" textLength="110.2334" x="342" y="333.1997">Cuarto: Ocupado</text></g><g class="entity" data-entity="GMN8" data-source-line="54" data-uid="ent0009" id="entity_GMN8"><path d="M147.5,461 L147.5,477 L112.29,481 L147.5,485 L147.5,501.2656 A0,0 0 0 0 147.5,501.2656 L289.0039,501.2656 A0,0 0 0 0 289.0039,501.2656 L289.0039,471 L279.0039,461 L147.5,461 A0,0 0 0 0 147.5,461" fill="#FEFFDD" style="stroke:#181818;stroke-width:0.5;"/><path d="M279.0039,461 L279.0039,471 L289.0039,471 L279.0039,461" fill="#FEFFDD" style="stroke:#181818;stroke-width:0.5;"/><text fill="#000000" font-family="sans-serif" font-size="13" lengthAdjust="spacing" textLength="114.6387" x="153.5" y="478.0669">Estadía finalizada</text><text fill="#000000" font-family="sans-serif" font-size="13" lengthAdjust="spacing" textLength="120.5039" x="153.5" y="493.1997">Cuarto: Disponible</text></g><g class="entity" data-entity="GMN11" data-source-line="59" data-uid="ent0012" id="entity_GMN11"><path d="M453.5,461 L453.5,477 L418.12,481 L453.5,485 L453.5,501.2656 A0,0 0 0 0 453.5,501.2656 L597.7334,501.2656 A0,0 0 0 0 597.7334,501.2656 L597.7334,471 L587.7334,461 L453.5,461 A0,0 0 0 0 453.5,461" fill="#FEFFDD" style="stroke:#181818;stroke-width:0.5;"/><path d="M587.7334,461 L587.7334,471 L597.7334,471 L587.7334,461" fill="#FEFFDD" style="stroke:#181818;stroke-width:0.5;"/><text fill="#000000" font-family="sans-serif" font-size="13" lengthAdjust="spacing" textLength="123.2334" x="459.5" y="478.0669">Reserva cancelada</text><text fill="#000000" font-family="sans-serif" font-size="13" lengthAdjust="spacing" textLength="120.5039" x="459.5" y="493.1997">Cuarto: Disponible</text></g><!--link *start* to Confirmada--><g class="link" data-entity-1=".start." data-entity-2="Confirmada" data-source-line="1" data-uid="lnk4" id="link_.start._Confirmada"><path d="M409.5,26.38 C409.5,48.38 409.5,97.83 409.5,129.96" fill="none" id="*start*-to-Confirmada" style="stroke:#181818;stroke-width:1;"/><polygon fill="#181818" points="409.5,135.96,413.5,126.96,409.5,130.96,405.5,126.96,409.5,135.96" style="stroke:#181818;stroke-width:1;"/><path d="M414.5,61 L414.5,101 L551.5,101 L551.5,71 L541.5,61 L414.5,61" fill="#FEFFDD" style="stroke:#181818;stroke-width:0.5;"/><path d="M541.5,61 L541.5,71 L551.5,71 L541.5,61" fill="#FEFFDD" style="stroke:#181818;stroke-width:0.5;"/><text fill="#000000" font-family="sans-serif" font-size="13" lengthAdjust="spacing" textLength="101.6133" x="420.5" y="78.0669">Reserva creada</text><text fill="#000000" font-family="sans-serif" font-size="13" lengthAdjust="spacing" textLength="116.7588" x="420.5" y="93.1997">por administrador</text></g><!--link Confirmada to EnCurso--><g class="link" data-entity-1="Confirmada" data-entity-2="EnCurso" data-source-line="7" data-uid="lnk6" id="link_Confirmada_EnCurso"><path d="M358.71,169.08 C329.15,175.96 293.82,189.48 273.5,216 C256.03,238.79 254.9888,267.0973 257.1788,289.9973" fill="none" id="Confirmada-to-EnCurso" style="stroke:#181818;stroke-width:1;"/><polygon fill="#181818" points="257.75,295.97,260.875,286.6301,257.274,290.9927,252.9114,287.3917,257.75,295.97" style="stroke:#181818;stroke-width:1;"/><path d="M278.5,221 L278.5,261 L526.5,261 L526.5,231 L516.5,221 L278.5,221" fill="#FEFFDD" style="stroke:#181818;stroke-width:0.5;"/><path d="M516.5,221 L516.5,231 L526.5,231 L516.5,221" fill="#FEFFDD" style="stroke:#181818;stroke-width:0.5;"/><text fill="#000000" font-family="sans-serif" font-size="13" lengthAdjust="spacing" textLength="206.8638" x="284.5" y="238.0669">Fecha actual &gt;= Fecha entrada</text><text fill="#000000" font-family="sans-serif" font-size="13" lengthAdjust="spacing" textLength="227.7412" x="284.5" y="253.1997">(Automático - Background Service)</text></g><!--link EnCurso to Completada--><g class="link" data-entity-1="EnCurso" data-entity-2="Completada" data-source-line="13" data-uid="lnk8" id="link_EnCurso_Completada"><path d="M222.18,326.46 C167.56,333.56 73.09,349.41 52.5,376 C34.99,398.61 39.8411,427.2351 47.5911,450.1951" fill="none" id="EnCurso-to-Completada" style="stroke:#181818;stroke-width:1;"/><polygon fill="#181818" points="49.51,455.88,50.4216,446.0734,47.9109,451.1426,42.8417,448.6319,49.51,455.88" style="stroke:#181818;stroke-width:1;"/><path d="M57.5,381 L57.5,421 L305.5,421 L305.5,391 L295.5,381 L57.5,381" fill="#FEFFDD" style="stroke:#181818;stroke-width:0.5;"/><path d="M295.5,381 L295.5,391 L305.5,391 L295.5,381" fill="#FEFFDD" style="stroke:#181818;stroke-width:0.5;"/><text fill="#000000" font-family="sans-serif" font-size="13" lengthAdjust="spacing" textLength="194.1812" x="63.5" y="398.0669">Fecha actual &gt;= Fecha salida</text><text fill="#000000" font-family="sans-serif" font-size="13" lengthAdjust="spacing" textLength="227.7412" x="63.5" y="413.1997">(Automático - Background Service)</text></g><!--link Completada to *end*--><g class="link" data-entity-1="Completada" data-entity-2=".end." data-source-line="19" data-uid="lnk10" id="link_Completada_.end."><path d="M76.09,506.38 C92.25,528.9 118.41,562.35 146.5,586 C165.35,601.87 185.9062,612.4871 199.9962,619.0171" fill="none" id="Completada-to-*end*" style="stroke:#181818;stroke-width:1;"/><polygon fill="#181818" points="205.44,621.54,198.9563,614.1264,200.9035,619.4376,195.5924,621.3848,205.44,621.54" style="stroke:#181818;stroke-width:1;"/><path d="M151.5,541 L151.5,581 L293.5,581 L293.5,551 L283.5,541 L151.5,541" fill="#FEFFDD" style="stroke:#181818;stroke-width:0.5;"/><path d="M283.5,541 L283.5,551 L293.5,551 L283.5,541" fill="#FEFFDD" style="stroke:#181818;stroke-width:0.5;"/><text fill="#000000" font-family="sans-serif" font-size="13" lengthAdjust="spacing" textLength="100.8008" x="157.5" y="558.0669">Cuarto liberado</text><text fill="#000000" font-family="sans-serif" font-size="13" lengthAdjust="spacing" textLength="121.0815" x="157.5" y="573.1997">Estado: Disponible</text></g><!--link Confirmada to Cancelada--><g class="link" data-entity-1="Confirmada" data-entity-2="Cancelada" data-source-line="25" data-uid="lnk12" id="link_Confirmada_Cancelada"><path d="M460.14,180.66 C493.13,193.33 530.88,209 535.5,216 C558.44,250.79 603.98,331.96 533.5,426 C506.18,462.45 478.62,441.33 435.5,456 C429.88,457.91 429.6585,457.9388 423.8585,460.0488" fill="none" id="Confirmada-to-Cancelada" style="stroke:#181818;stroke-width:1;"/><polygon fill="#181818" points="418.22,462.1,428.0452,462.7821,422.9187,460.3906,425.3102,455.2642,418.22,462.1" style="stroke:#181818;stroke-width:1;"/><path d="M576.5,301 L576.5,341 L743.5,341 L743.5,311 L733.5,301 L576.5,301" fill="#FEFFDD" style="stroke:#181818;stroke-width:0.5;"/><path d="M733.5,301 L733.5,311 L743.5,311 L733.5,301" fill="#FEFFDD" style="stroke:#181818;stroke-width:0.5;"/><text fill="#000000" font-family="sans-serif" font-size="13" lengthAdjust="spacing" textLength="146.2119" x="582.5" y="318.0669">Administrador cancela</text><text fill="#000000" font-family="sans-serif" font-size="13" lengthAdjust="spacing" textLength="127.1626" x="582.5" y="333.1997">antes de la entrada</text></g><!--link EnCurso to Cancelada--><g class="link" data-entity-1="EnCurso" data-entity-2="Cancelada" data-source-line="31" data-uid="lnk13" id="link_EnCurso_Cancelada"><path d="M290.7,346.09 C300.27,354.88 310.5,365.3 318.5,376 C337.31,401.16 350.4384,428.4516 359.7084,450.4316" fill="none" id="EnCurso-to-Cancelada" style="stroke:#181818;stroke-width:1;"/><polygon fill="#181818" points="362.04,455.96,362.2282,446.1129,360.097,451.353,354.857,449.2217,362.04,455.96" style="stroke:#181818;stroke-width:1;"/><path d="M353.5,381 L353.5,421 L520.5,421 L520.5,391 L510.5,381 L353.5,381" fill="#FEFFDD" style="stroke:#181818;stroke-width:0.5;"/><path d="M510.5,381 L510.5,391 L520.5,391 L510.5,381" fill="#FEFFDD" style="stroke:#181818;stroke-width:0.5;"/><text fill="#000000" font-family="sans-serif" font-size="13" lengthAdjust="spacing" textLength="146.2119" x="359.5" y="398.0669">Administrador cancela</text><text fill="#000000" font-family="sans-serif" font-size="13" lengthAdjust="spacing" textLength="118.644" x="359.5" y="413.1997">durante la estadía</text></g><!--link Cancelada to *end*--><g class="link" data-entity-1="Cancelada" data-entity-2=".end." data-source-line="37" data-uid="lnk14" id="link_Cancelada_.end."><path d="M360.34,506.27 C348.7,529.34 328.51,563.74 302.5,586 C278.88,606.22 249.1168,616.5834 231.6768,621.5934" fill="none" id="Cancelada-to-*end*" style="stroke:#181818;stroke-width:1;"/><polygon fill="#181818" points="225.91,623.25,235.6646,624.6096,230.7156,621.8695,233.4557,616.9206,225.91,623.25" style="stroke:#181818;stroke-width:1;"/><path d="M348.5,541 L348.5,581 L490.5,581 L490.5,551 L480.5,541 L348.5,541" fill="#FEFFDD" style="stroke:#181818;stroke-width:0.5;"/><path d="M480.5,541 L480.5,551 L490.5,551 L480.5,541" fill="#FEFFDD" style="stroke:#181818;stroke-width:0.5;"/><text fill="#000000" font-family="sans-serif" font-size="13" lengthAdjust="spacing" textLength="100.8008" x="354.5" y="558.0669">Cuarto liberado</text><text fill="#000000" font-family="sans-serif" font-size="13" lengthAdjust="spacing" textLength="121.0815" x="354.5" y="573.1997">Estado: Disponible</text></g><!--SRC=[jPCxRiCm38Ptdu9Z6o0N2D00gPkYMu5s338m4fC8aKL3ZmwzJSSEFKKkLbdn8pPgBq6vYHB_ZmznCzl2VBw4dCrUsG8bPX3Di2TW0rgPKt9KzaQEx0U2iDIygwna2oWBPPJp5YNRT4D69fKiwwGJQMtoO1sFOvv9715G-80QbW_rcKmbtb7lLi5pSVxoIZ3CuH75wM0vHEfxJ589kX-aKNFhQejIav-izkyq76frInOTEIMocMt7CyW3Mi_HjwEghwr_xM8yB-19kPADsccQxdYEHf2UB7PrFJyGbu3s5eqd1v90z-SmqjnRSJBOYfXeLQdddo6kHVnZ4vEQLOUZ1zuFz-CI3R48eL1d7MZHR4b4ZMbTRy1BE7-xacG40sauneTzkLSHoYcnmLTUrms3lJBngtus_aRkgjnHnTxysgNlUIVaVW40]--></g></svg>