<svg xmlns="http://www.w3.org/2000/svg" xmlns:xlink="http://www.w3.org/1999/xlink" contentStyleType="text/css" data-diagram-type="DESCRIPTION" height="1166px" preserveAspectRatio="none" style="width:2416px;height:1166px;background:#FFFFFF;" version="1.1" viewBox="0 0 2416 1166" width="2416px" zoomAndPan="magnify"><title>Arquitectura General del Sistema - Vista de Capas</title><defs/><g><g class="title" data-source-line="2"><text fill="#000000" font-family="Verdana" font-size="22" font-weight="bold" lengthAdjust="spacing" textLength="622.9932" x="892.0034" y="35.4209">Arquitectura General del Sistema - Vista de Capas</text></g><!--cluster Cliente--><g class="cluster" data-entity="Cliente" data-source-line="4" data-uid="ent0002" id="cluster_Cliente"><path d="M731.5,57.6094 L788.0215,57.6094 A3.75,3.75 0 0 1 790.5215,60.1094 L797.5215,79.9063 L888.5,79.9063 A2.5,2.5 0 0 1 891,82.4063 L891,152.1094 A2.5,2.5 0 0 1 888.5,154.6094 L731.5,154.6094 A2.5,2.5 0 0 1 729,152.1094 L729,60.1094 A2.5,2.5 0 0 1 731.5,57.6094" fill="#FFFFFF" style="stroke:#000000;stroke-width:1;"/><line style="stroke:#000000;stroke-width:1;" x1="729" x2="797.5215" y1="79.9063" y2="79.9063"/><text fill="#000000" font-family="Verdana" font-size="14" font-weight="bold" lengthAdjust="spacing" textLength="55.5215" x="733" y="72.6045">Cliente</text></g><!--cluster API Layer - ASP.NET Core--><g class="cluster" data-entity="API Layer - ASP.NET Core" data-source-line="8" data-uid="ent0004" id="cluster_API Layer - ASP.NET Core"><path d="M13.5,178.6094 L213.624,178.6094 A3.75,3.75 0 0 1 216.124,181.1094 L223.124,200.9063 L1122.5,200.9063 A2.5,2.5 0 0 1 1125,203.4063 L1125,528.1094 A2.5,2.5 0 0 1 1122.5,530.6094 L13.5,530.6094 A2.5,2.5 0 0 1 11,528.1094 L11,181.1094 A2.5,2.5 0 0 1 13.5,178.6094" fill="#FFFFFF" style="stroke:#000000;stroke-width:1;"/><line style="stroke:#000000;stroke-width:1;" x1="11" x2="223.124" y1="200.9063" y2="200.9063"/><text fill="#000000" font-family="Verdana" font-size="14" font-weight="bold" lengthAdjust="spacing" textLength="199.124" x="15" y="193.6045">API Layer - ASP.NET Core</text></g><!--cluster Controllers--><g class="cluster" data-entity="Controllers" data-source-line="9" data-uid="ent0005" id="cluster_Controllers"><rect fill="#FFFFFF" height="269" rx="2.5" ry="2.5" style="stroke:#000000;stroke-width:1;" width="451" x="642" y="229.6094"/><rect fill="#FFFFFF" height="10" style="stroke:#000000;stroke-width:1;" width="15" x="1073" y="234.6094"/><rect fill="#FFFFFF" height="2" style="stroke:#000000;stroke-width:1;" width="4" x="1071" y="236.6094"/><rect fill="#FFFFFF" height="2" style="stroke:#000000;stroke-width:1;" width="4" x="1071" y="240.6094"/><text fill="#000000" font-family="Verdana" font-size="14" font-weight="bold" lengthAdjust="spacing" textLength="87.4043" x="823.7979" y="255.6045">Controllers</text></g><!--cluster Middleware--><g class="cluster" data-entity="Middleware" data-source-line="16" data-uid="ent0010" id="cluster_Middleware"><rect fill="#FFFFFF" height="113" rx="2.5" ry="2.5" style="stroke:#000000;stroke-width:1;" width="559" x="43" y="385.6094"/><rect fill="#FFFFFF" height="10" style="stroke:#000000;stroke-width:1;" width="15" x="582" y="390.6094"/><rect fill="#FFFFFF" height="2" style="stroke:#000000;stroke-width:1;" width="4" x="580" y="392.6094"/><rect fill="#FFFFFF" height="2" style="stroke:#000000;stroke-width:1;" width="4" x="580" y="396.6094"/><text fill="#000000" font-family="Verdana" font-size="14" font-weight="bold" lengthAdjust="spacing" textLength="91.8477" x="276.5762" y="411.6045">Middleware</text></g><!--cluster Business Logic Layer--><g class="cluster" data-entity="Business Logic Layer" data-source-line="23" data-uid="ent0014" id="cluster_Business Logic Layer"><path d="M1628.5,334.6094 L1794.6973,334.6094 A3.75,3.75 0 0 1 1797.1973,337.1094 L1804.1973,356.9063 L2406.5,356.9063 A2.5,2.5 0 0 1 2409,359.4063 L2409,748.1094 A2.5,2.5 0 0 1 2406.5,750.6094 L1628.5,750.6094 A2.5,2.5 0 0 1 1626,748.1094 L1626,337.1094 A2.5,2.5 0 0 1 1628.5,334.6094" fill="#FFFFFF" style="stroke:#000000;stroke-width:1;"/><line style="stroke:#000000;stroke-width:1;" x1="1626" x2="1804.1973" y1="356.9063" y2="356.9063"/><text fill="#000000" font-family="Verdana" font-size="14" font-weight="bold" lengthAdjust="spacing" textLength="165.1973" x="1630" y="349.6045">Business Logic Layer</text></g><!--cluster Services--><g class="cluster" data-entity="Services" data-source-line="24" data-uid="ent0015" id="cluster_Services"><rect fill="#FFFFFF" height="333" rx="2.5" ry="2.5" style="stroke:#000000;stroke-width:1;" width="393" x="1984" y="385.6094"/><rect fill="#FFFFFF" height="10" style="stroke:#000000;stroke-width:1;" width="15" x="2357" y="390.6094"/><rect fill="#FFFFFF" height="2" style="stroke:#000000;stroke-width:1;" width="4" x="2355" y="392.6094"/><rect fill="#FFFFFF" height="2" style="stroke:#000000;stroke-width:1;" width="4" x="2355" y="396.6094"/><text fill="#000000" font-family="Verdana" font-size="14" font-weight="bold" lengthAdjust="spacing" textLength="66.5342" x="2147.2329" y="411.6045">Services</text></g><!--cluster Background Services--><g class="cluster" data-entity="Background Services" data-source-line="31" data-uid="ent0020" id="cluster_Background Services"><rect fill="#FFFFFF" height="97" rx="2.5" ry="2.5" style="stroke:#000000;stroke-width:1;" width="302" x="1650" y="393.6094"/><rect fill="#FFFFFF" height="10" style="stroke:#000000;stroke-width:1;" width="15" x="1932" y="398.6094"/><rect fill="#FFFFFF" height="2" style="stroke:#000000;stroke-width:1;" width="4" x="1930" y="400.6094"/><rect fill="#FFFFFF" height="2" style="stroke:#000000;stroke-width:1;" width="4" x="1930" y="404.6094"/><text fill="#000000" font-family="Verdana" font-size="14" font-weight="bold" lengthAdjust="spacing" textLength="165.6348" x="1718.1826" y="419.6045">Background Services</text></g><!--cluster Data Access Layer--><g class="cluster" data-entity="Data Access Layer" data-source-line="36" data-uid="ent0022" id="cluster_Data Access Layer"><path d="M840.5,554.6094 L985.9434,554.6094 A3.75,3.75 0 0 1 988.4434,557.1094 L995.4434,576.9063 L1599.5,576.9063 A2.5,2.5 0 0 1 1602,579.4063 L1602,1011.1094 A2.5,2.5 0 0 1 1599.5,1013.6094 L840.5,1013.6094 A2.5,2.5 0 0 1 838,1011.1094 L838,557.1094 A2.5,2.5 0 0 1 840.5,554.6094" fill="#FFFFFF" style="stroke:#000000;stroke-width:1;"/><line style="stroke:#000000;stroke-width:1;" x1="838" x2="995.4434" y1="576.9063" y2="576.9063"/><text fill="#000000" font-family="Verdana" font-size="14" font-weight="bold" lengthAdjust="spacing" textLength="144.4434" x="842" y="569.6045">Data Access Layer</text></g><!--cluster Repositories--><g class="cluster" data-entity="Repositories" data-source-line="37" data-uid="ent0023" id="cluster_Repositories"><rect fill="#FFFFFF" height="274" rx="2.5" ry="2.5" style="stroke:#000000;stroke-width:1;" width="442" x="870" y="605.6094"/><rect fill="#FFFFFF" height="10" style="stroke:#000000;stroke-width:1;" width="15" x="1292" y="610.6094"/><rect fill="#FFFFFF" height="2" style="stroke:#000000;stroke-width:1;" width="4" x="1290" y="612.6094"/><rect fill="#FFFFFF" height="2" style="stroke:#000000;stroke-width:1;" width="4" x="1290" y="616.6094"/><text fill="#000000" font-family="Verdana" font-size="14" font-weight="bold" lengthAdjust="spacing" textLength="98.8887" x="1041.5557" y="631.6045">Repositories</text></g><!--cluster ORM--><g class="cluster" data-entity="ORM" data-source-line="43" data-uid="ent0027" id="cluster_ORM"><rect fill="#FFFFFF" height="215" rx="2.5" ry="2.5" style="stroke:#000000;stroke-width:1;" width="234" x="1344" y="774.6094"/><rect fill="#FFFFFF" height="10" style="stroke:#000000;stroke-width:1;" width="15" x="1558" y="779.6094"/><rect fill="#FFFFFF" height="2" style="stroke:#000000;stroke-width:1;" width="4" x="1556" y="781.6094"/><rect fill="#FFFFFF" height="2" style="stroke:#000000;stroke-width:1;" width="4" x="1556" y="785.6094"/><text fill="#000000" font-family="Verdana" font-size="14" font-weight="bold" lengthAdjust="spacing" textLength="36.6133" x="1442.6934" y="800.6045">ORM</text></g><!--cluster Domain Layer--><g class="cluster" data-entity="Domain Layer" data-source-line="49" data-uid="ent0030" id="cluster_Domain Layer"><path d="M68.5,554.6094 L178.3076,554.6094 A3.75,3.75 0 0 1 180.8076,557.1094 L187.8076,576.9063 L811.5,576.9063 A2.5,2.5 0 0 1 814,579.4063 L814,909.1094 A2.5,2.5 0 0 1 811.5,911.6094 L68.5,911.6094 A2.5,2.5 0 0 1 66,909.1094 L66,557.1094 A2.5,2.5 0 0 1 68.5,554.6094" fill="#FFFFFF" style="stroke:#000000;stroke-width:1;"/><line style="stroke:#000000;stroke-width:1;" x1="66" x2="187.8076" y1="576.9063" y2="576.9063"/><text fill="#000000" font-family="Verdana" font-size="14" font-weight="bold" lengthAdjust="spacing" textLength="108.8076" x="70" y="569.6045">Domain Layer</text></g><!--cluster Models--><g class="cluster" data-entity="Models" data-source-line="50" data-uid="ent0031" id="cluster_Models"><rect fill="#FFFFFF" height="274" rx="2.5" ry="2.5" style="stroke:#000000;stroke-width:1;" width="292" x="490" y="605.6094"/><rect fill="#FFFFFF" height="10" style="stroke:#000000;stroke-width:1;" width="15" x="762" y="610.6094"/><rect fill="#FFFFFF" height="2" style="stroke:#000000;stroke-width:1;" width="4" x="760" y="612.6094"/><rect fill="#FFFFFF" height="2" style="stroke:#000000;stroke-width:1;" width="4" x="760" y="616.6094"/><text fill="#000000" font-family="Verdana" font-size="14" font-weight="bold" lengthAdjust="spacing" textLength="56.1982" x="607.9009" y="631.6045">Models</text></g><!--cluster DTOs--><g class="cluster" data-entity="DTOs" data-source-line="57" data-uid="ent0036" id="cluster_DTOs"><rect fill="#FFFFFF" height="274" rx="2.5" ry="2.5" style="stroke:#000000;stroke-width:1;" width="352" x="98" y="605.6094"/><rect fill="#FFFFFF" height="10" style="stroke:#000000;stroke-width:1;" width="15" x="430" y="610.6094"/><rect fill="#FFFFFF" height="2" style="stroke:#000000;stroke-width:1;" width="4" x="428" y="612.6094"/><rect fill="#FFFFFF" height="2" style="stroke:#000000;stroke-width:1;" width="4" x="428" y="616.6094"/><text fill="#000000" font-family="Verdana" font-size="14" font-weight="bold" lengthAdjust="spacing" textLength="41.4053" x="253.2974" y="631.6045">DTOs</text></g><!--cluster Persistence--><g class="cluster" data-entity="Persistence" data-source-line="65" data-uid="ent0041" id="cluster_Persistence"><path d="M1362,1047.6094 C1362,1037.6094 1473,1037.6094 1473,1037.6094 C1473,1037.6094 1584,1037.6094 1584,1047.6094 L1584,1139.6094 C1584,1149.6094 1473,1149.6094 1473,1149.6094 C1473,1149.6094 1362,1149.6094 1362,1139.6094 L1362,1047.6094" fill="#FFFFFF" style="stroke:#000000;stroke-width:1;"/><path d="M1362,1047.6094 C1362,1057.6094 1473,1057.6094 1473,1057.6094 C1473,1057.6094 1584,1057.6094 1584,1047.6094" fill="none" style="stroke:#000000;stroke-width:1;"/><text fill="#000000" font-family="Verdana" font-size="14" font-weight="bold" lengthAdjust="spacing" textLength="92.0732" x="1426.9634" y="1072.6045">Persistence</text></g><!--entity Client--><g class="entity" data-entity="Client" data-source-line="5" data-uid="ent0003" id="entity_Client"><rect fill="#FFFFFF" height="46.2969" rx="2.5" ry="2.5" style="stroke:#000000;stroke-width:1;" width="129.1064" x="745.5" y="92.6094"/><rect fill="#FFFFFF" height="10" style="stroke:#000000;stroke-width:1;" width="15" x="854.6064" y="97.6094"/><rect fill="#FFFFFF" height="2" style="stroke:#000000;stroke-width:1;" width="4" x="852.6064" y="99.6094"/><rect fill="#FFFFFF" height="2" style="stroke:#000000;stroke-width:1;" width="4" x="852.6064" y="103.6094"/><text fill="#000000" font-family="Verdana" font-size="14" lengthAdjust="spacing" textLength="89.1064" x="760.5" y="125.6045">Browser/App</text></g><!--entity AuthController--><g class="entity" data-entity="AuthController" data-source-line="10" data-uid="ent0006" id="entity_AuthController"><rect fill="#FFFFFF" height="46.2969" rx="2.5" ry="2.5" style="stroke:#000000;stroke-width:1;" width="141.9854" x="688" y="272.6094"/><rect fill="#FFFFFF" height="10" style="stroke:#000000;stroke-width:1;" width="15" x="809.9854" y="277.6094"/><rect fill="#FFFFFF" height="2" style="stroke:#000000;stroke-width:1;" width="4" x="807.9854" y="279.6094"/><rect fill="#FFFFFF" height="2" style="stroke:#000000;stroke-width:1;" width="4" x="807.9854" y="283.6094"/><text fill="#000000" font-family="Verdana" font-size="14" lengthAdjust="spacing" textLength="101.9854" x="703" y="305.6045">AuthController</text></g><!--entity CuartosController--><g class="entity" data-entity="CuartosController" data-source-line="11" data-uid="ent0007" id="entity_CuartosController"><rect fill="#FFFFFF" height="46.2969" rx="2.5" ry="2.5" style="stroke:#000000;stroke-width:1;" width="163.5049" x="865" y="272.6094"/><rect fill="#FFFFFF" height="10" style="stroke:#000000;stroke-width:1;" width="15" x="1008.5049" y="277.6094"/><rect fill="#FFFFFF" height="2" style="stroke:#000000;stroke-width:1;" width="4" x="1006.5049" y="279.6094"/><rect fill="#FFFFFF" height="2" style="stroke:#000000;stroke-width:1;" width="4" x="1006.5049" y="283.6094"/><text fill="#000000" font-family="Verdana" font-size="14" lengthAdjust="spacing" textLength="123.5049" x="880" y="305.6045">CuartosController</text></g><!--entity HuespedesController--><g class="entity" data-entity="HuespedesController" data-source-line="12" data-uid="ent0008" id="entity_HuespedesController"><rect fill="#FFFFFF" height="46.2969" rx="2.5" ry="2.5" style="stroke:#000000;stroke-width:1;" width="186.7744" x="665.5" y="428.6094"/><rect fill="#FFFFFF" height="10" style="stroke:#000000;stroke-width:1;" width="15" x="832.2744" y="433.6094"/><rect fill="#FFFFFF" height="2" style="stroke:#000000;stroke-width:1;" width="4" x="830.2744" y="435.6094"/><rect fill="#FFFFFF" height="2" style="stroke:#000000;stroke-width:1;" width="4" x="830.2744" y="439.6094"/><text fill="#000000" font-family="Verdana" font-size="14" lengthAdjust="spacing" textLength="146.7744" x="680.5" y="461.6045">HuespedesController</text></g><!--entity ReservasController--><g class="entity" data-entity="ReservasController" data-source-line="13" data-uid="ent0009" id="entity_ReservasController"><rect fill="#FFFFFF" height="46.2969" rx="2.5" ry="2.5" style="stroke:#000000;stroke-width:1;" width="173.335" x="887.5" y="428.6094"/><rect fill="#FFFFFF" height="10" style="stroke:#000000;stroke-width:1;" width="15" x="1040.835" y="433.6094"/><rect fill="#FFFFFF" height="2" style="stroke:#000000;stroke-width:1;" width="4" x="1038.835" y="435.6094"/><rect fill="#FFFFFF" height="2" style="stroke:#000000;stroke-width:1;" width="4" x="1038.835" y="439.6094"/><text fill="#000000" font-family="Verdana" font-size="14" lengthAdjust="spacing" textLength="133.335" x="902.5" y="461.6045">ReservasController</text></g><!--entity JWT Authentication--><g class="entity" data-entity="JWT Authentication" data-source-line="17" data-uid="ent0011" id="entity_JWT Authentication"><rect fill="#FFFFFF" height="46.2969" rx="2.5" ry="2.5" style="stroke:#000000;stroke-width:1;" width="173.7451" x="385" y="428.6094"/><rect fill="#FFFFFF" height="10" style="stroke:#000000;stroke-width:1;" width="15" x="538.7451" y="433.6094"/><rect fill="#FFFFFF" height="2" style="stroke:#000000;stroke-width:1;" width="4" x="536.7451" y="435.6094"/><rect fill="#FFFFFF" height="2" style="stroke:#000000;stroke-width:1;" width="4" x="536.7451" y="439.6094"/><text fill="#000000" font-family="Verdana" font-size="14" lengthAdjust="spacing" textLength="133.7451" x="400" y="461.6045">JWT Authentication</text></g><!--entity Exception Handler--><g class="entity" data-entity="Exception Handler" data-source-line="18" data-uid="ent0012" id="entity_Exception Handler"><rect fill="#FFFFFF" height="46.2969" rx="2.5" ry="2.5" style="stroke:#000000;stroke-width:1;" width="168.7207" x="180.5" y="428.6094"/><rect fill="#FFFFFF" height="10" style="stroke:#000000;stroke-width:1;" width="15" x="329.2207" y="433.6094"/><rect fill="#FFFFFF" height="2" style="stroke:#000000;stroke-width:1;" width="4" x="327.2207" y="435.6094"/><rect fill="#FFFFFF" height="2" style="stroke:#000000;stroke-width:1;" width="4" x="327.2207" y="439.6094"/><text fill="#000000" font-family="Verdana" font-size="14" lengthAdjust="spacing" textLength="128.7207" x="195.5" y="461.6045">Exception Handler</text></g><!--entity CORS--><g class="entity" data-entity="CORS" data-source-line="19" data-uid="ent0013" id="entity_CORS"><rect fill="#FFFFFF" height="46.2969" rx="2.5" ry="2.5" style="stroke:#000000;stroke-width:1;" width="79.4092" x="66.5" y="428.6094"/><rect fill="#FFFFFF" height="10" style="stroke:#000000;stroke-width:1;" width="15" x="125.9092" y="433.6094"/><rect fill="#FFFFFF" height="2" style="stroke:#000000;stroke-width:1;" width="4" x="123.9092" y="435.6094"/><rect fill="#FFFFFF" height="2" style="stroke:#000000;stroke-width:1;" width="4" x="123.9092" y="439.6094"/><text fill="#000000" font-family="Verdana" font-size="14" lengthAdjust="spacing" textLength="39.4092" x="81.5" y="461.6045">CORS</text></g><!--entity AuthService--><g class="entity" data-entity="AuthService" data-source-line="25" data-uid="ent0016" id="entity_AuthService"><rect fill="#FFFFFF" height="46.2969" rx="2.5" ry="2.5" style="stroke:#000000;stroke-width:1;" width="124.5537" x="2030.5" y="428.6094"/><rect fill="#FFFFFF" height="10" style="stroke:#000000;stroke-width:1;" width="15" x="2135.0537" y="433.6094"/><rect fill="#FFFFFF" height="2" style="stroke:#000000;stroke-width:1;" width="4" x="2133.0537" y="435.6094"/><rect fill="#FFFFFF" height="2" style="stroke:#000000;stroke-width:1;" width="4" x="2133.0537" y="439.6094"/><text fill="#000000" font-family="Verdana" font-size="14" lengthAdjust="spacing" textLength="84.5537" x="2045.5" y="461.6045">AuthService</text></g><!--entity CuartoService--><g class="entity" data-entity="CuartoService" data-source-line="26" data-uid="ent0017" id="entity_CuartoService"><rect fill="#FFFFFF" height="46.2969" rx="2.5" ry="2.5" style="stroke:#000000;stroke-width:1;" width="138.7793" x="2190.5" y="428.6094"/><rect fill="#FFFFFF" height="10" style="stroke:#000000;stroke-width:1;" width="15" x="2309.2793" y="433.6094"/><rect fill="#FFFFFF" height="2" style="stroke:#000000;stroke-width:1;" width="4" x="2307.2793" y="435.6094"/><rect fill="#FFFFFF" height="2" style="stroke:#000000;stroke-width:1;" width="4" x="2307.2793" y="439.6094"/><text fill="#000000" font-family="Verdana" font-size="14" lengthAdjust="spacing" textLength="98.7793" x="2205.5" y="461.6045">CuartoService</text></g><!--entity HuespedService--><g class="entity" data-entity="HuespedService" data-source-line="27" data-uid="ent0018" id="entity_HuespedService"><rect fill="#FFFFFF" height="46.2969" rx="2.5" ry="2.5" style="stroke:#000000;stroke-width:1;" width="153.4355" x="2016.5" y="648.6094"/><rect fill="#FFFFFF" height="10" style="stroke:#000000;stroke-width:1;" width="15" x="2149.9355" y="653.6094"/><rect fill="#FFFFFF" height="2" style="stroke:#000000;stroke-width:1;" width="4" x="2147.9355" y="655.6094"/><rect fill="#FFFFFF" height="2" style="stroke:#000000;stroke-width:1;" width="4" x="2147.9355" y="659.6094"/><text fill="#000000" font-family="Verdana" font-size="14" lengthAdjust="spacing" textLength="113.4355" x="2031.5" y="681.6045">HuespedService</text></g><!--entity ReservaService--><g class="entity" data-entity="ReservaService" data-source-line="28" data-uid="ent0019" id="entity_ReservaService"><rect fill="#FFFFFF" height="46.2969" rx="2.5" ry="2.5" style="stroke:#000000;stroke-width:1;" width="148.6094" x="2204.5" y="648.6094"/><rect fill="#FFFFFF" height="10" style="stroke:#000000;stroke-width:1;" width="15" x="2333.1094" y="653.6094"/><rect fill="#FFFFFF" height="2" style="stroke:#000000;stroke-width:1;" width="4" x="2331.1094" y="655.6094"/><rect fill="#FFFFFF" height="2" style="stroke:#000000;stroke-width:1;" width="4" x="2331.1094" y="659.6094"/><text fill="#000000" font-family="Verdana" font-size="14" lengthAdjust="spacing" textLength="108.6094" x="2219.5" y="681.6045">ReservaService</text></g><!--entity CuartoEstadoBackgroundService--><g class="entity" data-entity="CuartoEstadoBackgroundService" data-source-line="32" data-uid="ent0021" id="entity_CuartoEstadoBackgroundService"><rect fill="#FFFFFF" height="46.2969" rx="2.5" ry="2.5" style="stroke:#000000;stroke-width:1;" width="270.2686" x="1666" y="428.6094"/><rect fill="#FFFFFF" height="10" style="stroke:#000000;stroke-width:1;" width="15" x="1916.2686" y="433.6094"/><rect fill="#FFFFFF" height="2" style="stroke:#000000;stroke-width:1;" width="4" x="1914.2686" y="435.6094"/><rect fill="#FFFFFF" height="2" style="stroke:#000000;stroke-width:1;" width="4" x="1914.2686" y="439.6094"/><text fill="#000000" font-family="Verdana" font-size="14" lengthAdjust="spacing" textLength="230.2686" x="1681" y="461.6045">CuartoEstadoBackgroundService</text></g><!--entity CuartoRepository--><g class="entity" data-entity="CuartoRepository" data-source-line="38" data-uid="ent0024" id="entity_CuartoRepository"><rect fill="#FFFFFF" height="46.2969" rx="2.5" ry="2.5" style="stroke:#000000;stroke-width:1;" width="162.1104" x="894" y="648.6094"/><rect fill="#FFFFFF" height="10" style="stroke:#000000;stroke-width:1;" width="15" x="1036.1104" y="653.6094"/><rect fill="#FFFFFF" height="2" style="stroke:#000000;stroke-width:1;" width="4" x="1034.1104" y="655.6094"/><rect fill="#FFFFFF" height="2" style="stroke:#000000;stroke-width:1;" width="4" x="1034.1104" y="659.6094"/><text fill="#000000" font-family="Verdana" font-size="14" lengthAdjust="spacing" textLength="122.1104" x="909" y="681.6045">CuartoRepository</text></g><!--entity HuespedRepository--><g class="entity" data-entity="HuespedRepository" data-source-line="39" data-uid="ent0025" id="entity_HuespedRepository"><rect fill="#FFFFFF" height="46.2969" rx="2.5" ry="2.5" style="stroke:#000000;stroke-width:1;" width="176.7666" x="1091.5" y="648.6094"/><rect fill="#FFFFFF" height="10" style="stroke:#000000;stroke-width:1;" width="15" x="1248.2666" y="653.6094"/><rect fill="#FFFFFF" height="2" style="stroke:#000000;stroke-width:1;" width="4" x="1246.2666" y="655.6094"/><rect fill="#FFFFFF" height="2" style="stroke:#000000;stroke-width:1;" width="4" x="1246.2666" y="659.6094"/><text fill="#000000" font-family="Verdana" font-size="14" lengthAdjust="spacing" textLength="136.7666" x="1106.5" y="681.6045">HuespedRepository</text></g><!--entity ReservaRepository--><g class="entity" data-entity="ReservaRepository" data-source-line="40" data-uid="ent0026" id="entity_ReservaRepository"><rect fill="#FFFFFF" height="46.2969" rx="2.5" ry="2.5" style="stroke:#000000;stroke-width:1;" width="171.9404" x="894" y="809.6094"/><rect fill="#FFFFFF" height="10" style="stroke:#000000;stroke-width:1;" width="15" x="1045.9404" y="814.6094"/><rect fill="#FFFFFF" height="2" style="stroke:#000000;stroke-width:1;" width="4" x="1043.9404" y="816.6094"/><rect fill="#FFFFFF" height="2" style="stroke:#000000;stroke-width:1;" width="4" x="1043.9404" y="820.6094"/><text fill="#000000" font-family="Verdana" font-size="14" lengthAdjust="spacing" textLength="131.9404" x="909" y="842.6045">ReservaRepository</text></g><!--entity Entity Framework Core--><g class="entity" data-entity="Entity Framework Core" data-source-line="44" data-uid="ent0028" id="entity_Entity Framework Core"><rect fill="#FFFFFF" height="46.2969" rx="2.5" ry="2.5" style="stroke:#000000;stroke-width:1;" width="201" x="1360.5" y="809.6094"/><rect fill="#FFFFFF" height="10" style="stroke:#000000;stroke-width:1;" width="15" x="1541.5" y="814.6094"/><rect fill="#FFFFFF" height="2" style="stroke:#000000;stroke-width:1;" width="4" x="1539.5" y="816.6094"/><rect fill="#FFFFFF" height="2" style="stroke:#000000;stroke-width:1;" width="4" x="1539.5" y="820.6094"/><text fill="#000000" font-family="Verdana" font-size="14" lengthAdjust="spacing" textLength="161" x="1375.5" y="842.6045">Entity Framework Core</text></g><!--entity HotelDbContext--><g class="entity" data-entity="HotelDbContext" data-source-line="45" data-uid="ent0029" id="entity_HotelDbContext"><rect fill="#FFFFFF" height="46.2969" rx="2.5" ry="2.5" style="stroke:#000000;stroke-width:1;" width="151.8428" x="1397" y="927.6094"/><rect fill="#FFFFFF" height="10" style="stroke:#000000;stroke-width:1;" width="15" x="1528.8428" y="932.6094"/><rect fill="#FFFFFF" height="2" style="stroke:#000000;stroke-width:1;" width="4" x="1526.8428" y="934.6094"/><rect fill="#FFFFFF" height="2" style="stroke:#000000;stroke-width:1;" width="4" x="1526.8428" y="938.6094"/><text fill="#000000" font-family="Verdana" font-size="14" lengthAdjust="spacing" textLength="111.8428" x="1412" y="960.6045">HotelDbContext</text></g><!--entity Cuarto--><g class="entity" data-entity="Cuarto" data-source-line="51" data-uid="ent0032" id="entity_Cuarto"><rect fill="#FFFFFF" height="46.2969" rx="2.5" ry="2.5" style="stroke:#000000;stroke-width:1;" width="87.0381" x="533.5" y="648.6094"/><rect fill="#FFFFFF" height="10" style="stroke:#000000;stroke-width:1;" width="15" x="600.5381" y="653.6094"/><rect fill="#FFFFFF" height="2" style="stroke:#000000;stroke-width:1;" width="4" x="598.5381" y="655.6094"/><rect fill="#FFFFFF" height="2" style="stroke:#000000;stroke-width:1;" width="4" x="598.5381" y="659.6094"/><text fill="#000000" font-family="Verdana" font-size="14" lengthAdjust="spacing" textLength="47.0381" x="548.5" y="681.6045">Cuarto</text></g><!--entity Huesped--><g class="entity" data-entity="Huesped" data-source-line="52" data-uid="ent0033" id="entity_Huesped"><rect fill="#FFFFFF" height="46.2969" rx="2.5" ry="2.5" style="stroke:#000000;stroke-width:1;" width="101.6943" x="656" y="648.6094"/><rect fill="#FFFFFF" height="10" style="stroke:#000000;stroke-width:1;" width="15" x="737.6943" y="653.6094"/><rect fill="#FFFFFF" height="2" style="stroke:#000000;stroke-width:1;" width="4" x="735.6943" y="655.6094"/><rect fill="#FFFFFF" height="2" style="stroke:#000000;stroke-width:1;" width="4" x="735.6943" y="659.6094"/><text fill="#000000" font-family="Verdana" font-size="14" lengthAdjust="spacing" textLength="61.6943" x="671" y="681.6045">Huesped</text></g><!--entity Reserva--><g class="entity" data-entity="Reserva" data-source-line="53" data-uid="ent0034" id="entity_Reserva"><rect fill="#FFFFFF" height="46.2969" rx="2.5" ry="2.5" style="stroke:#000000;stroke-width:1;" width="96.8682" x="532.5" y="809.6094"/><rect fill="#FFFFFF" height="10" style="stroke:#000000;stroke-width:1;" width="15" x="609.3682" y="814.6094"/><rect fill="#FFFFFF" height="2" style="stroke:#000000;stroke-width:1;" width="4" x="607.3682" y="816.6094"/><rect fill="#FFFFFF" height="2" style="stroke:#000000;stroke-width:1;" width="4" x="607.3682" y="820.6094"/><text fill="#000000" font-family="Verdana" font-size="14" lengthAdjust="spacing" textLength="56.8682" x="547.5" y="842.6045">Reserva</text></g><!--entity Usuario--><g class="entity" data-entity="Usuario" data-source-line="54" data-uid="ent0035" id="entity_Usuario"><rect fill="#FFFFFF" height="46.2969" rx="2.5" ry="2.5" style="stroke:#000000;stroke-width:1;" width="93.2041" x="664.5" y="809.6094"/><rect fill="#FFFFFF" height="10" style="stroke:#000000;stroke-width:1;" width="15" x="737.7041" y="814.6094"/><rect fill="#FFFFFF" height="2" style="stroke:#000000;stroke-width:1;" width="4" x="735.7041" y="816.6094"/><rect fill="#FFFFFF" height="2" style="stroke:#000000;stroke-width:1;" width="4" x="735.7041" y="820.6094"/><text fill="#000000" font-family="Verdana" font-size="14" lengthAdjust="spacing" textLength="53.2041" x="679.5" y="842.6045">Usuario</text></g><!--entity CuartoDTO--><g class="entity" data-entity="CuartoDTO" data-source-line="58" data-uid="ent0037" id="entity_CuartoDTO"><rect fill="#FFFFFF" height="46.2969" rx="2.5" ry="2.5" style="stroke:#000000;stroke-width:1;" width="117.3896" x="141.5" y="648.6094"/><rect fill="#FFFFFF" height="10" style="stroke:#000000;stroke-width:1;" width="15" x="238.8896" y="653.6094"/><rect fill="#FFFFFF" height="2" style="stroke:#000000;stroke-width:1;" width="4" x="236.8896" y="655.6094"/><rect fill="#FFFFFF" height="2" style="stroke:#000000;stroke-width:1;" width="4" x="236.8896" y="659.6094"/><text fill="#000000" font-family="Verdana" font-size="14" lengthAdjust="spacing" textLength="77.3896" x="156.5" y="681.6045">CuartoDTO</text></g><!--entity HuespedDTO--><g class="entity" data-entity="HuespedDTO" data-source-line="59" data-uid="ent0038" id="entity_HuespedDTO"><rect fill="#FFFFFF" height="46.2969" rx="2.5" ry="2.5" style="stroke:#000000;stroke-width:1;" width="132.0459" x="294" y="648.6094"/><rect fill="#FFFFFF" height="10" style="stroke:#000000;stroke-width:1;" width="15" x="406.0459" y="653.6094"/><rect fill="#FFFFFF" height="2" style="stroke:#000000;stroke-width:1;" width="4" x="404.0459" y="655.6094"/><rect fill="#FFFFFF" height="2" style="stroke:#000000;stroke-width:1;" width="4" x="404.0459" y="659.6094"/><text fill="#000000" font-family="Verdana" font-size="14" lengthAdjust="spacing" textLength="92.0459" x="309" y="681.6045">HuespedDTO</text></g><!--entity ReservaDTO--><g class="entity" data-entity="ReservaDTO" data-source-line="60" data-uid="ent0039" id="entity_ReservaDTO"><rect fill="#FFFFFF" height="46.2969" rx="2.5" ry="2.5" style="stroke:#000000;stroke-width:1;" width="127.2197" x="141.5" y="809.6094"/><rect fill="#FFFFFF" height="10" style="stroke:#000000;stroke-width:1;" width="15" x="248.7197" y="814.6094"/><rect fill="#FFFFFF" height="2" style="stroke:#000000;stroke-width:1;" width="4" x="246.7197" y="816.6094"/><rect fill="#FFFFFF" height="2" style="stroke:#000000;stroke-width:1;" width="4" x="246.7197" y="820.6094"/><text fill="#000000" font-family="Verdana" font-size="14" lengthAdjust="spacing" textLength="87.2197" x="156.5" y="842.6045">ReservaDTO</text></g><!--entity LoginDTO--><g class="entity" data-entity="LoginDTO" data-source-line="61" data-uid="ent0040" id="entity_LoginDTO"><rect fill="#FFFFFF" height="46.2969" rx="2.5" ry="2.5" style="stroke:#000000;stroke-width:1;" width="108.3662" x="304" y="809.6094"/><rect fill="#FFFFFF" height="10" style="stroke:#000000;stroke-width:1;" width="15" x="392.3662" y="814.6094"/><rect fill="#FFFFFF" height="2" style="stroke:#000000;stroke-width:1;" width="4" x="390.3662" y="816.6094"/><rect fill="#FFFFFF" height="2" style="stroke:#000000;stroke-width:1;" width="4" x="390.3662" y="820.6094"/><text fill="#000000" font-family="Verdana" font-size="14" lengthAdjust="spacing" textLength="68.3662" x="319" y="842.6045">LoginDTO</text></g><!--entity SQL Server Database--><g class="entity" data-entity="SQL Server Database" data-source-line="66" data-uid="ent0042" id="entity_SQL Server Database"><rect fill="#FFFFFF" height="46.2969" rx="2.5" ry="2.5" style="stroke:#000000;stroke-width:1;" width="189.3174" x="1378.5" y="1087.6094"/><rect fill="#FFFFFF" height="10" style="stroke:#000000;stroke-width:1;" width="15" x="1547.8174" y="1092.6094"/><rect fill="#FFFFFF" height="2" style="stroke:#000000;stroke-width:1;" width="4" x="1545.8174" y="1094.6094"/><rect fill="#FFFFFF" height="2" style="stroke:#000000;stroke-width:1;" width="4" x="1545.8174" y="1098.6094"/><text fill="#000000" font-family="Verdana" font-size="14" lengthAdjust="spacing" textLength="149.3174" x="1393.5" y="1120.6045">SQL Server Database</text></g><!--link Client to JWT Authentication--><g class="link" data-entity-1="Client" data-entity-2="JWT Authentication" data-source-line="69" data-uid="lnk43" id="link_Client_JWT Authentication"><path d="M745.16,127.9594 C713.96,135.8994 677.45,149.0794 650,170.6094 C558.21,242.5894 502.4127,370.2888 482.2027,422.8688" fill="none" id="Client-to-JWT Authentication" style="stroke:#000000;stroke-width:1;"/><polygon fill="#000000" points="480.05,428.4694,487.0127,421.5037,481.8439,423.8023,479.5453,418.6335,480.05,428.4694" style="stroke:#000000;stroke-width:1;"/></g><!--link Client to Controllers--><g class="link" data-entity-1="Client" data-entity-2="Controllers" data-source-line="70" data-uid="lnk44" id="link_Client_Controllers"><path d="M874.64,120.8394 C945,126.9094 1050.99,140.8194 1077,170.6094 C1094.88,191.0844 1097.0975,221.4419 1094.7388,246.9944 C1094.4439,250.1884 1094.0776,253.3074 1093.6614,256.3226 C1093.4533,257.8303 1094.1726,253.386 1093.9423,254.8381" fill="none" id="Client-to-Controllers" style="stroke:#000000;stroke-width:1;"/><polygon fill="#000000" points="1093.0024,260.7641,1098.3628,252.5018,1093.7856,255.8258,1090.4616,251.2486,1093.0024,260.7641" style="stroke:#000000;stroke-width:1;"/></g><!--link Controllers to Middleware--><g class="link" data-entity-1="Controllers" data-entity-2="Middleware" data-source-line="71" data-uid="lnk45" id="link_Controllers_Middleware"><path d="M641.705,332.9113 C641.5303,333.0628 641.3562,333.215 641.1828,333.368 C638.4078,335.8154 635.7939,338.4457 633.3318,341.2245 C628.4077,346.7822 624.0909,352.9338 620.3081,359.4031 C612.7425,372.3419 607.3125,386.5519 603.43,399.8244 C602.9447,401.4834 604.045,397.3346 603.6069,398.96" fill="none" id="Controllers-to-Middleware" style="stroke:#000000;stroke-width:1;"/><polygon fill="#000000" points="602.0455,404.7533,608.2498,397.1044,603.3467,399.9256,600.5254,395.0224,602.0455,404.7533" style="stroke:#000000;stroke-width:1;"/></g><!--link Controllers to Services--><g class="link" data-entity-1="Controllers" data-entity-2="Services" data-source-line="72" data-uid="lnk46" id="link_Controllers_Services"><path d="M1093.099,296.6248 C1093.4515,296.6256 1093.8151,296.6264 1094.1896,296.6273 C1094.9386,296.6291 1095.7313,296.631 1096.567,296.6331 C1103.2528,296.6498 1112.6901,296.6774 1124.4929,296.7225 C1148.0986,296.8127 1181.1662,296.9726 1220.608,297.2539 C1299.4916,297.8166 1403.8719,298.865 1509.0462,300.8131 C1719.395,304.7094 1932.92,312.2044 1952,326.6094 C1963.3725,335.1969 1971.57,347.0675 1977.4664,360.0853 C1980.4146,366.5942 1982.7875,373.3899 1984.6944,380.2054 C1985.1712,381.9093 1984.1808,377.7893 1984.601,379.4914" fill="none" id="Controllers-to-Services" style="stroke:#000000;stroke-width:1;"/><polygon fill="#000000" points="1986.0389,385.3166,1987.7655,375.6203,1984.8407,380.4623,1979.9986,377.5375,1986.0389,385.3166" style="stroke:#000000;stroke-width:1;"/></g><!--link Services to Repositories--><g class="link" data-entity-1="Services" data-entity-2="Repositories" data-source-line="73" data-uid="lnk47" id="link_Services_Repositories"><path d="M1983.991,487.0942 C1983.9444,487.2355 1983.8976,487.3771 1983.8505,487.5188 C1983.7563,487.8022 1983.6611,488.0863 1983.565,488.3711 C1983.3726,488.9406 1983.1762,489.5127 1982.9758,490.087 C1982.5749,491.2357 1982.1576,492.3933 1981.7234,493.5571 C1980.855,495.8847 1979.9189,498.2371 1978.9107,500.5926 C1976.8942,505.3036 1974.5891,510.0268 1971.9594,514.5877 C1966.7,523.7094 1960.1425,532.1819 1952,538.6094 C1894.775,583.7794 1734.85,616.6194 1588.2063,638.2456 C1514.8844,649.0588 1444.8828,657.0684 1392.6992,662.4142 C1366.6074,665.0871 1344.9701,667.094 1329.5995,668.4524 C1325.7569,668.792 1322.3059,669.0911 1319.2749,669.3499 C1317.7594,669.4793 1316.3489,669.5986 1315.0469,669.7079 C1314.3959,669.7625 1313.7721,669.8147 1313.1758,669.8643 C1312.8777,669.8892 1318.5659,669.4176 1318.2816,669.4412" fill="none" id="Services-to-Repositories" style="stroke:#000000;stroke-width:1;"/><polygon fill="#000000" points="1312.3021,669.9369,1321.6018,673.1797,1317.285,669.5238,1320.9409,665.207,1312.3021,669.9369" style="stroke:#000000;stroke-width:1;"/></g><!--link Repositories to Entity Framework Core--><g class="link" data-entity-1="Repositories" data-entity-2="Entity Framework Core" data-source-line="74" data-uid="lnk48" id="link_Repositories_Entity Framework Core"><path d="M1312.2162,680.9324 C1312.4359,681.1549 1312.6595,681.3812 1312.8869,681.6115 C1313.3418,682.072 1313.812,682.548 1314.297,683.039 C1316.2369,685.0031 1318.4139,687.2073 1320.7956,689.6189 C1330.3225,699.2653 1343.125,712.23 1357.135,726.4181 C1385.155,754.7944 1413.7894,783.7949 1434.9244,805.1999" fill="none" id="Repositories-to-Entity Framework Core" style="stroke:#000000;stroke-width:1;"/><polygon fill="#000000" points="1439.14,809.4694,1435.6629,800.2547,1435.627,805.9115,1429.9702,805.8756,1439.14,809.4694" style="stroke:#000000;stroke-width:1;"/></g><!--link Entity Framework Core to HotelDbContext--><g class="link" data-entity-1="Entity Framework Core" data-entity-2="HotelDbContext" data-source-line="75" data-uid="lnk49" id="link_Entity Framework Core_HotelDbContext"><path d="M1463.29,855.6994 C1465.42,876.3394 1467.9732,901.0212 1470.1032,921.6312" fill="none" id="Entity Framework Core-to-HotelDbContext" style="stroke:#000000;stroke-width:1;"/><polygon fill="#000000" points="1470.72,927.5994,1473.7736,918.2359,1470.206,922.6259,1465.816,919.0583,1470.72,927.5994" style="stroke:#000000;stroke-width:1;"/></g><!--link HotelDbContext to SQL Server Database--><g class="link" data-entity-1="HotelDbContext" data-entity-2="SQL Server Database" data-source-line="76" data-uid="lnk50" id="link_HotelDbContext_SQL Server Database"><path d="M1473,973.9094 C1473,1004.0294 1473,1051.3694 1473,1081.4194" fill="none" id="HotelDbContext-to-SQL Server Database" style="stroke:#000000;stroke-width:1;"/><polygon fill="#000000" points="1473,1087.4194,1477,1078.4194,1473,1082.4194,1469,1078.4194,1473,1087.4194" style="stroke:#000000;stroke-width:1;"/></g><!--link CuartoEstadoBackgroundService to HotelDbContext--><g class="link" data-entity-1="CuartoEstadoBackgroundService" data-entity-2="HotelDbContext" data-source-line="78" data-uid="lnk51" id="link_CuartoEstadoBackgroundService_HotelDbContext"><path d="M1797.14,474.8594 C1782.94,549.7494 1726.61,794.9194 1579,919.6094 C1570.31,926.9494 1565.5227,930.3264 1554.7127,934.5264" fill="none" id="CuartoEstadoBackgroundService-to-HotelDbContext" style="stroke:#000000;stroke-width:1;"/><polygon fill="#000000" points="1549.12,936.6994,1558.9577,937.1685,1553.7806,934.8886,1556.0604,929.7115,1549.12,936.6994" style="stroke:#000000;stroke-width:1;"/></g><!--link Services to Models--><g class="link" data-entity-1="Services" data-entity-2="Models" data-source-line="80" data-uid="lnk52" id="link_Services_Models"><path d="M1983.934,491.4363 C1983.5483,492.6062 1983.1448,493.783 1982.7228,494.9639 C1981.8788,497.3256 1980.9607,499.7031 1979.9624,502.0724 C1977.9658,506.8109 1975.6484,511.5163 1972.9608,515.9955 C1967.5856,524.9538 1960.73,533.0069 1952,538.6094 C1935.23,549.3694 532.09,533.5894 517,546.6094 C506.615,555.5744 500.1906,567.6369 496.4064,580.7294 C494.5143,587.2756 493.2822,594.0794 492.5451,600.8822 C492.453,601.7325 492.3686,602.5829 492.2916,603.4327 C492.2531,603.8576 492.2165,604.2824 492.1816,604.707 C492.1642,604.9193 492.6128,599.1496 492.5963,599.3618" fill="none" id="Services-to-Models" style="stroke:#000000;stroke-width:1;stroke-dasharray:7,7;"/><polygon fill="#000000" points="492.1308,605.3437,496.817,596.6812,492.5187,600.3588,488.8411,596.0605,492.1308,605.3437" style="stroke:#000000;stroke-width:1;"/></g><!--link Services to DTOs--><g class="link" data-entity-1="Services" data-entity-2="DTOs" data-source-line="81" data-uid="lnk53" id="link_Services_DTOs"><path d="M1983.9419,491.4442 C1983.5563,492.6142 1983.153,493.7912 1982.7311,494.9722 C1981.8873,497.3341 1980.9694,499.7118 1979.9712,502.0812 C1977.9748,506.8199 1975.6573,511.5252 1972.9692,516.0039 C1967.5931,524.9613 1960.735,533.0119 1952,538.6094 C1930.64,552.2994 144.22,530.0394 125,546.6094 C114.6075,555.5694 108.1794,567.6294 104.3938,580.7209 C102.5009,587.2667 101.2688,594.0704 100.532,600.8734 C100.4399,601.7238 100.3555,602.5741 100.2786,603.424 C100.2401,603.8489 100.2035,604.2737 100.1687,604.6983 C100.1513,604.9106 100.5994,599.1409 100.5829,599.3531" fill="none" id="Services-to-DTOs" style="stroke:#000000;stroke-width:1;stroke-dasharray:7,7;"/><polygon fill="#000000" points="100.1178,605.3351,104.8035,596.6722,100.5054,600.3501,96.8275,596.0521,100.1178,605.3351" style="stroke:#000000;stroke-width:1;"/></g><!--link Controllers to DTOs--><g class="link" data-entity-1="Controllers" data-entity-2="DTOs" data-source-line="82" data-uid="lnk54" id="link_Controllers_DTOs"><path d="M1093.1608,319.3972 C1093.2387,319.6373 1093.3169,319.879 1093.3954,320.1224 C1094.0233,322.0689 1094.6694,324.1168 1095.3277,326.2586 C1100.5934,343.3928 1106.6306,366.5338 1110.2337,391.8281 C1117.44,442.4169 1114.91,501.6194 1077,538.6094 C1058.07,557.0794 144.99,529.2994 125,546.6094 C114.6275,555.5894 108.2094,567.6594 104.4275,580.7547 C102.5366,587.3023 101.3047,594.1063 100.5671,600.9086 C100.4749,601.7588 100.3904,602.6091 100.3134,603.4588 C100.2748,603.8837 100.2381,604.3084 100.2033,604.7329 C100.1858,604.9452 100.6351,599.1755 100.6186,599.3877" fill="none" id="Controllers-to-DTOs" style="stroke:#000000;stroke-width:1;stroke-dasharray:7,7;"/><polygon fill="#000000" points="100.1523,605.3696,104.8396,596.7076,100.5409,600.3847,96.8638,596.0859,100.1523,605.3696" style="stroke:#000000;stroke-width:1;"/></g><!--SRC=[XLHDSzem4BtxLsnpX_w3pfYFDib0ePYsXmu7HTuXcXZ9bUGIffF_thLiOzaI3GT6Va-htVUqgm_s6Ky8PS64JAom1KAgVrV28hULPl059MfMG8u5PC9OF36Om0zQCS9WpafcagHa_8KT4UxcXK1fyGx-9a2_NpEjpWRrnxGi3y0CD7poveMasmTOiGjgEZVDjjEloptCbRwUmTMfL9AYw7GbhLP5WTfqhCkILlQvvmuzCQ-Ojif4kViAJOavnjaTKjb_M42-kVznOMkHvmMUML-rE-JnvnxgscYFuCmA9RqCorUEPOt1FPFvgExDBklo-LxDAYCa6WChTHIyiItYKqQb2uwXIIqHE1JYhJiXqHep8EAcpAZgerQLp25QK9DwIPsKgtxlw61V_O9HqwMSEmDkIDzXgOomIejejYjz2RL6kLRkc8ihtkpMWvnBkdTxWS-QdV2iz8lhQp-nibWidkeUmrSRbQnED9WtrQuLpMLCPwWkrEGXtmr52VK_ROlz9fQ8u33N46pJ3S6wWUKLSg9pkjudPaZrbWQyVciaxr-IxDlAjH6z4ujsuw6EQbuKc4m-nUVDuxtd8_7MZkidEA2wvaswXKFzHalyZwQK6rT_0szYnkqm1ffTKIEITwOfdg1ND9sI1QwPXbXzwmD3El0V]--></g></svg>