<svg xmlns="http://www.w3.org/2000/svg" xmlns:xlink="http://www.w3.org/1999/xlink" contentStyleType="text/css" data-diagram-type="SEQUENCE" height="733px" preserveAspectRatio="none" style="width:1081px;height:733px;background:#FFFFFF;" version="1.1" viewBox="0 0 1081 733" width="1081px" zoomAndPan="magnify"><defs/><g><g><title>ReservasController</title><rect fill="#FFFFFF" height="521.2578" style="stroke:#000000;stroke-width:1;" width="10" x="237.5161" y="113.4297"/></g><g><title>CuartoService</title><rect fill="#FFFFFF" height="462.9922" style="stroke:#000000;stroke-width:1;" width="10" x="442.4985" y="142.5625"/></g><g><title>CuartoRepository</title><rect fill="#FFFFFF" height="145.6641" style="stroke:#000000;stroke-width:1;" width="10" x="632.3164" y="171.6953"/></g><g><title>CuartoRepository</title><rect fill="#FFFFFF" height="145.6641" style="stroke:#000000;stroke-width:1;" width="10" x="632.3164" y="430.7578"/></g><g><title>HotelDbContext</title><rect fill="#FFFFFF" height="87.3984" style="stroke:#000000;stroke-width:1;" width="10" x="848.4326" y="200.8281"/></g><g><title>HotelDbContext</title><rect fill="#FFFFFF" height="87.3984" style="stroke:#000000;stroke-width:1;" width="10" x="848.4326" y="459.8906"/></g><g><title>Cliente</title><rect fill="#000000" fill-opacity="0.00000" height="570.3906" width="8" x="33.5718" y="82.2969"/><line style="stroke:#000000;stroke-width:1;stroke-dasharray:5,5;" x1="37" x2="37" y1="82.2969" y2="652.6875"/></g><g><title>ReservasController</title><rect fill="#000000" fill-opacity="0.00000" height="570.3906" width="8" x="238.5161" y="82.2969"/><line style="stroke:#000000;stroke-width:1;stroke-dasharray:5,5;" x1="241.8486" x2="241.8486" y1="82.2969" y2="652.6875"/></g><g><title>CuartoService</title><rect fill="#000000" fill-opacity="0.00000" height="570.3906" width="8" x="443.4985" y="82.2969"/><line style="stroke:#000000;stroke-width:1;stroke-dasharray:5,5;" x1="447.1089" x2="447.1089" y1="82.2969" y2="652.6875"/></g><g><title>CuartoRepository</title><rect fill="#000000" fill-opacity="0.00000" height="570.3906" width="8" x="633.3164" y="82.2969"/><line style="stroke:#000000;stroke-width:1;stroke-dasharray:5,5;" x1="637.2612" x2="637.2612" y1="82.2969" y2="652.6875"/></g><g><title>HotelDbContext</title><rect fill="#000000" fill-opacity="0.00000" height="570.3906" width="8" x="849.4326" y="82.2969"/><line style="stroke:#000000;stroke-width:1;stroke-dasharray:5,5;" x1="852.5112" x2="852.5112" y1="82.2969" y2="652.6875"/></g><g><title>SQL Server</title><rect fill="#000000" fill-opacity="0.00000" height="570.3906" width="8" x="1034.6802" y="82.2969"/><line style="stroke:#000000;stroke-width:1;stroke-dasharray:5,5;" x1="1038.647" x2="1038.647" y1="82.2969" y2="652.6875"/></g><g class="participant participant-head" data-participant="Cliente"><text fill="#000000" font-family="Verdana" font-size="14" lengthAdjust="spacing" textLength="49.1436" x="10" y="78.9951">Cliente</text><ellipse cx="37.5718" cy="14" fill="#FFFFFF" rx="8" ry="8" style="stroke:#000000;stroke-width:1;"/><path d="M37.5718,22 L37.5718,49 M24.5718,30 L50.5718,30 M37.5718,49 L24.5718,64 M37.5718,49 L50.5718,64" fill="none" style="stroke:#000000;stroke-width:1;"/></g><g class="participant participant-tail" data-participant="Cliente"><text fill="#000000" font-family="Verdana" font-size="14" lengthAdjust="spacing" textLength="49.1436" x="10" y="664.6826">Cliente</text><ellipse cx="37.5718" cy="676.9844" fill="#FFFFFF" rx="8" ry="8" style="stroke:#000000;stroke-width:1;"/><path d="M37.5718,684.9844 L37.5718,711.9844 M24.5718,692.9844 L50.5718,692.9844 M37.5718,711.9844 L24.5718,726.9844 M37.5718,711.9844 L50.5718,726.9844" fill="none" style="stroke:#000000;stroke-width:1;"/></g><g class="participant participant-head" data-participant="Controller"><rect fill="#FFFFFF" height="30.2969" rx="2.5" ry="2.5" style="stroke:#000000;stroke-width:1;" width="147.335" x="168.8486" y="51"/><text fill="#000000" font-family="Verdana" font-size="14" lengthAdjust="spacing" textLength="133.335" x="175.8486" y="70.9951">ReservasController</text></g><g class="participant participant-tail" data-participant="Controller"><rect fill="#FFFFFF" height="30.2969" rx="2.5" ry="2.5" style="stroke:#000000;stroke-width:1;" width="147.335" x="168.8486" y="651.6875"/><text fill="#000000" font-family="Verdana" font-size="14" lengthAdjust="spacing" textLength="133.335" x="175.8486" y="671.6826">ReservasController</text></g><g class="participant participant-head" data-participant="Service"><rect fill="#FFFFFF" height="30.2969" rx="2.5" ry="2.5" style="stroke:#000000;stroke-width:1;" width="112.7793" x="391.1089" y="51"/><text fill="#000000" font-family="Verdana" font-size="14" lengthAdjust="spacing" textLength="98.7793" x="398.1089" y="70.9951">CuartoService</text></g><g class="participant participant-tail" data-participant="Service"><rect fill="#FFFFFF" height="30.2969" rx="2.5" ry="2.5" style="stroke:#000000;stroke-width:1;" width="112.7793" x="391.1089" y="651.6875"/><text fill="#000000" font-family="Verdana" font-size="14" lengthAdjust="spacing" textLength="98.7793" x="398.1089" y="671.6826">CuartoService</text></g><g class="participant participant-head" data-participant="Repository"><rect fill="#FFFFFF" height="30.2969" rx="2.5" ry="2.5" style="stroke:#000000;stroke-width:1;" width="136.1104" x="569.2612" y="51"/><text fill="#000000" font-family="Verdana" font-size="14" lengthAdjust="spacing" textLength="122.1104" x="576.2612" y="70.9951">CuartoRepository</text></g><g class="participant participant-tail" data-participant="Repository"><rect fill="#FFFFFF" height="30.2969" rx="2.5" ry="2.5" style="stroke:#000000;stroke-width:1;" width="136.1104" x="569.2612" y="651.6875"/><text fill="#000000" font-family="Verdana" font-size="14" lengthAdjust="spacing" textLength="122.1104" x="576.2612" y="671.6826">CuartoRepository</text></g><g class="participant participant-head" data-participant="DbContext"><rect fill="#FFFFFF" height="30.2969" rx="2.5" ry="2.5" style="stroke:#000000;stroke-width:1;" width="125.8428" x="790.5112" y="51"/><text fill="#000000" font-family="Verdana" font-size="14" lengthAdjust="spacing" textLength="111.8428" x="797.5112" y="70.9951">HotelDbContext</text></g><g class="participant participant-tail" data-participant="DbContext"><rect fill="#FFFFFF" height="30.2969" rx="2.5" ry="2.5" style="stroke:#000000;stroke-width:1;" width="125.8428" x="790.5112" y="651.6875"/><text fill="#000000" font-family="Verdana" font-size="14" lengthAdjust="spacing" textLength="111.8428" x="797.5112" y="671.6826">HotelDbContext</text></g><g class="participant participant-head" data-participant="DB"><text fill="#000000" font-family="Verdana" font-size="14" lengthAdjust="spacing" textLength="78.0664" x="996.647" y="78.9951">SQL Server</text><path d="M1020.6802,30 C1020.6802,20 1038.6802,20 1038.6802,20 C1038.6802,20 1056.6802,20 1056.6802,30 L1056.6802,56 C1056.6802,66 1038.6802,66 1038.6802,66 C1038.6802,66 1020.6802,66 1020.6802,56 L1020.6802,30" fill="#FFFFFF" style="stroke:#000000;stroke-width:1;"/><path d="M1020.6802,30 C1020.6802,40 1038.6802,40 1038.6802,40 C1038.6802,40 1056.6802,40 1056.6802,30" fill="none" style="stroke:#000000;stroke-width:1;"/></g><g class="participant participant-tail" data-participant="DB"><text fill="#000000" font-family="Verdana" font-size="14" lengthAdjust="spacing" textLength="78.0664" x="996.647" y="664.6826">SQL Server</text><path d="M1020.6802,677.9844 C1020.6802,667.9844 1038.6802,667.9844 1038.6802,667.9844 C1038.6802,667.9844 1056.6802,667.9844 1056.6802,677.9844 L1056.6802,703.9844 C1056.6802,713.9844 1038.6802,713.9844 1038.6802,713.9844 C1038.6802,713.9844 1020.6802,713.9844 1020.6802,703.9844 L1020.6802,677.9844" fill="#FFFFFF" style="stroke:#000000;stroke-width:1;"/><path d="M1020.6802,677.9844 C1020.6802,687.9844 1038.6802,687.9844 1038.6802,687.9844 C1038.6802,687.9844 1056.6802,687.9844 1056.6802,677.9844" fill="none" style="stroke:#000000;stroke-width:1;"/></g><g><title>ReservasController</title><rect fill="#FFFFFF" height="521.2578" style="stroke:#000000;stroke-width:1;" width="10" x="237.5161" y="113.4297"/></g><g><title>CuartoService</title><rect fill="#FFFFFF" height="462.9922" style="stroke:#000000;stroke-width:1;" width="10" x="442.4985" y="142.5625"/></g><g><title>CuartoRepository</title><rect fill="#FFFFFF" height="145.6641" style="stroke:#000000;stroke-width:1;" width="10" x="632.3164" y="171.6953"/></g><g><title>CuartoRepository</title><rect fill="#FFFFFF" height="145.6641" style="stroke:#000000;stroke-width:1;" width="10" x="632.3164" y="430.7578"/></g><g><title>HotelDbContext</title><rect fill="#FFFFFF" height="87.3984" style="stroke:#000000;stroke-width:1;" width="10" x="848.4326" y="200.8281"/></g><g><title>HotelDbContext</title><rect fill="#FFFFFF" height="87.3984" style="stroke:#000000;stroke-width:1;" width="10" x="848.4326" y="459.8906"/></g><g class="message" data-participant-1="Cliente" data-participant-2="Controller"><polygon fill="#000000" points="225.5161,109.4297,235.5161,113.4297,225.5161,117.4297,229.5161,113.4297" style="stroke:#000000;stroke-width:1;"/><line style="stroke:#000000;stroke-width:1;" x1="37.5718" x2="231.5161" y1="113.4297" y2="113.4297"/><text fill="#000000" font-family="Verdana" font-size="13" lengthAdjust="spacing" textLength="122.8779" x="44.5718" y="108.3638">POST /api/reservas</text></g><g class="message" data-participant-1="Controller" data-participant-2="Service"><polygon fill="#000000" points="430.4985,138.5625,440.4985,142.5625,430.4985,146.5625,434.4985,142.5625" style="stroke:#000000;stroke-width:1;"/><line style="stroke:#000000;stroke-width:1;" x1="247.5161" x2="436.4985" y1="142.5625" y2="142.5625"/><text fill="#000000" font-family="Verdana" font-size="13" lengthAdjust="spacing" textLength="175.9824" x="254.5161" y="137.4966">CrearReserva(reservaDTO)</text></g><g class="message" data-participant-1="Service" data-participant-2="Repository"><polygon fill="#000000" points="620.3164,167.6953,630.3164,171.6953,620.3164,175.6953,624.3164,171.6953" style="stroke:#000000;stroke-width:1;"/><line style="stroke:#000000;stroke-width:1;" x1="452.4985" x2="626.3164" y1="171.6953" y2="171.6953"/><text fill="#000000" font-family="Verdana" font-size="13" lengthAdjust="spacing" textLength="160.8179" x="459.4985" y="166.6294">ObtenerCuarto(cuartoId)</text></g><g class="message" data-participant-1="Repository" data-participant-2="DbContext"><polygon fill="#000000" points="836.4326,196.8281,846.4326,200.8281,836.4326,204.8281,840.4326,200.8281" style="stroke:#000000;stroke-width:1;"/><line style="stroke:#000000;stroke-width:1;" x1="642.3164" x2="842.4326" y1="200.8281" y2="200.8281"/><text fill="#000000" font-family="Verdana" font-size="13" lengthAdjust="spacing" textLength="142.9175" x="649.3164" y="195.7622">Cuartos.FindAsync(id)</text></g><g class="message" data-participant-1="DbContext" data-participant-2="DB"><polygon fill="#000000" points="1026.6802,225.9609,1036.6802,229.9609,1026.6802,233.9609,1030.6802,229.9609" style="stroke:#000000;stroke-width:1;"/><line style="stroke:#000000;stroke-width:1;" x1="858.4326" x2="1032.6802" y1="229.9609" y2="229.9609"/><text fill="#000000" font-family="Verdana" font-size="13" lengthAdjust="spacing" textLength="156.2476" x="865.4326" y="224.895">SELECT * FROM Cuartos</text></g><g class="message" data-participant-1="DB" data-participant-2="DbContext"><polygon fill="#000000" points="869.4326,255.0938,859.4326,259.0938,869.4326,263.0938,865.4326,259.0938" style="stroke:#000000;stroke-width:1;"/><line style="stroke:#000000;stroke-width:1;stroke-dasharray:2,2;" x1="863.4326" x2="1037.6802" y1="259.0938" y2="259.0938"/><text fill="#000000" font-family="Verdana" font-size="13" lengthAdjust="spacing" textLength="43.6782" x="875.4326" y="254.0278">Cuarto</text></g><g class="message" data-participant-1="DbContext" data-participant-2="Repository"><polygon fill="#000000" points="653.3164,284.2266,643.3164,288.2266,653.3164,292.2266,649.3164,288.2266" style="stroke:#000000;stroke-width:1;"/><line style="stroke:#000000;stroke-width:1;stroke-dasharray:2,2;" x1="647.3164" x2="852.4326" y1="288.2266" y2="288.2266"/><text fill="#000000" font-family="Verdana" font-size="13" lengthAdjust="spacing" textLength="43.6782" x="659.3164" y="283.1606">Cuarto</text></g><g class="message" data-participant-1="Repository" data-participant-2="Service"><polygon fill="#000000" points="463.4985,313.3594,453.4985,317.3594,463.4985,321.3594,459.4985,317.3594" style="stroke:#000000;stroke-width:1;"/><line style="stroke:#000000;stroke-width:1;stroke-dasharray:2,2;" x1="457.4985" x2="636.3164" y1="317.3594" y2="317.3594"/><text fill="#000000" font-family="Verdana" font-size="13" lengthAdjust="spacing" textLength="43.6782" x="469.4985" y="312.2935">Cuarto</text></g><g class="message" data-participant-1="Service" data-participant-2="Service"><line style="stroke:#000000;stroke-width:1;" x1="452.4985" x2="494.4985" y1="346.4922" y2="346.4922"/><line style="stroke:#000000;stroke-width:1;" x1="494.4985" x2="494.4985" y1="346.4922" y2="359.4922"/><line style="stroke:#000000;stroke-width:1;" x1="453.4985" x2="494.4985" y1="359.4922" y2="359.4922"/><polygon fill="#000000" points="463.4985,355.4922,453.4985,359.4922,463.4985,363.4922,459.4985,359.4922" style="stroke:#000000;stroke-width:1;"/><text fill="#000000" font-family="Verdana" font-size="13" lengthAdjust="spacing" textLength="147.7988" x="459.4985" y="341.4263">ValidarDisponibilidad()</text></g><g class="message" data-participant-1="Service" data-participant-2="Service"><line style="stroke:#000000;stroke-width:1;" x1="452.4985" x2="494.4985" y1="388.625" y2="388.625"/><line style="stroke:#000000;stroke-width:1;" x1="494.4985" x2="494.4985" y1="388.625" y2="401.625"/><line style="stroke:#000000;stroke-width:1;" x1="453.4985" x2="494.4985" y1="401.625" y2="401.625"/><polygon fill="#000000" points="463.4985,397.625,453.4985,401.625,463.4985,405.625,459.4985,401.625" style="stroke:#000000;stroke-width:1;"/><text fill="#000000" font-family="Verdana" font-size="13" lengthAdjust="spacing" textLength="136.1382" x="459.4985" y="383.5591">CalcularMontoTotal()</text></g><g class="message" data-participant-1="Service" data-participant-2="Repository"><polygon fill="#000000" points="620.3164,426.7578,630.3164,430.7578,620.3164,434.7578,624.3164,430.7578" style="stroke:#000000;stroke-width:1;"/><line style="stroke:#000000;stroke-width:1;" x1="452.4985" x2="626.3164" y1="430.7578" y2="430.7578"/><text fill="#000000" font-family="Verdana" font-size="13" lengthAdjust="spacing" textLength="147.7988" x="459.4985" y="425.6919">CrearReserva(reserva)</text></g><g class="message" data-participant-1="Repository" data-participant-2="DbContext"><polygon fill="#000000" points="836.4326,455.8906,846.4326,459.8906,836.4326,463.8906,840.4326,459.8906" style="stroke:#000000;stroke-width:1;"/><line style="stroke:#000000;stroke-width:1;" x1="642.3164" x2="842.4326" y1="459.8906" y2="459.8906"/><text fill="#000000" font-family="Verdana" font-size="13" lengthAdjust="spacing" textLength="187.1162" x="649.3164" y="454.8247">Reservas.AddAsync(reserva)</text></g><g class="message" data-participant-1="DbContext" data-participant-2="DB"><polygon fill="#000000" points="1026.6802,485.0234,1036.6802,489.0234,1026.6802,493.0234,1030.6802,489.0234" style="stroke:#000000;stroke-width:1;"/><line style="stroke:#000000;stroke-width:1;" x1="858.4326" x2="1032.6802" y1="489.0234" y2="489.0234"/><text fill="#000000" font-family="Verdana" font-size="13" lengthAdjust="spacing" textLength="146.5737" x="865.4326" y="483.9575">INSERT INTO Reservas</text></g><g class="message" data-participant-1="DB" data-participant-2="DbContext"><polygon fill="#000000" points="869.4326,514.1563,859.4326,518.1563,869.4326,522.1563,865.4326,518.1563" style="stroke:#000000;stroke-width:1;"/><line style="stroke:#000000;stroke-width:1;stroke-dasharray:2,2;" x1="863.4326" x2="1037.6802" y1="518.1563" y2="518.1563"/><text fill="#000000" font-family="Verdana" font-size="13" lengthAdjust="spacing" textLength="18.7573" x="875.4326" y="513.0903">OK</text></g><g class="message" data-participant-1="DbContext" data-participant-2="Repository"><polygon fill="#000000" points="653.3164,543.2891,643.3164,547.2891,653.3164,551.2891,649.3164,547.2891" style="stroke:#000000;stroke-width:1;"/><line style="stroke:#000000;stroke-width:1;stroke-dasharray:2,2;" x1="647.3164" x2="852.4326" y1="547.2891" y2="547.2891"/><text fill="#000000" font-family="Verdana" font-size="13" lengthAdjust="spacing" textLength="52.8062" x="659.3164" y="542.2231">Reserva</text></g><g class="message" data-participant-1="Repository" data-participant-2="Service"><polygon fill="#000000" points="463.4985,572.4219,453.4985,576.4219,463.4985,580.4219,459.4985,576.4219" style="stroke:#000000;stroke-width:1;"/><line style="stroke:#000000;stroke-width:1;stroke-dasharray:2,2;" x1="457.4985" x2="636.3164" y1="576.4219" y2="576.4219"/><text fill="#000000" font-family="Verdana" font-size="13" lengthAdjust="spacing" textLength="52.8062" x="469.4985" y="571.356">Reserva</text></g><g class="message" data-participant-1="Service" data-participant-2="Controller"><polygon fill="#000000" points="258.5161,601.5547,248.5161,605.5547,258.5161,609.5547,254.5161,605.5547" style="stroke:#000000;stroke-width:1;"/><line style="stroke:#000000;stroke-width:1;stroke-dasharray:2,2;" x1="252.5161" x2="446.4985" y1="605.5547" y2="605.5547"/><text fill="#000000" font-family="Verdana" font-size="13" lengthAdjust="spacing" textLength="80.9897" x="264.5161" y="600.4888">ReservaDTO</text></g><g class="message" data-participant-1="Controller" data-participant-2="Cliente"><polygon fill="#000000" points="48.5718,630.6875,38.5718,634.6875,48.5718,638.6875,44.5718,634.6875" style="stroke:#000000;stroke-width:1;"/><line style="stroke:#000000;stroke-width:1;stroke-dasharray:2,2;" x1="42.5718" x2="241.5161" y1="634.6875" y2="634.6875"/><text fill="#000000" font-family="Verdana" font-size="13" lengthAdjust="spacing" textLength="175.9443" x="54.5718" y="629.6216">201 Created (ReservaDTO)</text></g><!--SRC=[bLF1Ri8m3BtdApnEPHAmxTZ396X1GuDrQwlTtTRI8cLDbGOq_dvj2Ks0RXAdsD9xptvsVAU_w9kW4iXBnZ3NKa4WE9MQM8LAyvnNM6eOnLIJscCTo58hAGIf4M0DDZs71xicaqb3uJbrI1CFmMAgPCsRqeSEQTDpy8lK9CAiBKa_keFs6IjGOuOrmIZvs7J5J8VXWZ7Z22RFJiC-l4T92ZEi-4mPT-q4-1uRg6ECsRXLC4Py21IXCdFnZ4AOHcChSlBCJD3IhJiVeanJIUeu1I_lddNX23YZi66hqXjlskXezNJ5os9U7yhSuww47L4VTG8B7vBbPXcaS0-hEDgUT5YuWCbG1PT_uSC02XgewlPzDhqhZcFM7LZF-4J12rGXhojPyeotMU6D1x41YdmdK6sRBcGgDOe6-DSQXXPvun9Evp6T5sO9rph_R6BzbYpZj7dIg9SQM4Jq-iyI3E-sBGoG1jTmSJbn_zjTPl_TtODfcSVpy-7fuR4RjgO2lDYv64V4Sdy1]--></g></svg>