<svg xmlns="http://www.w3.org/2000/svg" xmlns:xlink="http://www.w3.org/1999/xlink" contentStyleType="text/css" data-diagram-type="ACTIVITY" height="849px" preserveAspectRatio="none" style="width:677px;height:849px;background:#FFFFFF;" version="1.1" viewBox="0 0 677 849" width="677px" zoomAndPan="magnify"><defs/><g><ellipse cx="341.5662" cy="15" fill="#FFFFFF" rx="10" ry="10" style="stroke:#000000;stroke-width:1;"/><rect fill="#FFFFFF" height="33.9688" rx="12.5" ry="12.5" style="stroke:#000000;stroke-width:1;" width="252.7461" x="215.1931" y="45"/><text fill="#000000" font-family="Verdana" font-size="12" lengthAdjust="spacing" textLength="232.7461" x="225.1931" y="66.1387">CuartoEstadoBackgroundService inicia</text><rect fill="#FFFFFF" height="33.9688" rx="12.5" ry="12.5" style="stroke:#000000;stroke-width:1;" width="198.3477" x="242.3923" y="154.6792"/><text fill="#000000" font-family="Verdana" font-size="12" lengthAdjust="spacing" textLength="178.3477" x="252.3923" y="175.8179">Esperar intervalo configurado</text><rect fill="#FFFFFF" height="33.9688" rx="12.5" ry="12.5" style="stroke:#000000;stroke-width:1;" width="178.0918" x="252.5203" y="208.6479"/><text fill="#000000" font-family="Verdana" font-size="12" lengthAdjust="spacing" textLength="158.0918" x="262.5203" y="229.7866">Obtener fecha/hora actual</text><rect fill="#FFFFFF" height="33.9688" rx="12.5" ry="12.5" style="stroke:#000000;stroke-width:1;" width="179.4277" x="251.8523" y="262.6167"/><text fill="#000000" font-family="Verdana" font-size="12" lengthAdjust="spacing" textLength="159.4277" x="261.8523" y="283.7554">Consultar reservas activas</text><rect fill="#000000" height="6" rx="2.5" ry="2.5" style="stroke:#000000;stroke-width:1;" width="613.1323" x="31" y="316.5854"/><rect fill="#FFFFFF" height="33.9688" rx="12.5" ry="12.5" style="stroke:#000000;stroke-width:1;" width="222.6992" x="68.198" y="342.5854"/><text fill="#000000" font-family="Verdana" font-size="12" lengthAdjust="spacing" textLength="202.6992" x="78.198" y="363.7241">Procesar reservas que inician hoy</text><rect fill="#FFFFFF" height="33.9688" rx="12.5" ry="12.5" style="stroke:#000000;stroke-width:1;" width="228.9629" x="65.0662" y="444.9565"/><text fill="#000000" font-family="Verdana" font-size="12" lengthAdjust="spacing" textLength="208.9629" x="75.0662" y="466.0952">Cambiar estado reserva a EnCurso</text><rect fill="#FFFFFF" height="33.9688" rx="12.5" ry="12.5" style="stroke:#000000;stroke-width:1;" width="226.0391" x="66.5281" y="513.9253"/><text fill="#000000" font-family="Verdana" font-size="12" lengthAdjust="spacing" textLength="206.0391" x="76.5281" y="535.064">Cambiar estado cuarto a Ocupado</text><polygon fill="#FFFFFF" points="55,396.5542,304.0952,396.5542,316.0952,408.5542,304.0952,420.5542,55,420.5542,43,408.5542,55,396.5542" style="stroke:#000000;stroke-width:1;"/><text fill="#000000" font-family="Verdana" font-size="11" lengthAdjust="spacing" textLength="10.0386" x="183.5476" y="430.7646">Sí</text><text fill="#000000" font-family="Verdana" font-size="11" lengthAdjust="spacing" textLength="249.0952" x="55" y="412.3623">¿Reserva confirmada y fecha entrada = hoy?</text><polygon fill="#FFFFFF" points="179.5476,567.894,191.5476,579.894,179.5476,591.894,167.5476,579.894,179.5476,567.894" style="stroke:#000000;stroke-width:1;"/><rect fill="#FFFFFF" height="33.9688" rx="12.5" ry="12.5" style="stroke:#000000;stroke-width:1;" width="238.1445" x="373.0415" y="342.5854"/><text fill="#000000" font-family="Verdana" font-size="12" lengthAdjust="spacing" textLength="218.1445" x="383.0415" y="363.7241">Procesar reservas que terminan hoy</text><rect fill="#FFFFFF" height="33.9688" rx="12.5" ry="12.5" style="stroke:#000000;stroke-width:1;" width="252.0371" x="366.0952" y="444.9565"/><text fill="#000000" font-family="Verdana" font-size="12" lengthAdjust="spacing" textLength="232.0371" x="376.0952" y="466.0952">Cambiar estado reserva a Completada</text><rect fill="#FFFFFF" height="33.9688" rx="12.5" ry="12.5" style="stroke:#000000;stroke-width:1;" width="226.1563" x="379.0356" y="513.9253"/><text fill="#000000" font-family="Verdana" font-size="12" lengthAdjust="spacing" textLength="206.1563" x="389.0356" y="535.064">Cambiar estado cuarto a Limpieza</text><polygon fill="#FFFFFF" points="380.5024,396.5542,603.7251,396.5542,615.7251,408.5542,603.7251,420.5542,380.5024,420.5542,368.5024,408.5542,380.5024,396.5542" style="stroke:#000000;stroke-width:1;"/><text fill="#000000" font-family="Verdana" font-size="11" lengthAdjust="spacing" textLength="10.0386" x="496.1138" y="430.7646">Sí</text><text fill="#000000" font-family="Verdana" font-size="11" lengthAdjust="spacing" textLength="223.2227" x="380.5024" y="412.3623">¿Reserva en curso y fecha salida = hoy?</text><polygon fill="#FFFFFF" points="492.1138,567.894,504.1138,579.894,492.1138,591.894,480.1138,579.894,492.1138,567.894" style="stroke:#000000;stroke-width:1;"/><rect fill="#000000" height="6" rx="2.5" ry="2.5" style="stroke:#000000;stroke-width:1;" width="613.1323" x="31" y="611.894"/><rect fill="#FFFFFF" height="33.9688" rx="12.5" ry="12.5" style="stroke:#000000;stroke-width:1;" width="230.2168" x="226.4578" y="637.894"/><text fill="#000000" font-family="Verdana" font-size="12" lengthAdjust="spacing" textLength="210.2168" x="236.4578" y="659.0327">Guardar cambios en base de datos</text><rect fill="#FFFFFF" height="33.9688" rx="12.5" ry="12.5" style="stroke:#000000;stroke-width:1;" width="122.0117" x="280.5603" y="691.8628"/><text fill="#000000" font-family="Verdana" font-size="12" lengthAdjust="spacing" textLength="102.0117" x="290.5603" y="713.0015">Registrar en logs</text><polygon fill="#FFFFFF" points="292.0876,98.9688,391.0447,98.9688,403.0447,110.9688,391.0447,122.9688,292.0876,122.9688,280.0876,110.9688,292.0876,98.9688" style="stroke:#000000;stroke-width:1;"/><text fill="#000000" font-family="Verdana" font-size="11" lengthAdjust="spacing" textLength="10.0386" x="345.5662" y="133.1792">Sí</text><text fill="#000000" font-family="Verdana" font-size="11" lengthAdjust="spacing" textLength="98.957" x="292.0876" y="114.7769">Aplicación activa?</text><text fill="#000000" font-family="Verdana" font-size="11" lengthAdjust="spacing" textLength="14.9585" x="265.1292" y="108.3745">No</text><rect fill="#FFFFFF" height="33.9688" rx="12.5" ry="12.5" style="stroke:#000000;stroke-width:1;" width="124.4434" x="279.3445" y="767.8315"/><text fill="#000000" font-family="Verdana" font-size="12" lengthAdjust="spacing" textLength="104.4434" x="289.3445" y="788.9702">Servicio detenido</text><ellipse cx="341.5662" cy="832.8003" fill="none" rx="11" ry="11" style="stroke:#000000;stroke-width:1;"/><ellipse cx="341.5662" cy="832.8003" fill="#FFFFFF" rx="6" ry="6" style="stroke:#000000;stroke-width:1;"/><line style="stroke:#000000;stroke-width:1;" x1="341.5662" x2="341.5662" y1="25" y2="45"/><polygon fill="#000000" points="337.5662,35,341.5662,45,345.5662,35,341.5662,39" style="stroke:#000000;stroke-width:1;"/><line style="stroke:#000000;stroke-width:1;" x1="341.5662" x2="341.5662" y1="188.6479" y2="208.6479"/><polygon fill="#000000" points="337.5662,198.6479,341.5662,208.6479,345.5662,198.6479,341.5662,202.6479" style="stroke:#000000;stroke-width:1;"/><line style="stroke:#000000;stroke-width:1;" x1="341.5662" x2="341.5662" y1="242.6167" y2="262.6167"/><polygon fill="#000000" points="337.5662,252.6167,341.5662,262.6167,345.5662,252.6167,341.5662,256.6167" style="stroke:#000000;stroke-width:1;"/><line style="stroke:#000000;stroke-width:1;" x1="179.5476" x2="179.5476" y1="478.9253" y2="513.9253"/><polygon fill="#000000" points="175.5476,503.9253,179.5476,513.9253,183.5476,503.9253,179.5476,507.9253" style="stroke:#000000;stroke-width:1;"/><line style="stroke:#000000;stroke-width:1;" x1="179.5476" x2="179.5476" y1="420.5542" y2="444.9565"/><polygon fill="#000000" points="175.5476,434.9565,179.5476,444.9565,183.5476,434.9565,179.5476,438.9565" style="stroke:#000000;stroke-width:1;"/><line style="stroke:#000000;stroke-width:1;" x1="316.0952" x2="328.0952" y1="408.5542" y2="408.5542"/><polygon fill="#000000" points="324.0952,486.4253,328.0952,496.4253,332.0952,486.4253,328.0952,490.4253" style="stroke:#000000;stroke-width:1;"/><line style="stroke:#000000;stroke-width:1;" x1="328.0952" x2="328.0952" y1="408.5542" y2="579.894"/><line style="stroke:#000000;stroke-width:1;" x1="328.0952" x2="191.5476" y1="579.894" y2="579.894"/><polygon fill="#000000" points="201.5476,575.894,191.5476,579.894,201.5476,583.894,197.5476,579.894" style="stroke:#000000;stroke-width:1;"/><line style="stroke:#000000;stroke-width:1;" x1="179.5476" x2="179.5476" y1="547.894" y2="567.894"/><polygon fill="#000000" points="175.5476,557.894,179.5476,567.894,183.5476,557.894,179.5476,561.894" style="stroke:#000000;stroke-width:1;"/><line style="stroke:#000000;stroke-width:1;" x1="179.5476" x2="179.5476" y1="376.5542" y2="396.5542"/><polygon fill="#000000" points="175.5476,386.5542,179.5476,396.5542,183.5476,386.5542,179.5476,390.5542" style="stroke:#000000;stroke-width:1;"/><line style="stroke:#000000;stroke-width:1;" x1="492.1138" x2="492.1138" y1="478.9253" y2="513.9253"/><polygon fill="#000000" points="488.1138,503.9253,492.1138,513.9253,496.1138,503.9253,492.1138,507.9253" style="stroke:#000000;stroke-width:1;"/><line style="stroke:#000000;stroke-width:1;" x1="492.1138" x2="492.1138" y1="420.5542" y2="444.9565"/><polygon fill="#000000" points="488.1138,434.9565,492.1138,444.9565,496.1138,434.9565,492.1138,438.9565" style="stroke:#000000;stroke-width:1;"/><line style="stroke:#000000;stroke-width:1;" x1="615.7251" x2="628.1323" y1="408.5542" y2="408.5542"/><polygon fill="#000000" points="624.1323,486.4253,628.1323,496.4253,632.1323,486.4253,628.1323,490.4253" style="stroke:#000000;stroke-width:1;"/><line style="stroke:#000000;stroke-width:1;" x1="628.1323" x2="628.1323" y1="408.5542" y2="579.894"/><line style="stroke:#000000;stroke-width:1;" x1="628.1323" x2="504.1138" y1="579.894" y2="579.894"/><polygon fill="#000000" points="514.1138,575.894,504.1138,579.894,514.1138,583.894,510.1138,579.894" style="stroke:#000000;stroke-width:1;"/><line style="stroke:#000000;stroke-width:1;" x1="492.1138" x2="492.1138" y1="547.894" y2="567.894"/><polygon fill="#000000" points="488.1138,557.894,492.1138,567.894,496.1138,557.894,492.1138,561.894" style="stroke:#000000;stroke-width:1;"/><line style="stroke:#000000;stroke-width:1;" x1="492.1138" x2="492.1138" y1="376.5542" y2="396.5542"/><polygon fill="#000000" points="488.1138,386.5542,492.1138,396.5542,496.1138,386.5542,492.1138,390.5542" style="stroke:#000000;stroke-width:1;"/><line style="stroke:#000000;stroke-width:1;" x1="179.5476" x2="179.5476" y1="322.5854" y2="342.5854"/><polygon fill="#000000" points="175.5476,332.5854,179.5476,342.5854,183.5476,332.5854,179.5476,336.5854" style="stroke:#000000;stroke-width:1;"/><line style="stroke:#000000;stroke-width:1;" x1="492.1138" x2="492.1138" y1="322.5854" y2="342.5854"/><polygon fill="#000000" points="488.1138,332.5854,492.1138,342.5854,496.1138,332.5854,492.1138,336.5854" style="stroke:#000000;stroke-width:1;"/><line style="stroke:#000000;stroke-width:1;" x1="179.5476" x2="179.5476" y1="591.894" y2="611.894"/><polygon fill="#000000" points="175.5476,601.894,179.5476,611.894,183.5476,601.894,179.5476,605.894" style="stroke:#000000;stroke-width:1;"/><line style="stroke:#000000;stroke-width:1;" x1="492.1138" x2="492.1138" y1="591.894" y2="611.894"/><polygon fill="#000000" points="488.1138,601.894,492.1138,611.894,496.1138,601.894,492.1138,605.894" style="stroke:#000000;stroke-width:1;"/><line style="stroke:#000000;stroke-width:1;" x1="341.5662" x2="341.5662" y1="296.5854" y2="316.5854"/><polygon fill="#000000" points="337.5662,306.5854,341.5662,316.5854,345.5662,306.5854,341.5662,310.5854" style="stroke:#000000;stroke-width:1;"/><line style="stroke:#000000;stroke-width:1;" x1="341.5662" x2="341.5662" y1="617.894" y2="637.894"/><polygon fill="#000000" points="337.5662,627.894,341.5662,637.894,345.5662,627.894,341.5662,631.894" style="stroke:#000000;stroke-width:1;"/><line style="stroke:#000000;stroke-width:1;" x1="341.5662" x2="341.5662" y1="671.8628" y2="691.8628"/><polygon fill="#000000" points="337.5662,681.8628,341.5662,691.8628,345.5662,681.8628,341.5662,685.8628" style="stroke:#000000;stroke-width:1;"/><line style="stroke:#000000;stroke-width:1;" x1="341.5662" x2="341.5662" y1="122.9688" y2="154.6792"/><polygon fill="#000000" points="337.5662,144.6792,341.5662,154.6792,345.5662,144.6792,341.5662,148.6792" style="stroke:#000000;stroke-width:1;"/><line style="stroke:#000000;stroke-width:1;" x1="341.5662" x2="341.5662" y1="725.8315" y2="735.8315"/><line style="stroke:#000000;stroke-width:1;" x1="341.5662" x2="656.1323" y1="735.8315" y2="735.8315"/><polygon fill="#000000" points="652.1323,419.0542,656.1323,409.0542,660.1323,419.0542,656.1323,415.0542" style="stroke:#000000;stroke-width:1;"/><line style="stroke:#000000;stroke-width:1;" x1="656.1323" x2="656.1323" y1="110.9688" y2="735.8315"/><line style="stroke:#000000;stroke-width:1;" x1="656.1323" x2="403.0447" y1="110.9688" y2="110.9688"/><polygon fill="#000000" points="413.0447,106.9688,403.0447,110.9688,413.0447,114.9688,409.0447,110.9688" style="stroke:#000000;stroke-width:1;"/><line style="stroke:#000000;stroke-width:1;" x1="280.0876" x2="19" y1="110.9688" y2="110.9688"/><polygon fill="#000000" points="15,405.0542,19,415.0542,23,405.0542,19,409.0542" style="stroke:#000000;stroke-width:1;"/><line style="stroke:#000000;stroke-width:1;" x1="19" x2="19" y1="110.9688" y2="747.8315"/><line style="stroke:#000000;stroke-width:1;" x1="19" x2="341.5662" y1="747.8315" y2="747.8315"/><line style="stroke:#000000;stroke-width:1;" x1="341.5662" x2="341.5662" y1="747.8315" y2="767.8315"/><polygon fill="#000000" points="337.5662,757.8315,341.5662,767.8315,345.5662,757.8315,341.5662,761.8315" style="stroke:#000000;stroke-width:1;"/><line style="stroke:#000000;stroke-width:1;" x1="341.5662" x2="341.5662" y1="78.9688" y2="98.9688"/><polygon fill="#000000" points="337.5662,88.9688,341.5662,98.9688,345.5662,88.9688,341.5662,92.9688" style="stroke:#000000;stroke-width:1;"/><line style="stroke:#000000;stroke-width:1;" x1="341.5662" x2="341.5662" y1="801.8003" y2="821.8003"/><polygon fill="#000000" points="337.5662,811.8003,341.5662,821.8003,345.5662,811.8003,341.5662,815.8003" style="stroke:#000000;stroke-width:1;"/><!--SRC=[fLF1JiCm3BttAynjEt7VX11K4nV4qFO5Nkgs5cbSadHe_1CdFW29_HXEoqeF2928AZLfdv_zx9UpM5D3q5fabsKXeezPjiWxVSjAZuLSetcel7Iks9BVio5WnuPncMLFDLk2sLLhsQ3Xuwi3D97tU3a73Z3R7b_c6UXQh49B7hs6HYL1As34bLnrNZCiUym0NEyYEV9Gagdnl1QFYR93EmNbua9djLRm519V-CmR9gXI_4E_wKFklHWAquZ7xgJ4GIs7vOZb4cRlRvi1DzJf6omG3aDLG2xwTBv8SIfLM-WcOiUSEJOxrfJKz_6K6H1MBkzyaEMFSDFFGD5hqxLZbz8YLt0vQWIiqkn-KQfjRzZzB5LLc5JNA3IWvV_epALfBUb7_AFKMsvQfcVyJglklcOw-E16umgbCObEGXAmmq1Gw8DHfcvORAZY49C75MMbElrKsayRtybShJ-Od4L9r8cS-gxNGjeF]--></g></svg>