<svg xmlns="http://www.w3.org/2000/svg" xmlns:xlink="http://www.w3.org/1999/xlink" contentStyleType="text/css" data-diagram-type="CLASS" height="647px" preserveAspectRatio="none" style="width:726px;height:647px;background:#FFFFFF;" version="1.1" viewBox="0 0 726 647" width="726px" zoomAndPan="magnify"><defs/><g><!--class Reserva--><g class="entity" data-entity="Reserva" data-source-line="3" data-uid="ent0002" id="entity_Reserva"><rect fill="#FFFFFF" height="206.9688" rx="2.5" ry="2.5" style="stroke:#000000;stroke-width:1;" width="200.1689" x="254.5" y="12"/><ellipse cx="322.4004" cy="26" fill="#FFFFFF" rx="9" ry="9" style="stroke:#000000;stroke-width:1;"/><path d="M325.3691,31.6406 Q324.791,31.9375 324.1504,32.0781 Q323.5098,32.2344 322.8066,32.2344 Q320.3066,32.2344 318.9785,30.5938 Q317.666,28.9375 317.666,25.8125 Q317.666,22.6875 318.9785,21.0313 Q320.3066,19.375 322.8066,19.375 Q323.5098,19.375 324.1504,19.5313 Q324.8066,19.6875 325.3691,19.9844 L325.3691,22.7031 Q324.7441,22.125 324.1504,21.8594 Q323.5566,21.5781 322.9316,21.5781 Q321.5879,21.5781 320.9004,22.6563 Q320.2129,23.7188 320.2129,25.8125 Q320.2129,27.9063 320.9004,28.9844 Q321.5879,30.0469 322.9316,30.0469 Q323.5566,30.0469 324.1504,29.7813 Q324.7441,29.5 325.3691,28.9219 L325.3691,31.6406 Z " fill="#000000"/><text fill="#000000" font-family="Verdana" font-size="14" lengthAdjust="spacing" textLength="56.8682" x="339.9004" y="30.8467">Reserva</text><line style="stroke:#000000;stroke-width:1;" x1="255.5" x2="453.6689" y1="40" y2="40"/><ellipse cx="265.5" cy="53.6484" fill="none" rx="3" ry="3" style="stroke:#000000;stroke-width:1;"/><text fill="#000000" font-family="Verdana" font-size="14" lengthAdjust="spacing" textLength="35.7178" x="272.5" y="56.9951">int Id</text><ellipse cx="265.5" cy="69.9453" fill="none" rx="3" ry="3" style="stroke:#000000;stroke-width:1;"/><text fill="#000000" font-family="Verdana" font-size="14" lengthAdjust="spacing" textLength="97.4121" x="272.5" y="73.292">int HuespedId</text><ellipse cx="265.5" cy="86.2422" fill="none" rx="3" ry="3" style="stroke:#000000;stroke-width:1;"/><text fill="#000000" font-family="Verdana" font-size="14" lengthAdjust="spacing" textLength="82.7559" x="272.5" y="89.5889">int CuartoId</text><ellipse cx="265.5" cy="102.5391" fill="none" rx="3" ry="3" style="stroke:#000000;stroke-width:1;"/><text fill="#000000" font-family="Verdana" font-size="14" lengthAdjust="spacing" textLength="169.4287" x="272.5" y="105.8857">DateTime FechaEntrada</text><ellipse cx="265.5" cy="118.8359" fill="none" rx="3" ry="3" style="stroke:#000000;stroke-width:1;"/><text fill="#000000" font-family="Verdana" font-size="14" lengthAdjust="spacing" textLength="157.1309" x="272.5" y="122.1826">DateTime FechaSalida</text><ellipse cx="265.5" cy="135.1328" fill="none" rx="3" ry="3" style="stroke:#000000;stroke-width:1;"/><text fill="#000000" font-family="Verdana" font-size="14" lengthAdjust="spacing" textLength="142.0371" x="272.5" y="138.4795">int NumeroPersonas</text><ellipse cx="265.5" cy="151.4297" fill="none" rx="3" ry="3" style="stroke:#000000;stroke-width:1;"/><text fill="#000000" font-family="Verdana" font-size="14" lengthAdjust="spacing" textLength="138.291" x="272.5" y="154.7764">decimal MontoTotal</text><ellipse cx="265.5" cy="167.7266" fill="none" rx="3" ry="3" style="stroke:#000000;stroke-width:1;"/><text fill="#000000" font-family="Verdana" font-size="14" lengthAdjust="spacing" textLength="156.6387" x="272.5" y="171.0732">EstadoReserva Estado</text><ellipse cx="265.5" cy="184.0234" fill="none" rx="3" ry="3" style="stroke:#000000;stroke-width:1;"/><text fill="#000000" font-family="Verdana" font-size="14" lengthAdjust="spacing" textLength="148.0049" x="272.5" y="187.3701">string Observaciones</text><ellipse cx="265.5" cy="200.3203" fill="none" rx="3" ry="3" style="stroke:#000000;stroke-width:1;"/><text fill="#000000" font-family="Verdana" font-size="14" lengthAdjust="spacing" textLength="176.1689" x="272.5" y="203.667">DateTime FechaCreacion</text><line style="stroke:#000000;stroke-width:1;" x1="255.5" x2="453.6689" y1="210.9688" y2="210.9688"/></g><!--class Cuarto--><g class="entity" data-entity="Cuarto" data-source-line="16" data-uid="ent0003" id="entity_Cuarto"><rect fill="#FFFFFF" height="158.0781" rx="2.5" ry="2.5" style="stroke:#000000;stroke-width:1;" width="246.3184" x="24.5" y="296"/><ellipse cx="120.3901" cy="310" fill="#FFFFFF" rx="9" ry="9" style="stroke:#000000;stroke-width:1;"/><path d="M123.3589,315.6406 Q122.7808,315.9375 122.1401,316.0781 Q121.4995,316.2344 120.7964,316.2344 Q118.2964,316.2344 116.9683,314.5938 Q115.6558,312.9375 115.6558,309.8125 Q115.6558,306.6875 116.9683,305.0313 Q118.2964,303.375 120.7964,303.375 Q121.4995,303.375 122.1401,303.5313 Q122.7964,303.6875 123.3589,303.9844 L123.3589,306.7031 Q122.7339,306.125 122.1401,305.8594 Q121.5464,305.5781 120.9214,305.5781 Q119.5776,305.5781 118.8901,306.6563 Q118.2026,307.7188 118.2026,309.8125 Q118.2026,311.9063 118.8901,312.9844 Q119.5776,314.0469 120.9214,314.0469 Q121.5464,314.0469 122.1401,313.7813 Q122.7339,313.5 123.3589,312.9219 L123.3589,315.6406 Z " fill="#000000"/><text fill="#000000" font-family="Verdana" font-size="14" lengthAdjust="spacing" textLength="47.0381" x="137.8901" y="314.8467">Cuarto</text><line style="stroke:#000000;stroke-width:1;" x1="25.5" x2="269.8184" y1="324" y2="324"/><ellipse cx="35.5" cy="337.6484" fill="none" rx="3" ry="3" style="stroke:#000000;stroke-width:1;"/><text fill="#000000" font-family="Verdana" font-size="14" lengthAdjust="spacing" textLength="35.7178" x="42.5" y="340.9951">int Id</text><ellipse cx="35.5" cy="353.9453" fill="none" rx="3" ry="3" style="stroke:#000000;stroke-width:1;"/><text fill="#000000" font-family="Verdana" font-size="14" lengthAdjust="spacing" textLength="100.5566" x="42.5" y="357.292">string Numero</text><ellipse cx="35.5" cy="370.2422" fill="none" rx="3" ry="3" style="stroke:#000000;stroke-width:1;"/><text fill="#000000" font-family="Verdana" font-size="14" lengthAdjust="spacing" textLength="111.2754" x="42.5" y="373.5889">TipoCuarto Tipo</text><ellipse cx="35.5" cy="386.5391" fill="none" rx="3" ry="3" style="stroke:#000000;stroke-width:1;"/><text fill="#000000" font-family="Verdana" font-size="14" lengthAdjust="spacing" textLength="146.8086" x="42.5" y="389.8857">EstadoCuarto Estado</text><ellipse cx="35.5" cy="402.8359" fill="none" rx="3" ry="3" style="stroke:#000000;stroke-width:1;"/><text fill="#000000" font-family="Verdana" font-size="14" lengthAdjust="spacing" textLength="169.5928" x="42.5" y="406.1826">decimal PrecioPorNoche</text><ellipse cx="35.5" cy="419.1328" fill="none" rx="3" ry="3" style="stroke:#000000;stroke-width:1;"/><text fill="#000000" font-family="Verdana" font-size="14" lengthAdjust="spacing" textLength="96.4619" x="42.5" y="422.4795">int Capacidad</text><ellipse cx="35.5" cy="435.4297" fill="none" rx="3" ry="3" style="stroke:#000000;stroke-width:1;"/><text fill="#000000" font-family="Verdana" font-size="14" lengthAdjust="spacing" textLength="222.3184" x="42.5" y="438.7764">ICollection&lt;Reserva&gt; Reservas</text><line style="stroke:#000000;stroke-width:1;" x1="25.5" x2="269.8184" y1="446.0781" y2="446.0781"/></g><!--class Huesped--><g class="entity" data-entity="Huesped" data-source-line="26" data-uid="ent0004" id="entity_Huesped"><rect fill="#FFFFFF" height="158.0781" rx="2.5" ry="2.5" style="stroke:#000000;stroke-width:1;" width="246.3184" x="305.5" y="296"/><ellipse cx="394.062" cy="310" fill="#FFFFFF" rx="9" ry="9" style="stroke:#000000;stroke-width:1;"/><path d="M397.0308,315.6406 Q396.4526,315.9375 395.812,316.0781 Q395.1714,316.2344 394.4683,316.2344 Q391.9683,316.2344 390.6401,314.5938 Q389.3276,312.9375 389.3276,309.8125 Q389.3276,306.6875 390.6401,305.0313 Q391.9683,303.375 394.4683,303.375 Q395.1714,303.375 395.812,303.5313 Q396.4683,303.6875 397.0308,303.9844 L397.0308,306.7031 Q396.4058,306.125 395.812,305.8594 Q395.2183,305.5781 394.5933,305.5781 Q393.2495,305.5781 392.562,306.6563 Q391.8745,307.7188 391.8745,309.8125 Q391.8745,311.9063 392.562,312.9844 Q393.2495,314.0469 394.5933,314.0469 Q395.2183,314.0469 395.812,313.7813 Q396.4058,313.5 397.0308,312.9219 L397.0308,315.6406 Z " fill="#000000"/><text fill="#000000" font-family="Verdana" font-size="14" lengthAdjust="spacing" textLength="61.6943" x="411.562" y="314.8467">Huesped</text><line style="stroke:#000000;stroke-width:1;" x1="306.5" x2="550.8184" y1="324" y2="324"/><ellipse cx="316.5" cy="337.6484" fill="none" rx="3" ry="3" style="stroke:#000000;stroke-width:1;"/><text fill="#000000" font-family="Verdana" font-size="14" lengthAdjust="spacing" textLength="35.7178" x="323.5" y="340.9951">int Id</text><ellipse cx="316.5" cy="353.9453" fill="none" rx="3" ry="3" style="stroke:#000000;stroke-width:1;"/><text fill="#000000" font-family="Verdana" font-size="14" lengthAdjust="spacing" textLength="100.5703" x="323.5" y="357.292">string Nombre</text><ellipse cx="316.5" cy="370.2422" fill="none" rx="3" ry="3" style="stroke:#000000;stroke-width:1;"/><text fill="#000000" font-family="Verdana" font-size="14" lengthAdjust="spacing" textLength="100.8369" x="323.5" y="373.5889">string Apellido</text><ellipse cx="316.5" cy="386.5391" fill="none" rx="3" ry="3" style="stroke:#000000;stroke-width:1;"/><text fill="#000000" font-family="Verdana" font-size="14" lengthAdjust="spacing" textLength="83.4805" x="323.5" y="389.8857">string Email</text><ellipse cx="316.5" cy="402.8359" fill="none" rx="3" ry="3" style="stroke:#000000;stroke-width:1;"/><text fill="#000000" font-family="Verdana" font-size="14" lengthAdjust="spacing" textLength="105.2393" x="323.5" y="406.1826">string Telefono</text><ellipse cx="316.5" cy="419.1328" fill="none" rx="3" ry="3" style="stroke:#000000;stroke-width:1;"/><text fill="#000000" font-family="Verdana" font-size="14" lengthAdjust="spacing" textLength="125.7334" x="323.5" y="422.4795">string Documento</text><ellipse cx="316.5" cy="435.4297" fill="none" rx="3" ry="3" style="stroke:#000000;stroke-width:1;"/><text fill="#000000" font-family="Verdana" font-size="14" lengthAdjust="spacing" textLength="222.3184" x="323.5" y="438.7764">ICollection&lt;Reserva&gt; Reservas</text><line style="stroke:#000000;stroke-width:1;" x1="306.5" x2="550.8184" y1="446.0781" y2="446.0781"/></g><!--class EstadoReserva--><g class="entity" data-entity="EstadoReserva" data-source-line="36" data-uid="ent0005" id="entity_EstadoReserva"><rect fill="#FFFFFF" height="109.1875" rx="2.5" ry="2.5" style="stroke:#000000;stroke-width:1;" width="132.5283" x="587" y="320.5"/><ellipse cx="600" cy="334.5" fill="#FFFFFF" rx="9" ry="9" style="stroke:#000000;stroke-width:1;"/><path d="M604.1094,340.5 L596.3906,340.5 L596.3906,328.1094 L604.1094,328.1094 L604.1094,330.2656 L598.8438,330.2656 L598.8438,332.9375 L603.6094,332.9375 L603.6094,335.0938 L598.8438,335.0938 L598.8438,338.3438 L604.1094,338.3438 L604.1094,340.5 Z " fill="#000000"/><text fill="#000000" font-family="Verdana" font-size="14" lengthAdjust="spacing" textLength="104.5283" x="612" y="339.3467">EstadoReserva</text><line style="stroke:#000000;stroke-width:1;" x1="588" x2="718.5283" y1="348.5" y2="348.5"/><text fill="#000000" font-family="Verdana" font-size="14" lengthAdjust="spacing" textLength="81.4707" x="593" y="365.4951">Confirmada</text><text fill="#000000" font-family="Verdana" font-size="14" lengthAdjust="spacing" textLength="57.9824" x="593" y="381.792">EnCurso</text><text fill="#000000" font-family="Verdana" font-size="14" lengthAdjust="spacing" textLength="84.9023" x="593" y="398.0889">Completada</text><text fill="#000000" font-family="Verdana" font-size="14" lengthAdjust="spacing" textLength="73.4727" x="593" y="414.3857">Cancelada</text><line style="stroke:#000000;stroke-width:1;" x1="588" x2="718.5283" y1="421.6875" y2="421.6875"/></g><!--class EstadoCuarto--><g class="entity" data-entity="EstadoCuarto" data-source-line="43" data-uid="ent0006" id="entity_EstadoCuarto"><rect fill="#FFFFFF" height="109.1875" rx="2.5" ry="2.5" style="stroke:#000000;stroke-width:1;" width="122.6982" x="12" y="531"/><ellipse cx="25" cy="545" fill="#FFFFFF" rx="9" ry="9" style="stroke:#000000;stroke-width:1;"/><path d="M29.1094,551 L21.3906,551 L21.3906,538.6094 L29.1094,538.6094 L29.1094,540.7656 L23.8438,540.7656 L23.8438,543.4375 L28.6094,543.4375 L28.6094,545.5938 L23.8438,545.5938 L23.8438,548.8438 L29.1094,548.8438 L29.1094,551 Z " fill="#000000"/><text fill="#000000" font-family="Verdana" font-size="14" lengthAdjust="spacing" textLength="94.6982" x="37" y="549.8467">EstadoCuarto</text><line style="stroke:#000000;stroke-width:1;" x1="13" x2="133.6982" y1="559" y2="559"/><text fill="#000000" font-family="Verdana" font-size="14" lengthAdjust="spacing" textLength="73.5684" x="18" y="575.9951">Disponible</text><text fill="#000000" font-family="Verdana" font-size="14" lengthAdjust="spacing" textLength="62.5078" x="18" y="592.292">Ocupado</text><text fill="#000000" font-family="Verdana" font-size="14" lengthAdjust="spacing" textLength="105.4648" x="18" y="608.5889">Mantenimiento</text><text fill="#000000" font-family="Verdana" font-size="14" lengthAdjust="spacing" textLength="62.6445" x="18" y="624.8857">Limpieza</text><line style="stroke:#000000;stroke-width:1;" x1="13" x2="133.6982" y1="632.1875" y2="632.1875"/></g><!--class TipoCuarto--><g class="entity" data-entity="TipoCuarto" data-source-line="50" data-uid="ent0007" id="entity_TipoCuarto"><rect fill="#FFFFFF" height="109.1875" rx="2.5" ry="2.5" style="stroke:#000000;stroke-width:1;" width="104.9316" x="170" y="531"/><ellipse cx="183" cy="545" fill="#FFFFFF" rx="9" ry="9" style="stroke:#000000;stroke-width:1;"/><path d="M187.1094,551 L179.3906,551 L179.3906,538.6094 L187.1094,538.6094 L187.1094,540.7656 L181.8438,540.7656 L181.8438,543.4375 L186.6094,543.4375 L186.6094,545.5938 L181.8438,545.5938 L181.8438,548.8438 L187.1094,548.8438 L187.1094,551 Z " fill="#000000"/><text fill="#000000" font-family="Verdana" font-size="14" lengthAdjust="spacing" textLength="76.9316" x="195" y="549.8467">TipoCuarto</text><line style="stroke:#000000;stroke-width:1;" x1="171" x2="273.9316" y1="559" y2="559"/><text fill="#000000" font-family="Verdana" font-size="14" lengthAdjust="spacing" textLength="68.1816" x="176" y="575.9951">Individual</text><text fill="#000000" font-family="Verdana" font-size="14" lengthAdjust="spacing" textLength="40.7354" x="176" y="592.292">Doble</text><text fill="#000000" font-family="Verdana" font-size="14" lengthAdjust="spacing" textLength="35.752" x="176" y="608.5889">Suite</text><text fill="#000000" font-family="Verdana" font-size="14" lengthAdjust="spacing" textLength="84.4238" x="176" y="624.8857">Presidencial</text><line style="stroke:#000000;stroke-width:1;" x1="171" x2="273.9316" y1="632.1875" y2="632.1875"/></g><!--link Reserva to Huesped--><g class="link" data-entity-1="Reserva" data-entity-2="Huesped" data-source-line="57" data-uid="lnk8" id="link_Reserva_Huesped"><path codeLine="57" d="M343.57,219.12 C344.4,235.07 346.75,251.16 351.5,266 C354.76,276.2 356.4578,281.0197 361.8278,290.6497" fill="none" id="Reserva-to-Huesped" style="stroke:#000000;stroke-width:1;"/><polygon fill="#000000" points="364.75,295.89,363.8603,286.0814,362.3149,291.5231,356.8732,289.9776,364.75,295.89" style="stroke:#000000;stroke-width:1;"/><text fill="#000000" font-family="Verdana" font-size="13" lengthAdjust="spacing" textLength="32.9443" x="352.5" y="262.0669">tiene</text></g><!--link Huesped to Reserva--><g class="link" data-entity-1="Huesped" data-entity-2="Reserva" data-source-line="62" data-uid="lnk13" id="link_Huesped_Reserva"><path codeLine="62" d="M405.98,295.65 C399.04,271.5 392.9458,250.307 385.6158,224.777" fill="none" id="Huesped-to-Reserva" style="stroke:#000000;stroke-width:1;"/><polygon fill="#000000" points="383.96,219.01,382.599,228.7644,385.3398,223.8158,390.2883,226.5567,383.96,219.01" style="stroke:#000000;stroke-width:1;"/><text fill="#000000" font-family="Verdana" font-size="13" lengthAdjust="spacing" textLength="43.3228" x="397.5" y="262.0669">realiza</text></g><!--link Reserva to Cuarto--><g class="link" data-entity-1="Reserva" data-entity-2="Cuarto" data-source-line="58" data-uid="lnk9" id="link_Reserva_Cuarto"><path codeLine="58" d="M254.23,172.45 C225.28,193.06 196.22,218.86 176.5,249 C167.35,262.98 162.5943,273.6969 158.2943,290.0669" fill="none" id="Reserva-to-Cuarto" style="stroke:#000000;stroke-width:1;"/><polygon fill="#000000" points="156.77,295.87,162.9253,288.1815,158.0403,291.0341,155.1878,286.1491,156.77,295.87" style="stroke:#000000;stroke-width:1;"/><text fill="#000000" font-family="Verdana" font-size="13" lengthAdjust="spacing" textLength="49.1182" x="177.5" y="262.0669">reserva</text></g><!--link Cuarto to Reserva--><g class="link" data-entity-1="Cuarto" data-entity-2="Reserva" data-source-line="63" data-uid="lnk14" id="link_Cuarto_Reserva"><path codeLine="63" d="M210.48,295.65 C229.9,271.5 247.8111,249.2166 268.3311,223.6866" fill="none" id="Cuarto-to-Reserva" style="stroke:#000000;stroke-width:1;"/><polygon fill="#000000" points="272.09,219.01,263.3339,223.519,268.9576,222.9072,269.5694,228.5309,272.09,219.01" style="stroke:#000000;stroke-width:1;"/><text fill="#000000" font-family="Verdana" font-size="13" lengthAdjust="spacing" textLength="32.9443" x="246.5" y="262.0669">tiene</text></g><!--link Reserva to EstadoReserva--><g class="link" data-entity-1="Reserva" data-entity-2="EstadoReserva" data-source-line="59" data-uid="lnk10" id="link_Reserva_EstadoReserva"><path codeLine="59" d="M454.7,198.31 C491.2,228.58 532.55,263.46 569.5,296 C578.31,303.76 583.0987,308.0339 592.0587,316.2539" fill="none" id="Reserva-to-EstadoReserva" style="stroke:#000000;stroke-width:1;"/><polygon fill="#000000" points="596.48,320.31,592.5522,311.2783,592.7956,316.9299,587.144,317.1733,596.48,320.31" style="stroke:#000000;stroke-width:1;"/><text fill="#000000" font-family="Verdana" font-size="13" lengthAdjust="spacing" textLength="44.04" x="536.5" y="262.0669">estado</text></g><!--link Cuarto to EstadoCuarto--><g class="link" data-entity-1="Cuarto" data-entity-2="EstadoCuarto" data-source-line="60" data-uid="lnk11" id="link_Cuarto_EstadoCuarto"><path codeLine="60" d="M119.73,454.23 C110.67,479.77 102.8262,501.8753 94.5562,525.1853" fill="none" id="Cuarto-to-EstadoCuarto" style="stroke:#000000;stroke-width:1;"/><polygon fill="#000000" points="92.55,530.84,99.329,523.6955,94.2218,526.1278,91.7895,521.0205,92.55,530.84" style="stroke:#000000;stroke-width:1;"/><text fill="#000000" font-family="Verdana" font-size="13" lengthAdjust="spacing" textLength="44.04" x="109.5" y="497.0669">estado</text></g><!--link Cuarto to TipoCuarto--><g class="link" data-entity-1="Cuarto" data-entity-2="TipoCuarto" data-source-line="61" data-uid="lnk12" id="link_Cuarto_TipoCuarto"><path codeLine="61" d="M175.64,454.23 C184.83,479.77 192.778,501.8846 201.168,525.1946" fill="none" id="Cuarto-to-TipoCuarto" style="stroke:#000000;stroke-width:1;"/><polygon fill="#000000" points="203.2,530.84,203.9157,521.0172,201.5067,526.1355,196.3884,523.7265,203.2,530.84" style="stroke:#000000;stroke-width:1;"/><text fill="#000000" font-family="Verdana" font-size="13" lengthAdjust="spacing" textLength="24.9146" x="193.5" y="497.0669">tipo</text></g><!--SRC=[ZLFBRkCm3BpdAxJdeZyGB08KJee6w2DeymECn6u8IAGWoJsqwBzNZgJOReDYVP9dwE6G8_z9HtIel0NYnK9RY54zOyJm1kfZeV9pHPpKrepdknwZHpE5kXv2aeQi8U6UikejwYDiE0KmS8bw0KkD6MGUUuT1TXYYCCI26zJamAe7uIHxIM0Blea9Z3IhvQqmCGNYV-hfSA8q2MEyrBqBU68NdstmCiQbkQjcCLYWFNcf7mp7gQiAJqsrCNOX7sGduL7q4ISR19_D6AZzjfrOYpfbUt_hZAkMInmDroX-Sopk4706tNYqUU_pRMqSa9qXUxJuAZmlMulEAyX9_ATDvDwfULJ5QoVyIi6rYx7Xhi-fLyfvYwbH7R16ExpDzMPXhIbwOJhOCkgJxdrR_GDmGYP7Pzltv3pX-oWuYRB8RTdG6vc-NhQrDE6Ndb8vvI0Z6MHDkIWBjV7KzVLAdODPgfJxuZUszbggKE0pFR3pRIqLbbjKlnahpY8_2oRp30RovMn-IlzHFFy2bl8cQlLt-cJ-2m00]--></g></svg>